<svg width="318" height="54" fill="none" xmlns="http://www.w3.org/2000/svg"><path d="M16.224 27.56l4.144-7.952C22.104 16.248 23.28 13 23.28 13h.112s.28 3.248.784 6.608l1.176 7.952h-9.128zM.264 41h9.128l3.248-6.272h13.776L27.312 41h9.408L29.44 3.704h-8.568L.264 41zm45.01-10.696h8.848c-1.4 2.968-3.976 4.592-7 4.592-2.24 0-3.808-.616-4.648-1.176l-3.248 6.16c1.288.84 3.808 1.792 7.616 1.792 9.52 0 16.352-6.776 16.352-17.64 0-6.608-4.2-11.2-11.424-11.2-4.368 0-7.56 1.512-9.24 3.024l2.968 5.544a7.758 7.758 0 0 1 4.928-1.792c2.632 0 4.592 1.68 4.76 5.04h-8.904l-1.008 5.656zm17.334 22.904h8.288L73.08 41.28c.56.168 1.736.392 3.64.392 9.352 0 16.52-7 16.52-19.376 0-5.88-2.968-9.464-7.224-9.464-4.648 0-7 2.912-9.184 6.552h-.112c.448-1.848.84-3.64 1.176-5.824h-8.008l-7.28 39.648zM76.664 35.68c-1.288 0-2.016-.168-2.52-.28l.224-1.12c2.352-10.864 5.488-14.224 7.952-14.224 1.568 0 2.24 1.4 2.24 3.696 0 7.896-3.92 11.928-7.896 11.928zm30.411 5.992c9.408 0 15.792-7.168 15.792-17.304 0-6.72-4.2-11.536-11.2-11.536-9.072 0-15.96 7.616-15.96 17.416 0 6.496 4.2 11.424 11.368 11.424zm.784-6.328c-2.464 0-3.64-2.128-3.64-5.32 0-4.592 2.52-10.864 6.72-10.864 2.464 0 3.584 1.904 3.584 5.152 0 4.592-2.128 11.032-6.664 11.032zm23.894 6.16c7 0 12.88-2.632 12.88-9.128 0-3.192-2.464-5.04-5.152-5.376v-.056c3.304-.504 6.216-2.968 6.216-7.224 0-4.48-4.424-6.664-10.192-6.664-3.696 0-6.944 1.176-9.24 2.464l2.072 5.264c1.568-.896 3.64-1.512 6.104-1.512 1.848 0 3.136.952 3.136 2.24 0 2.128-2.016 3.08-4.592 3.08h-2.128l-.952 5.096h2.576c2.296 0 4.088.84 4.088 2.464 0 2.184-1.68 3.024-4.2 3.024-2.912 0-4.984-.672-6.384-1.568l-3.36 5.376c1.848 1.344 5.04 2.52 9.128 2.52zm27.768.168c9.408 0 15.792-7.168 15.792-17.304 0-6.72-4.2-11.536-11.2-11.536-9.072 0-15.96 7.616-15.96 17.416 0 6.496 4.2 11.424 11.368 11.424zm.784-6.328c-2.464 0-3.64-2.128-3.64-5.32 0-4.592 2.52-10.864 6.72-10.864 2.464 0 3.584 1.904 3.584 5.152 0 4.592-2.128 11.032-6.664 11.032zm15.865 6.048c6.329 0 11.089-3.136 13.329-12.544l2.072-8.624h6.216L194.091 41h8.4l4.927-27.44h-21.839L182.051 27c-1.456 5.6-3.192 7.84-5.769 8.176l-.112 6.216zm44.318.336c8.456 0 15.624-4.144 15.624-12.096 0-5.432-3.136-8.792-7.784-8.792-3.92 0-6.72 2.464-8.456 5.152h-.112c.504-1.848 1.008-4.2 1.456-6.608l1.064-5.824h-8.288l-4.76 26.432c1.344.616 4.872 1.736 11.256 1.736zm.896-6.104c-1.344 0-2.352-.168-3.024-.392l.28-1.4c.952-4.424 3.808-5.88 5.824-5.88 1.736 0 2.744 1.176 2.744 2.968 0 2.744-2.352 4.704-5.824 4.704zm29.525 6.048c11.424 0 16.24-10.248 16.24-22.4 0-12.208-8.176-19.208-19.824-19.208l-2.072 6.384c6.72 0 11.368 2.968 12.768 8.12-.952-.504-2.352-.952-4.032-.952-7.28 0-14.672 6.16-14.672 16.8 0 7.056 4.704 11.256 11.592 11.256zm.616-6.272c-2.408 0-3.472-2.072-3.472-5.264 0-5.6 2.352-10.304 6.44-10.304 1.904 0 3.136.616 3.976 1.456-.392 6.888-2.52 14.112-6.944 14.112zm28.956 6.272c5.488 0 8.96-2.016 11.312-3.864l-2.968-5.488c-1.848 1.4-4.088 2.744-6.944 2.744-2.744 0-3.64-1.568-3.92-4.088 9.128-.896 16.352-4.088 16.352-10.752 0-4.592-3.192-7.392-8.736-7.392-9.016 0-16.128 7.336-16.128 17.472 0 6.888 3.864 11.368 11.032 11.368zm3.696-22.512c1.512 0 2.24.728 2.24 2.072 0 2.464-3.08 4.144-8.12 4.592.784-3.416 2.744-6.664 5.88-6.664zm19.021 22.344c7 0 12.88-2.632 12.88-9.128 0-3.192-2.464-5.04-5.152-5.376v-.056c3.304-.504 6.216-2.968 6.216-7.224 0-4.48-4.424-6.664-10.192-6.664-3.696 0-6.944 1.176-9.24 2.464l2.072 5.264c1.568-.896 3.64-1.512 6.104-1.512 1.848 0 3.136.952 3.136 2.24 0 2.128-2.016 3.08-4.592 3.08h-2.128l-.952 5.096h2.576c2.296 0 4.088.84 4.088 2.464 0 2.184-1.68 3.024-4.2 3.024-2.912 0-4.984-.672-6.384-1.568l-3.36 5.376c1.848 1.344 5.04 2.52 9.128 2.52z" fill="#1B74DD"/><path d="M16.224 27.56l4.144-7.952C22.104 16.248 23.28 13 23.28 13h.112s.28 3.248.784 6.608l1.176 7.952h-9.128zM.264 41h9.128l3.248-6.272h13.776L27.312 41h9.408L29.44 3.704h-8.568L.264 41zm45.01-10.696h8.848c-1.4 2.968-3.976 4.592-7 4.592-2.24 0-3.808-.616-4.648-1.176l-3.248 6.16c1.288.84 3.808 1.792 7.616 1.792 9.52 0 16.352-6.776 16.352-17.64 0-6.608-4.2-11.2-11.424-11.2-4.368 0-7.56 1.512-9.24 3.024l2.968 5.544a7.758 7.758 0 0 1 4.928-1.792c2.632 0 4.592 1.68 4.76 5.04h-8.904l-1.008 5.656zm17.334 22.904h8.288L73.08 41.28c.56.168 1.736.392 3.64.392 9.352 0 16.52-7 16.52-19.376 0-5.88-2.968-9.464-7.224-9.464-4.648 0-7 2.912-9.184 6.552h-.112c.448-1.848.84-3.64 1.176-5.824h-8.008l-7.28 39.648zM76.664 35.68c-1.288 0-2.016-.168-2.52-.28l.224-1.12c2.352-10.864 5.488-14.224 7.952-14.224 1.568 0 2.24 1.4 2.24 3.696 0 7.896-3.92 11.928-7.896 11.928zm30.411 5.992c9.408 0 15.792-7.168 15.792-17.304 0-6.72-4.2-11.536-11.2-11.536-9.072 0-15.96 7.616-15.96 17.416 0 6.496 4.2 11.424 11.368 11.424zm.784-6.328c-2.464 0-3.64-2.128-3.64-5.32 0-4.592 2.52-10.864 6.72-10.864 2.464 0 3.584 1.904 3.584 5.152 0 4.592-2.128 11.032-6.664 11.032zm23.894 6.16c7 0 12.88-2.632 12.88-9.128 0-3.192-2.464-5.04-5.152-5.376v-.056c3.304-.504 6.216-2.968 6.216-7.224 0-4.48-4.424-6.664-10.192-6.664-3.696 0-6.944 1.176-9.24 2.464l2.072 5.264c1.568-.896 3.64-1.512 6.104-1.512 1.848 0 3.136.952 3.136 2.24 0 2.128-2.016 3.08-4.592 3.08h-2.128l-.952 5.096h2.576c2.296 0 4.088.84 4.088 2.464 0 2.184-1.68 3.024-4.2 3.024-2.912 0-4.984-.672-6.384-1.568l-3.36 5.376c1.848 1.344 5.04 2.52 9.128 2.52zm27.768.168c9.408 0 15.792-7.168 15.792-17.304 0-6.72-4.2-11.536-11.2-11.536-9.072 0-15.96 7.616-15.96 17.416 0 6.496 4.2 11.424 11.368 11.424zm.784-6.328c-2.464 0-3.64-2.128-3.64-5.32 0-4.592 2.52-10.864 6.72-10.864 2.464 0 3.584 1.904 3.584 5.152 0 4.592-2.128 11.032-6.664 11.032zm15.865 6.048c6.329 0 11.089-3.136 13.329-12.544l2.072-8.624h6.216L194.091 41h8.4l4.927-27.44h-21.839L182.051 27c-1.456 5.6-3.192 7.84-5.769 8.176l-.112 6.216zm44.318.336c8.456 0 15.624-4.144 15.624-12.096 0-5.432-3.136-8.792-7.784-8.792-3.92 0-6.72 2.464-8.456 5.152h-.112c.504-1.848 1.008-4.2 1.456-6.608l1.064-5.824h-8.288l-4.76 26.432c1.344.616 4.872 1.736 11.256 1.736zm.896-6.104c-1.344 0-2.352-.168-3.024-.392l.28-1.4c.952-4.424 3.808-5.88 5.824-5.88 1.736 0 2.744 1.176 2.744 2.968 0 2.744-2.352 4.704-5.824 4.704zm29.525 6.048c11.424 0 16.24-10.248 16.24-22.4 0-12.208-8.176-19.208-19.824-19.208l-2.072 6.384c6.72 0 11.368 2.968 12.768 8.12-.952-.504-2.352-.952-4.032-.952-7.28 0-14.672 6.16-14.672 16.8 0 7.056 4.704 11.256 11.592 11.256zm.616-6.272c-2.408 0-3.472-2.072-3.472-5.264 0-5.6 2.352-10.304 6.44-10.304 1.904 0 3.136.616 3.976 1.456-.392 6.888-2.52 14.112-6.944 14.112zm28.956 6.272c5.488 0 8.96-2.016 11.312-3.864l-2.968-5.488c-1.848 1.4-4.088 2.744-6.944 2.744-2.744 0-3.64-1.568-3.92-4.088 9.128-.896 16.352-4.088 16.352-10.752 0-4.592-3.192-7.392-8.736-7.392-9.016 0-16.128 7.336-16.128 17.472 0 6.888 3.864 11.368 11.032 11.368zm3.696-22.512c1.512 0 2.24.728 2.24 2.072 0 2.464-3.08 4.144-8.12 4.592.784-3.416 2.744-6.664 5.88-6.664zm19.021 22.344c7 0 12.88-2.632 12.88-9.128 0-3.192-2.464-5.04-5.152-5.376v-.056c3.304-.504 6.216-2.968 6.216-7.224 0-4.48-4.424-6.664-10.192-6.664-3.696 0-6.944 1.176-9.24 2.464l2.072 5.264c1.568-.896 3.64-1.512 6.104-1.512 1.848 0 3.136.952 3.136 2.24 0 2.128-2.016 3.08-4.592 3.08h-2.128l-.952 5.096h2.576c2.296 0 4.088.84 4.088 2.464 0 2.184-1.68 3.024-4.2 3.024-2.912 0-4.984-.672-6.384-1.568l-3.36 5.376c1.848 1.344 5.04 2.52 9.128 2.52z" fill="url(#paint0_linear)"/><defs><linearGradient id="paint0_linear" x1="2" y1="41" x2="364" y2="41" gradientUnits="userSpaceOnUse"><stop stop-color="#5BC500" stop-opacity=".65"/><stop offset="1" stop-color="#5BC500" stop-opacity="0"/></linearGradient></defs></svg>