<svg width="236" height="60" fill="none" xmlns="http://www.w3.org/2000/svg"><path d="M38.168 48C36.44 34.176 29.848 15.296 25.88 8.192 24.664 6.08 22.296 4.16 18.776 4.16h-3.584C8.472 11.648.28 37.44.28 43.776.28 46.464 1.432 48 4.312 48h3.392c.64-3.712 1.408-7.488 2.304-11.2H27.48c.448 1.856.832 4.096 1.216 6.976.32 2.112 2.24 4.224 5.888 4.224h3.584zM25.496 29.824H11.928c1.472-6.08 4.224-13.056 6.784-17.6 2.304 4.096 5.312 11.456 6.784 17.6zm47.684 3.84v-5.888c0-8.832-5.504-15.104-14.08-15.104-11.136 0-17.535 7.872-17.535 17.6 0 8.128 5.952 13.952 14.336 13.952 4.927 0 8.191-2.624 8.895-5.12v.832l.128 3.52c.192 4.992-2.816 7.936-9.024 7.936-4.928 0-8.895-1.536-10.944-3.712h-.384v3.904c0 4.096 4.864 7.552 11.968 7.552 11.137 0 16.896-7.744 16.896-16.384 0-1.152-.064-3.008-.128-4.416-.064-1.536-.128-3.52-.128-4.672zM58.14 20.288c3.776 0 6.465 2.624 6.465 8 0 5.504-3.073 8.704-7.36 8.704-4.096 0-6.848-3.328-6.848-7.808 0-5.184 3.328-8.896 7.744-8.896zm43.549 1.536v-3.072c0-2.624-1.856-5.632-7.168-5.632-9.088 0-12.736 6.592-12.736 13.504v15.872c0 3.584 2.432 5.504 6.272 5.504h2.368V28.16c0-5.248 2.112-7.36 5.952-7.36 2.24 0 3.712.512 4.992 1.024h.32zm3.184 9.536c0 9.152 5.952 17.408 16.32 17.408 11.136 0 17.088-8.256 17.088-18.624 0-9.152-5.952-17.472-16.32-17.472-11.136 0-17.088 8.32-17.088 18.688zm24.512 0c0 5.632-2.432 9.728-7.424 9.728-5.696 0-8.192-4.096-8.192-10.944 0-5.696 2.496-9.792 7.424-9.792 5.632 0 8.192 4.096 8.192 11.008zM175.373 48V27.904c0-9.792-6.72-15.232-14.848-15.232-10.752 0-15.552 7.488-15.552 14.784v14.912c0 3.2 2.368 5.632 6.016 5.632h2.56V28.032c0-4.928 2.56-7.744 6.272-7.744 4.416 0 6.976 2.56 6.976 8.384v13.696c0 3.2 2.432 5.632 6.272 5.632h2.304zm18.718-42.048c0-2.752-2.304-4.992-5.056-4.992a4.998 4.998 0 0 0-4.992 4.992c0 2.752 2.24 5.056 4.992 5.056s5.056-2.304 5.056-5.056zm6.144 37.184V41.28h-1.6c-3.776 0-5.248-1.088-5.248-4.544V20.608c0-4.352-2.304-6.4-6.144-6.4h-2.432v23.36c0 6.976 3.648 10.752 10.304 10.752 3.648 0 5.12-1.472 5.12-5.184zm35.328 1.088c-3.008-.64-4.544-2.048-8.256-7.488l-3.776-5.504c2.048-2.304 3.84-4.416 5.248-6.272 2.752-3.584 4.032-6.272 4.032-7.808 0-1.92-1.024-3.648-3.52-3.648h-3.264c-.576 3.456-1.472 5.248-6.976 11.456l-3.52-4.992c-3.84-5.44-5.952-6.528-7.616-6.528h-5.12c.128 2.624 2.304 5.696 6.144 11.264l3.648 5.248-2.816 3.008c-4.288 4.608-6.656 8-6.656 12.096 0 1.728 1.536 3.072 3.52 3.072h3.904c.32-2.112.768-3.84 1.92-5.824.96-1.664 2.368-3.584 4.544-6.08l3.776 5.696c3.008 4.544 5.504 6.592 9.152 6.592 3.776 0 5.632-1.856 5.632-4.288z" fill="#CB9E5A"/></svg>