<svg width="144" height="72" fill="none" xmlns="http://www.w3.org/2000/svg"><path d="M76.03.205c6.456 1.958 11.159 7.95 11.159 15.053 0 7.103-4.703 13.095-11.158 15.054l19.57-7.22a8.208 8.208 0 0 0 5.842-7.863 8.208 8.208 0 0 0-5.842-7.863L76.03.205z" fill="#B5B3B4"/><path d="M65.428 17.977a6.346 6.346 0 0 0 8.441 2.981c3.155-1.52 4.47-5.29 2.98-8.447l4.001-1.9c2.57 5.349.292 11.78-5.053 14.352-5.345 2.572-11.771.292-14.341-5.057l3.972-1.93z" fill="#B5B3B4"/><path d="M71.095 0c-8.442 0-15.277 6.84-15.277 15.287 0 8.448 6.835 15.288 15.277 15.288 8.441 0 15.276-6.84 15.276-15.288C86.37 6.84 79.536 0 71.095 0zm0 26.98c-6.456 0-11.684-5.233-11.684-11.693S64.64 3.595 71.095 3.595c6.455 0 11.683 5.232 11.683 11.692S77.55 26.98 71.095 26.98z" fill="#D3D3D3"/><path d="M61.514 22.887C48.924 25.372 42.79 12.481 42.79 12.481 56.607 29.873 69.868 9.032 83.713 8.74c13.319-.263 19.833 12.364 19.833 12.364-18.402-20.227-29.414-.701-42.032 1.783zM0 62.173L8.617 41.04l8.616 21.133H14.08l-.643-1.666h-9.64l-.672 1.666H0zm4.849-4.384h7.536l-3.768-9.675-3.768 9.675zm27.456-16.721c1.46 0 2.833.293 4.118.848a11.112 11.112 0 0 1 3.36 2.25c.963.965 1.694 2.076 2.249 3.362.555 1.286.847 2.66.847 4.122 0 1.49-.292 2.894-.877 4.18a11.068 11.068 0 0 1-2.366 3.39h3.213v2.982H32.276a10.29 10.29 0 0 1-4.118-.848 10.63 10.63 0 0 1-3.33-2.25c-.963-.965-1.694-2.076-2.249-3.333a10.3 10.3 0 0 1-.847-4.121 10.3 10.3 0 0 1 .847-4.122 11.12 11.12 0 0 1 2.25-3.361c.963-.965 2.073-1.696 3.33-2.251 1.343-.555 2.687-.848 4.147-.848zm.088 18.181a7.075 7.075 0 0 0 2.92-.613 8.1 8.1 0 0 0 2.396-1.637c.671-.702 1.226-1.491 1.606-2.397.38-.906.584-1.9.584-2.923a7.861 7.861 0 0 0-.584-2.982c-.38-.935-.934-1.724-1.636-2.426a7.717 7.717 0 0 0-2.424-1.637 7.735 7.735 0 0 0-2.98-.584 7.697 7.697 0 0 0-2.95.584c-.934.38-1.723.936-2.424 1.637a7.724 7.724 0 0 0-1.635 2.426 7.823 7.823 0 0 0 0 5.934c.38.935.934 1.725 1.635 2.426a7.714 7.714 0 0 0 2.425 1.637c.934.38 1.898.585 2.95.585h.117v-.03zm26.258-18.181h3.038v14.119c0 .993-.175 1.9-.555 2.747-.38.848-.876 1.579-1.548 2.192a7.693 7.693 0 0 1-2.278 1.491c-.877.38-1.782.556-2.804.556-.993 0-1.899-.176-2.746-.556a6.87 6.87 0 0 1-2.25-1.49c-.642-.614-1.138-1.374-1.518-2.193-.38-.847-.555-1.754-.555-2.747V41.068h3.038v14.119c0 .555.117 1.081.321 1.578.205.497.497.935.876 1.286.35.38.789.672 1.285.877a4.111 4.111 0 0 0 3.184 0 3.988 3.988 0 0 0 1.315-.877c.38-.38.672-.818.876-1.286a4.118 4.118 0 0 0 .321-1.578V41.068zm7.565 21.105l8.617-21.134 8.617 21.134h-3.126l-.642-1.666h-9.64l-.671 1.666h-3.155zm4.849-4.385h7.536l-3.768-9.675-3.768 9.675zm28.508-6.109c.146.088.263.205.38.322a3.3 3.3 0 0 1 .321.35c.438.556.789 1.17 1.052 1.842.263.672.379 1.374.379 2.104 0 .176 0 .322-.029.41-.058 1.081-.379 2.046-.993 2.923-.526.818-1.227 1.432-2.074 1.929-.847.467-1.781.701-2.833.701h-1.898c-1.023 0-1.987-.234-2.834-.701a5.712 5.712 0 0 1-2.074-1.93c-.146-.233-.32-.496-.467-.818l2.687-2.075c.059.38.175.701.35 1.023.176.321.41.584.673.847.263.234.584.439.934.556.35.146.701.205 1.081.205h1.14c.788 0 1.46-.264 2.044-.76a2.867 2.867 0 0 0 1.022-1.9v-.468c0-.41-.087-.819-.234-1.17-.146-.35-.38-.672-.642-.964-.263-.292-.584-.497-.964-.672a3.28 3.28 0 0 0-1.14-.292h-1.752c-.7-.03-1.373-.147-2.015-.41a6.332 6.332 0 0 1-1.694-1.052c-.263-.205-.497-.41-.701-.702a6.319 6.319 0 0 1-1.023-1.841 5.672 5.672 0 0 1-.38-2.075v-.41a5.957 5.957 0 0 1 1.023-2.923c.526-.818 1.227-1.432 2.074-1.929.847-.468 1.781-.701 2.833-.701h1.87c1.022 0 1.986.233 2.833.701a5.714 5.714 0 0 1 2.074 1.93c.058.087.116.204.175.32.058.118.117.235.175.322l-2.629 2.046a3.179 3.179 0 0 0-1.08-1.724 2.903 2.903 0 0 0-1.928-.702h-1.14c-.38 0-.759.059-1.11.205a3.32 3.32 0 0 0-.934.555 3.194 3.194 0 0 0-.672.848 3.195 3.195 0 0 0-.35 1.052c-.03.088-.03.146-.03.234v.234c0 .41.088.819.234 1.17.146.35.35.7.643.964.263.292.584.497.964.672.35.175.759.263 1.139.293h1.752c.701.029 1.373.146 2.016.409a5.491 5.491 0 0 1 1.752 1.052zm17.175-10.699c1.461 0 2.833.293 4.119.848a10.685 10.685 0 0 1 3.359 2.28c.963.965 1.694 2.076 2.249 3.391.555 1.286.818 2.69.818 4.18 0 1.461-.263 2.835-.818 4.121-.555 1.287-1.286 2.427-2.249 3.362a10.687 10.687 0 0 1-3.359 2.28 10.284 10.284 0 0 1-4.119.847 10.28 10.28 0 0 1-4.118-.847 10.23 10.23 0 0 1-3.33-2.28c-.964-.965-1.694-2.075-2.249-3.362-.555-1.286-.818-2.66-.818-4.121 0-1.49.263-2.865.818-4.18.555-1.286 1.285-2.426 2.249-3.39a10.896 10.896 0 0 1 3.33-2.28 10.28 10.28 0 0 1 4.118-.848zm0 18.328c.993 0 1.957-.205 2.833-.614a7.332 7.332 0 0 0 2.337-1.637 7.55 7.55 0 0 0 1.577-2.426c.38-.935.585-1.929.585-2.981a7.856 7.856 0 0 0-.585-2.982 7.682 7.682 0 0 0-1.577-2.455c-.672-.702-1.431-1.257-2.337-1.637a6.77 6.77 0 0 0-2.833-.614 6.77 6.77 0 0 0-2.833.614 7.703 7.703 0 0 0-2.308 1.637 7.716 7.716 0 0 0-1.577 2.455 7.855 7.855 0 0 0-.584 2.982c0 1.052.204 2.046.584 2.981s.906 1.725 1.577 2.426a7.554 7.554 0 0 0 2.308 1.637c.876.41 1.84.614 2.833.614zm18.168-.088h8.617v3.04h-11.684V41.098h3.096V59.22h-.029z" fill="#38AEE4"/><path d="M.38 70.942v-.351c.116.058.233.058.38.058a.525.525 0 0 0 .437-.204c.059-.088.117-.146.146-.205.03-.058.088-.146.146-.263L.087 67.492h.41l1.168 2.134.964-2.134h.38l-1.257 2.719c-.263.584-.555.789-.905.789-.205 0-.35 0-.468-.058zm3.417 0v-3.479h.38v1.432H6.25v-1.432h.38v3.479h-.38v-1.696H4.177v1.696h-.38zm3.913 0v-3.479h.351v2.865l2.162-2.865h.321v3.479h-.35v-2.865l-2.162 2.865h-.321zm3.944 0v-3.479h1.52c.613 0 .992.322.992.848 0 .35-.175.643-.467.73.467.088.76.41.76.936 0 .584-.439.965-1.14.965h-1.665zm.38-1.988h1.08c.439 0 .702-.205.702-.555 0-.38-.263-.585-.701-.585h-1.081v1.14zm0 1.666h1.227c.526 0 .818-.263.818-.672 0-.41-.293-.673-.818-.673h-1.227v1.345zm3.388.322v-3.479h2.395v.322h-2.045v1.11h1.665v.322h-1.665v1.374h2.103v.321h-2.453v.03zm3.301 0v-3.479h1.46c.701 0 1.11.38 1.11.965 0 .584-.409.964-1.11.964h-1.08v1.55h-.38zm.38-1.871h1.05c.497 0 .79-.234.79-.643 0-.41-.293-.643-.79-.643h-1.08v1.286h.03zm3.417 1.432c-.35-.35-.497-.76-.497-1.286s.176-.936.497-1.286c.35-.351.76-.526 1.285-.526.38 0 .701.087.964.263v.38a1.63 1.63 0 0 0-.964-.293c-.409 0-.73.147-1.022.41-.263.263-.41.613-.41 1.052 0 .409.147.76.41 1.052.263.263.613.41 1.022.41.41 0 .73-.118 1.023-.351v.38a1.794 1.794 0 0 1-1.052.321c-.467-.03-.905-.175-1.256-.526zm2.862.439l1.548-3.508h.35l1.549 3.508h-.38l-.438-.965h-1.81l-.41.965h-.409zm.935-1.287h1.577l-.788-1.754-.789 1.754zm2.863.965h.146c.321 0 .467-.234.584-.614a5.76 5.76 0 0 0 .087-.438c.03-.176.03-.351.059-.526 0-.176.03-.38.03-.614l.028-.936h2.162v3.479h-.38v-3.157h-1.46l-.03.79c-.029.642-.058 1.052-.146 1.46-.146.585-.409.878-.934.878h-.146v-.322zm4.176.322v-3.479h.38v1.286h1.052c.38 0 .7.088.905.293.234.204.322.467.322.789 0 .643-.468 1.081-1.257 1.081h-1.402v.03zm.38-.322h1.023c.584 0 .905-.263.905-.76s-.321-.76-.906-.76h-1.022v1.52zm3.154.322v-3.479h.38v1.432h2.074v-1.432h.38v3.479h-.38v-1.696H37.27v1.696h-.38zm3.915 0v-3.479h.38v1.286h.905c.38 0 .7.088.905.293.234.204.322.467.322.789 0 .643-.468 1.081-1.256 1.081h-1.256v.03zm.38-.322h.876c.584 0 .905-.263.905-.76s-.321-.76-.905-.76h-.877v1.52zm2.687.322v-3.479h.38v3.479h-.38zm1.489-.001v-3.478h.35v2.865l2.162-2.865h.322v3.478h-.35v-2.864l-2.162 2.864h-.322zm.585-4.472h.32c0 .263.205.468.527.468.292 0 .496-.205.496-.468h.321a.75.75 0 0 1-.233.556c-.146.146-.35.204-.584.204-.526 0-.847-.292-.847-.76zm4.819 4.473v-3.479h.35v2.865l2.162-2.865h.32v3.479h-.35v-2.865l-2.161 2.865h-.321zm3.972 0v-3.479h.38v1.432h2.074v-1.432h.38v3.479h-.38v-1.696h-2.074v1.696h-.38zm3.914 0v-3.479h2.337v.322h-1.986v3.157h-.35zm3.126 0v-3.479h.35v2.865l2.162-2.865h.321v3.479h-.35v-2.865l-2.162 2.865h-.321zm3.972 0v-3.479h2.366v.322H66.1v.993h1.051c.38 0 .701.088.906.293.204.204.32.468.32.789 0 .643-.466 1.082-1.226 1.082H65.75zm.35-.322h1.023c.584 0 .905-.263.905-.76 0-.468-.321-.73-.905-.73H66.1v1.49zm3.243.322v-3.479h.35v2.865l2.162-2.865h.321v3.479h-.35v-2.865l-2.162 2.865h-.321zm4.848 0v-3.128h-1.197v-.322h2.775v.322H74.57v3.157h-.38v-.03zm3.71-3.538a1.7 1.7 0 0 1 1.256.527c.321.35.496.76.496 1.286s-.175.935-.496 1.286c-.321.35-.73.526-1.256.526s-.906-.175-1.256-.526c-.35-.35-.497-.79-.497-1.286 0-.497.176-.936.497-1.286.321-.351.76-.526 1.256-.526zm0 3.274c.38 0 .701-.146.964-.409a1.48 1.48 0 0 0 .409-1.052c0-.439-.146-.76-.41-1.052-.262-.293-.583-.41-.963-.41s-.701.147-.964.41a1.48 1.48 0 0 0-.409 1.052c0 .438.146.76.41 1.052.233.263.583.41.963.41zm2.716.264v-3.479h1.46c.702 0 1.11.38 1.11.965 0 .584-.408.964-1.11.964h-1.08v1.55h-.38zm.38-1.871h1.08c.497 0 .79-.234.79-.643 0-.41-.293-.643-.79-.643h-1.08v1.286zm4.527 1.871v-3.479h.38v1.432h2.074v-1.432h.38v3.479h-.38v-1.696h-2.103v1.696h-.35zm3.564 0l1.548-3.508h.35l1.549 3.508h-.38l-.438-.965h-1.811l-.41.965h-.408zm.935-1.287h1.577l-.789-1.754-.788 1.754zm3.651-2.192v1.52l1.606-1.52h.497l-1.694 1.579 1.957 1.9h-.526l-1.84-1.783v1.782h-.38v-3.478h.38zm3.067 3.479v-3.479h.35v2.865l2.162-2.865h.321v3.479h-.35v-2.865l-2.162 2.865h-.321zm3.972 0v-3.479h2.716v3.479h-.379v-3.128h-1.987v3.157h-.35v-.03zm3.827 0v-3.479h.35v2.865l2.162-2.865h.321v3.479h-.351v-2.865l-2.161 2.865h-.321zm5.403 0v-3.479h.35v2.865l2.162-2.865h.321v3.479h-.35v-2.865l-2.162 2.865h-.321zm5.784-3.479v1.52l1.606-1.52h.497l-1.695 1.579 1.957 1.9h-.525l-1.84-1.783v1.782h-.351v-3.478h.351zm4.41-.059c.497 0 .906.176 1.256.527.322.35.497.76.497 1.286s-.175.935-.497 1.286c-.321.35-.73.526-1.256.526-.525 0-.905-.175-1.256-.526-.35-.35-.496-.79-.496-1.286 0-.497.175-.936.496-1.286.322-.351.731-.526 1.256-.526zm0 3.274c.38 0 .701-.146.964-.409a1.48 1.48 0 0 0 .409-1.052c0-.439-.146-.76-.409-1.052-.263-.293-.584-.41-.964-.41-.379 0-.701.147-.964.41a1.484 1.484 0 0 0-.408 1.052c0 .438.146.76.408 1.052.234.263.555.41.964.41zm2.717.264v-3.479h1.46c.701 0 1.11.38 1.11.965 0 .584-.409.964-1.11.964h-1.081v1.55h-.379zm.379-1.871h1.081c.497 0 .789-.234.789-.643 0-.41-.292-.643-.789-.643h-1.081v1.286zm3.067 1.871v-3.479h1.461c.701 0 1.11.38 1.11.965 0 .584-.409.964-1.11.964h-1.081v1.55h-.38zm.351-1.871h1.081c.496 0 .788-.234.788-.643 0-.41-.292-.643-.788-.643h-1.081v1.286zm4.702-1.667c.497 0 .906.176 1.256.527.321.35.497.76.497 1.286s-.176.935-.497 1.286c-.321.35-.73.526-1.256.526s-.905-.175-1.256-.526c-.35-.35-.496-.79-.496-1.286 0-.497.175-.936.496-1.286.321-.351.73-.526 1.256-.526zm0 3.274c.38 0 .701-.146.964-.409a1.48 1.48 0 0 0 .409-1.052c0-.439-.146-.76-.409-1.052-.263-.293-.584-.41-.964-.41s-.701.147-.964.41a1.48 1.48 0 0 0-.409 1.052c0 .438.146.76.409 1.052.234.263.555.41.964.41zm2.308.059v-.38c.35.205.701.292 1.11.292.671 0 1.08-.292 1.08-.73 0-.41-.379-.702-.964-.702h-.438v-.322h.468c.496 0 .788-.204.788-.584 0-.35-.35-.585-.847-.585-.35 0-.672.088-1.022.234v-.35c.35-.147.701-.234 1.051-.234.351 0 .643.087.848.233.233.176.35.38.35.643 0 .205-.058.38-.175.497a1.115 1.115 0 0 1-.38.263c.205.059.351.176.497.322.146.146.233.35.233.584 0 .322-.117.556-.379.76-.263.205-.585.293-1.023.293-.467.029-.876-.059-1.197-.234zm3.534.205v-3.479h.351v2.865l2.161-2.865h.322v3.479h-.351v-2.865l-2.161 2.865h-.322zm3.973 0v-3.479h.35v2.865l2.161-2.865H144v3.479h-.351v-2.865l-2.161 2.865h-.321z" fill="#B5B3B4"/></svg>