<svg width="169" height="66" fill="none" xmlns="http://www.w3.org/2000/svg"><path d="M83.034 40.425h24.025V21.938c-.886.996-2.325 1.66-3.765 1.66-1.66 0-3.1-.775-4.096-1.882-.886 1.218-2.436 1.882-4.096 1.882-1.661 0-3.1-.775-4.097-1.882-.885 1.218-2.435 1.882-4.096 1.882-1.66 0-3.1-.775-3.986-1.882v18.71h.111z" fill="#32AEE4"/><path d="M80.488 59.246v.554h.775a3.362 3.362 0 0 1-.775-.554zm2.546-19.042v5.978c0 2.325.332 4.318.886 5.979.553 1.66 1.44 2.989 2.436 4.096.996 1.107 2.325 1.882 3.764 2.325 1.439.554 3.1.775 4.982.775 1.771 0 3.432-.221 4.982-.775 1.439-.553 2.768-1.328 3.764-2.325.996-1.107 1.882-2.435 2.436-4.096.553-1.66.885-3.654.885-5.979v-5.978H83.034zM108.83 59.91h.443v-.331c-.111.11-.221.221-.443.332z" fill="#187FA3"/><path d="M31.11 45.63c-1.439-1.108-3.543-1.662-6.31-1.662H12.4v13.507h12.4c2.767 0 4.871-.553 6.31-1.66 1.44-1.107 2.215-2.768 2.215-4.982 0-2.325-.776-4.097-2.215-5.204zm0-12.4c0-1.993-.664-3.433-1.993-4.54-1.328-.996-3.32-1.55-5.978-1.55h-10.74v12.732h10.74c5.314-.11 7.971-2.214 7.971-6.643z" fill="#1CA94A"/><path d="M117.466 19.722a2.457 2.457 0 0 0-2.436 2.436V45.85c0 5.647-1.771 9.854-5.203 12.621-3.433 2.768-8.304 4.208-14.725 4.208-6.31 0-11.293-1.44-14.725-4.208-3.432-2.657-5.093-6.974-5.093-12.62V22.157a2.457 2.457 0 0 0-2.435-2.436H2.436A2.457 2.457 0 0 0 0 22.158v41.406A2.457 2.457 0 0 0 2.436 66h163.522a2.457 2.457 0 0 0 2.435-2.436V22.158a2.457 2.457 0 0 0-2.435-2.436h-48.492zm-79.713 38.97c-2.768 1.883-7.086 2.88-12.954 2.88H4.43v-38.64h18.71c2.878 0 5.314.222 7.418.776 2.103.443 3.764 1.218 5.203 2.103 1.329.886 2.325 1.993 2.99 3.211.664 1.218.996 2.657.996 4.096 0 1.993-.554 3.654-1.661 5.093-1.107 1.44-2.768 2.547-4.982 3.21 2.768.554 4.871 1.662 6.532 3.211 1.55 1.55 2.325 3.654 2.325 6.2-.11 3.322-1.44 5.979-4.207 7.86zm24.246 2.88h-7.971v-38.64h7.97v38.64zm101.08-5.758c-.664 1.329-1.771 2.547-3.211 3.543-1.439.997-3.432 1.772-5.757 2.436-2.325.553-5.314.886-8.746.886-1.993 0-3.875-.111-5.757-.443-1.882-.332-3.653-.665-5.314-1.218a29.359 29.359 0 0 1-4.65-1.993c-1.439-.775-2.657-1.66-3.653-2.657l2.767-3.321c2.104 1.77 4.54 3.21 7.307 4.096a30.167 30.167 0 0 0 9.189 1.44c3.765 0 6.311-.554 7.861-1.55 1.55-.997 2.325-2.437 2.325-4.208 0-1.44-.554-2.546-1.771-3.543-1.218-.996-3.322-1.882-6.2-2.767l-10.518-3.322c-3.432-1.107-6.089-2.546-7.861-4.207-1.771-1.66-2.657-3.875-2.657-6.532 0-1.329.332-2.657.997-3.986.664-1.217 1.66-2.435 2.989-3.32 1.329-.997 3.1-1.772 5.203-2.326 2.104-.553 4.65-.886 7.64-.886 1.771 0 3.542.111 5.425.443 1.771.332 3.542.665 5.092 1.218 1.661.554 3.211 1.218 4.539 1.993 1.44.775 2.658 1.66 3.654 2.657l-2.768 3.321c-2.103-1.771-4.428-3.21-7.085-4.096-2.658-.886-5.536-1.44-8.968-1.44-2.768 0-4.871.444-6.2 1.44-1.329.996-2.104 2.104-2.104 3.543 0 .775.111 1.44.333 1.993.221.553.664 1.107 1.328 1.55a8.288 8.288 0 0 0 2.436 1.328c.996.443 2.214.886 3.653 1.329l10.407 3.321c3.322 1.107 5.979 2.436 7.861 4.207 1.882 1.771 2.878 3.875 2.878 6.532.333 1.66 0 3.21-.664 4.54z" fill="#1CA94A"/><path d="M106.948 8.098c-9.078-.886-12.51 8.525-12.51 8.525 8.635-13.175 19.263.664 29.117-.111 9.41-.664 13.175-9.964 13.175-9.964-11.625 15.5-20.704 2.436-29.782 1.55z" fill="#79C5EE"/><path d="M106.948 2.008c-9.078-.885-12.51 8.525-12.51 8.525 8.635-13.174 19.263.665 29.117-.11 9.41-.665 13.175-9.965 13.175-9.965-11.625 15.39-20.704 2.436-29.782 1.55z" fill="#79C5EE"/></svg>