<svg width="427" height="52" fill="none" xmlns="http://www.w3.org/2000/svg"><rect x="348" y="29" width="22" height="22" rx="2" stroke="#fff" stroke-width="2"/><rect x="376" y="29" width="22" height="22" rx="2" stroke="#fff" stroke-width="2"/><rect x="376" y="1" width="22" height="22" rx="2" stroke="#fff" stroke-width="2"/><rect x="404" y="29" width="22" height="22" rx="2" stroke="#fff" stroke-width="2"/><path d="M353.293 39.293a1 1 0 0 0 0 1.414l6.364 6.364a1 1 0 1 0 1.414-1.414L355.414 40l5.657-5.657a1 1 0 1 0-1.414-1.414l-6.364 6.364zM364 39h-10v2h10v-2zm56.707 1.707a1 1 0 0 0 0-1.414l-6.364-6.364a1 1 0 1 0-1.414 1.414L418.586 40l-5.657 5.657a1 1 0 1 0 1.414 1.414l6.364-6.364zM410 41h10v-2h-10v2zm-23.707 4.707a1 1 0 0 0 1.414 0l6.364-6.364a1 1 0 1 0-1.414-1.414L387 43.586l-5.657-5.657a1 1 0 1 0-1.414 1.414l6.364 6.364zM386 35v10h2V35h-2zm1.707-28.707a1 1 0 0 0-1.414 0l-6.364 6.364a1 1 0 1 0 1.414 1.414L387 8.414l5.657 5.657a1 1 0 1 0 1.414-1.414l-6.364-6.364zM388 17V7h-2v10h2zM10.384 27.304h1.536l-.096 4.224h-1.792V29H1.888v2.528H.096L0 27.304h.96c1.29-1.653 1.936-4.016 1.936-7.088V17.8h7.488v9.504zm-2.048-7.808H4.944v1.344c0 1.344-.107 2.512-.32 3.504-.213.981-.624 1.968-1.232 2.96h4.944v-7.808zM12.708 29v-1.312c.373.064.683.048.928-.048.256-.107.448-.293.576-.56.128-.267.219-.55.272-.848.053-.299.085-.667.096-1.104v-4.256h6.224V29h-1.92v-6.816h-2.512v1.52c0 .715-.016 1.296-.048 1.744a8.338 8.338 0 0 1-.24 1.52c-.128.576-.315 1.013-.56 1.312-.245.299-.608.528-1.088.688-.47.16-1.045.17-1.728.032zm14.157-3.024L24.657 29h-2.112l2.4-3.04a3.052 3.052 0 0 1-.704-.144 3.314 3.314 0 0 1-.704-.384 1.795 1.795 0 0 1-.592-.736 2.776 2.776 0 0 1-.224-1.152c0-.501.085-.928.256-1.28.181-.363.384-.63.608-.8.224-.17.49-.304.8-.4.32-.107.56-.165.72-.176.17-.01.347-.016.528-.016h4.4V29h-1.92v-3.024h-1.248zm1.248-3.792h-1.696c-.597 0-1.035.096-1.312.288-.267.192-.4.523-.4.992 0 .416.134.72.4.912.267.192.704.288 1.312.288h1.696v-2.48zm9.88 3.2V29h-1.92v-8.128h1.92v3.2h3.52v-3.2h1.92V29h-1.92v-3.616h-3.52zm9.21-2h-1.825c-.021-.81.278-1.483.896-2.016.619-.544 1.557-.816 2.816-.816.619 0 1.157.075 1.616.224.459.139.805.31 1.04.512.235.192.416.432.544.72.139.288.224.539.256.752.032.203.048.427.048.672v3.248c0 .427.038.704.112.832.075.128.272.181.592.16V29c-.33.032-.613.048-.848.048-.928 0-1.456-.352-1.584-1.056-.63.8-1.53 1.2-2.704 1.2-.533 0-.997-.064-1.392-.192-.395-.117-.693-.261-.896-.432a2.005 2.005 0 0 1-.464-.608 3.163 3.163 0 0 1-.208-.608 3.885 3.885 0 0 1-.032-.512c0-.395.075-.741.224-1.04.16-.31.352-.544.576-.704a3.91 3.91 0 0 1 .608-.352 2.13 2.13 0 0 1 .464-.176c.181-.053.373-.096.576-.128.203-.032.432-.064.688-.096l.624-.08a2.31 2.31 0 0 1 .384-.048c.181-.021.315-.043.4-.064l.448-.064a.932.932 0 0 0 .272-.096.38.38 0 0 0 .192-.256 1.82 1.82 0 0 0 .048-.464c0-.939-.528-1.408-1.584-1.408-.661 0-1.147.15-1.456.448a1.31 1.31 0 0 0-.432 1.072zm3.471 2v-.288c-.192.139-.65.25-1.376.336-.341.043-.592.08-.752.112-.15.021-.336.064-.56.128-.213.064-.368.139-.464.224a1.168 1.168 0 0 0-.368.88c0 .33.102.597.304.8.214.203.534.304.96.304.278 0 .534-.032.768-.096.235-.064.47-.181.704-.352.245-.17.438-.427.576-.768.139-.352.208-.779.208-1.28zm4.29-4.512h4.385c1.76 0 2.64.656 2.64 1.968 0 .555-.16.992-.48 1.312-.32.31-.683.501-1.089.576v.032c1.238.267 1.856.965 1.856 2.096 0 .768-.277 1.317-.832 1.648-.554.33-1.264.496-2.128.496h-4.352v-8.128zm1.92 1.312v1.952h1.648c.545 0 .929-.101 1.153-.304a.94.94 0 0 0 .335-.72c0-.619-.426-.928-1.28-.928h-1.855zm0 3.264v2.24h1.825c1.055 0 1.583-.357 1.583-1.072 0-.779-.549-1.168-1.648-1.168h-1.76zm9.188 1.28l3.808-5.856h2.112V29h-1.92v-5.856L66.264 29h-2.112v-8.128h1.92v5.856zm10.14-4.544V29h-1.92v-8.128h5.92v1.312h-4zm6.568 1.2h-1.824c-.021-.81.278-1.483.896-2.016.619-.544 1.558-.816 2.816-.816.619 0 1.158.075 1.616.224.459.139.806.31 1.04.512.235.192.416.432.544.72.139.288.224.539.256.752.032.203.048.427.048.672v3.248c0 .427.038.704.112.832.075.128.272.181.592.16V29c-.33.032-.613.048-.848.048-.928 0-1.456-.352-1.584-1.056-.63.8-1.53 1.2-2.704 1.2-.533 0-.997-.064-1.392-.192-.394-.117-.693-.261-.896-.432a2.004 2.004 0 0 1-.464-.608 3.156 3.156 0 0 1-.208-.608 3.868 3.868 0 0 1-.032-.512c0-.395.075-.741.224-1.04.16-.31.352-.544.576-.704.235-.16.438-.277.608-.352a2.13 2.13 0 0 1 .464-.176c.182-.053.374-.096.576-.128.203-.032.432-.064.688-.096l.624-.08c.086-.021.214-.037.384-.048a3.46 3.46 0 0 0 .4-.064l.448-.064a.934.934 0 0 0 .272-.096.381.381 0 0 0 .192-.256 1.82 1.82 0 0 0 .048-.464c0-.939-.528-1.408-1.584-1.408-.661 0-1.146.15-1.456.448-.31.288-.453.645-.432 1.072zm3.472 2v-.288c-.192.139-.65.25-1.376.336-.341.043-.592.08-.752.112-.15.021-.336.064-.56.128-.213.064-.368.139-.464.224a1.167 1.167 0 0 0-.368.88c0 .33.102.597.304.8.214.203.534.304.96.304.278 0 .534-.032.768-.096.235-.064.47-.181.704-.352.246-.17.438-.427.576-.768.139-.352.208-.779.208-1.28zm6.21 2.304h3.649v-6.816h1.92v6.816h1.408l-.16 3.424h-1.6V29h-7.136v-8.128h1.92v6.816zm10.11-.96l3.808-5.856h2.112V29h-1.92v-5.856L102.764 29h-2.112v-8.128h1.92v5.856zm10.141 0l3.808-5.856h2.112V29h-1.92v-5.856L112.905 29h-2.112v-8.128h1.92v5.856zm13.875 0l3.808-5.856h2.112V29h-1.92v-5.856L126.78 29h-2.112v-8.128h1.92v5.856zm13.852-.704h1.824a5.27 5.27 0 0 1-.16.8 3.389 3.389 0 0 1-.4.864c-.181.31-.405.581-.672.816-.266.235-.629.427-1.088.576-.448.16-.954.24-1.52.24-1.344 0-2.362-.395-3.056-1.184-.682-.79-1.024-1.85-1.024-3.184 0-.79.107-1.472.32-2.048.224-.576.48-1.008.768-1.296a3.233 3.233 0 0 1 1.072-.704c.416-.17.758-.272 1.024-.304.267-.032.544-.048.832-.048 1.174 0 2.086.293 2.736.88.662.576 1.04 1.29 1.136 2.144h-1.824a1.884 1.884 0 0 0-.56-1.2c-.33-.341-.789-.512-1.376-.512-1.386 0-2.08 1.03-2.08 3.088 0 .597.07 1.11.208 1.536.139.427.32.747.544.96.235.203.47.347.704.432.235.085.48.128.736.128.63 0 1.088-.203 1.376-.608.288-.416.448-.875.48-1.376zm5.476-3.84V29h-1.92v-8.128h7.488V29h-1.92v-6.816h-3.648zm9.845-1.312c.512-.213 1.098-.32 1.76-.32.661 0 1.248.107 1.76.32.512.203.917.459 1.216.768.298.31.544.672.736 1.088.192.416.32.8.384 1.152a5.892 5.892 0 0 1 0 2.112 4.857 4.857 0 0 1-.384 1.152 3.924 3.924 0 0 1-.736 1.088c-.299.31-.704.565-1.216.768-.512.213-1.099.32-1.76.32-.662 0-1.248-.107-1.76-.32-.512-.203-.918-.459-1.216-.768a3.98 3.98 0 0 1-.736-1.072c-.192-.416-.32-.8-.384-1.152a5.892 5.892 0 0 1 0-2.128c.064-.352.192-.736.384-1.152.192-.416.437-.779.736-1.088.298-.31.704-.565 1.216-.768zm2.4 1.088a2.114 2.114 0 0 0-.64-.096 2.11 2.11 0 0 0-.64.096c-.203.064-.432.192-.688.384-.246.192-.443.512-.592.96-.15.437-.224.981-.224 1.632 0 .65.074 1.2.224 1.648.149.437.346.752.592.944.256.192.485.32.688.384.202.064.416.096.64.096.224 0 .437-.032.64-.096.202-.064.426-.192.672-.384.256-.192.458-.507.608-.944.149-.448.224-.997.224-1.648 0-.65-.075-1.195-.224-1.632-.15-.448-.352-.768-.608-.96-.246-.192-.47-.32-.672-.384zm4.453 7.04v-1.312c.374.064.683.048.928-.048.256-.107.448-.293.576-.56.128-.267.219-.55.272-.848a7.28 7.28 0 0 0 .096-1.104v-4.256h6.224V29h-1.92v-6.816h-2.512v1.52c0 .715-.016 1.296-.048 1.744a8.286 8.286 0 0 1-.24 1.52c-.128.576-.314 1.013-.56 1.312-.245.299-.608.528-1.088.688-.469.16-1.045.17-1.728.032zm10.397-8.128h1.92v3.136h1.872c.278 0 .512.005.704.016.203.01.448.043.736.096.299.043.544.123.736.24.203.107.4.25.592.432.203.17.352.405.448.704.107.288.16.63.16 1.024 0 1.653-.976 2.48-2.928 2.48h-4.24v-8.128zm1.92 4.448v2.368h1.856c.416 0 .752-.096 1.008-.288.267-.203.4-.512.4-.928 0-.768-.469-1.152-1.408-1.152h-1.856zm6.128 1.136h1.824c0 .395.139.752.416 1.072.288.32.789.48 1.504.48.704 0 1.189-.133 1.456-.4.277-.267.416-.576.416-.928 0-.757-.539-1.136-1.616-1.136h-1.088v-1.312h.88c.523 0 .891-.112 1.104-.336a1.11 1.11 0 0 0 .336-.816c0-.341-.128-.63-.384-.864-.256-.235-.651-.352-1.184-.352-1.035 0-1.568.485-1.6 1.456h-1.824c.011-.33.064-.64.16-.928.107-.288.277-.581.512-.88.245-.299.608-.533 1.088-.704.491-.17 1.083-.256 1.776-.256 1.184 0 2.059.24 2.624.72.565.47.848 1.056.848 1.76 0 .501-.133.896-.4 1.184-.267.288-.592.47-.976.544v.032c1.152.224 1.728.832 1.728 1.824 0 .341-.059.656-.176.944a2.647 2.647 0 0 1-.56.864c-.256.277-.656.496-1.2.656-.533.16-1.179.24-1.936.24-.608 0-1.147-.07-1.616-.208-.459-.139-.816-.304-1.072-.496a2.515 2.515 0 0 1-.624-.72 2.944 2.944 0 0 1-.32-.736 3.79 3.79 0 0 1-.096-.704zm9.965 5.472v-1.312c.256.064.501.096.736.096.362 0 .629-.101.8-.304.181-.192.341-.539.48-1.04l.112-.384-3.696-8.112h2.304l2.448 6.048 1.872-6.048H198l-3.104 8.832c-.235.683-.464 1.163-.688 1.44-.47.587-1.131.88-1.984.88-.416 0-.816-.032-1.2-.096zm10.64-9.744h-2.784v-1.312h7.488v1.312h-2.784V29h-1.92v-6.816zm11.466 4.464h1.824a3.61 3.61 0 0 1-.304.88 3.52 3.52 0 0 1-.608.848c-.267.288-.656.517-1.168.688-.512.17-1.11.256-1.792.256-.256 0-.512-.016-.768-.048-.246-.021-.587-.112-1.024-.272a3.781 3.781 0 0 1-1.136-.64c-.31-.277-.587-.699-.832-1.264-.246-.576-.368-1.248-.368-2.016 0-1.419.346-2.528 1.04-3.328.704-.8 1.738-1.2 3.104-1.2 2.528 0 3.85 1.472 3.968 4.416v.24c.01.096.016.17.016.224h-6.08c0 .288.037.57.112.848.074.277.192.555.352.832.16.267.394.485.704.656.309.16.666.24 1.072.24a2.22 2.22 0 0 0 1.232-.352c.373-.245.592-.581.656-1.008zm-4.128-2.528h4.048a2.91 2.91 0 0 0-.08-.672 2.81 2.81 0 0 0-.256-.72 1.488 1.488 0 0 0-.608-.624c-.267-.16-.598-.24-.992-.24-.694 0-1.227.23-1.6.688a2.311 2.311 0 0 0-.512 1.568zm8.46-1.088v-2.16h2.112v2.16h-2.112zm0 5.968v-2.16h2.112V29h-2.112zm84.61-2.272l3.808-5.856h2.112V29h-1.92v-5.856L302.264 29h-2.112v-8.128h1.92v5.856zM309.349 29v-1.312c.373.064.682.048.928-.048.256-.107.448-.293.576-.56a3.31 3.31 0 0 0 .272-.848c.053-.299.085-.667.096-1.104v-4.256h6.224V29h-1.92v-6.816h-2.512v1.52c0 .715-.016 1.296-.048 1.744a8.461 8.461 0 0 1-.24 1.52c-.128.576-.315 1.013-.56 1.312-.246.299-.608.528-1.088.688-.47.16-1.046.17-1.728.032zm12.317-2.272l3.808-5.856h2.112V29h-1.92v-5.856L321.858 29h-2.112v-8.128h1.92v5.856z" fill="#fff"/></svg>