<svg width="181" height="59" fill="none" xmlns="http://www.w3.org/2000/svg"><g clip-path="url(#clip0)"><path d="M80 0H2a2 2 0 0 0-2 2v55a2 2 0 0 0 2 2h78a2 2 0 0 0 2-2V2a2 2 0 0 0-2-2z" fill="#FC6847"/><path d="M7.528 51.784c0 .64.512 1.216 1.216 1.216H33.96c.704 0 1.216-.576 1.216-1.216v-1.856c0-.64-.512-1.216-1.216-1.216H12.456v-16.32h18.368c.64 0 1.216-.512 1.216-1.216V29.32c0-.64-.576-1.216-1.216-1.216H12.456V12.488H33.96c.704 0 1.216-.576 1.216-1.216V9.416c0-.64-.512-1.216-1.216-1.216H8.744c-.704 0-1.216.576-1.216 1.216v42.368zm50.611 0c0 .64.576 1.216 1.216 1.216h2.432c.64 0 1.216-.576 1.216-1.216V12.488h11.136c.704 0 1.216-.576 1.216-1.216V9.416c0-.64-.512-1.216-1.216-1.216H47.003c-.704 0-1.216.576-1.216 1.216v1.856c0 .64.512 1.216 1.216 1.216h11.136v39.296z" fill="#fff"/><path d="M88.766 51.784c0 .64.575 1.216 1.215 1.216h2.24c.704 0 1.216-.576 1.216-1.216V16.968h.064l29.377 36.672h1.152c.64 0 1.216-.512 1.216-1.152V9.416c0-.64-.576-1.216-1.216-1.216h-2.24c-.704 0-1.216.576-1.216 1.216v34.112h-.128L91.582 7.56h-1.6c-.64 0-1.216.512-1.216 1.152v43.072zM139.672 53h2.56c.576 0 .96-.384 1.088-.704l4.672-10.56h22.72l4.736 10.56c.128.32.512.704 1.088.704h2.56c.96 0 1.472-.832 1.088-1.664L160.856 8.264c-.192-.384-.512-.704-1.088-.704h-.64c-.576 0-.896.32-1.088.704l-19.456 43.072c-.384.832.128 1.664 1.088 1.664zm10.112-15.232l9.344-20.992h.512c3.136 6.976 6.208 14.016 9.344 20.992h-19.2z" fill="#FC6847"/></g><defs><clipPath id="clip0"><path fill="#fff" d="M0 0h180.312v59H0z"/></clipPath></defs></svg>