<svg width="150" height="75" fill="none" xmlns="http://www.w3.org/2000/svg"><path fill-rule="evenodd" clip-rule="evenodd" d="M34.033 6.406c12.204-8.166 24.407-8.597 36.61-.879-.14.328-.66 1.678-1.552 2.181C57.415 1.492 47.168 3.705 38.893 9.37c-.442 12.784 4.603 22.77 14.09 28.987.442-7.455 3.982-15.788 14.703-22.06-10.488 4.019-14.23 11.146-15.122 16.547-4.045-9.604 1.824-15.109 9.703-18.464 4.992-1.814 8.299-2.885 9.712-7.966C72.413 22.505 66.21 34.442 53.006 42 39.918 34.37 33.475 22.577 34.033 6.406z" fill="#78BC61"/><path d="M10.65 74.3c2.775 0 5-.925 6.675-2.75v-7.575h-1.15v7.15C14.85 72.5 13 73.2 10.65 73.2c-2.125 0-3.925-.75-5.4-2.25-1.475-1.5-2.2-3.4-2.2-5.675 0-2.3.725-4.2 2.2-5.7 1.475-1.525 3.3-2.275 5.475-2.275 2.1 0 3.975.65 5.625 1.95v-1.225C14.8 56.8 12.9 56.2 10.65 56.2c-2.475 0-4.575.85-6.25 2.575C2.725 60.5 1.875 62.65 1.875 65.25c0 2.625.85 4.775 2.525 6.5 1.675 1.7 3.775 2.55 6.25 2.55zm16.43-.3v-8.225h6.25L39.057 74h1.35l-5.75-8.3c2.775-.325 4.35-2.1 4.35-4.6 0-2.775-2-4.6-5.325-4.6h-7.75V74h1.15zm0-16.425h6.5c2.7 0 4.276 1.325 4.276 3.55 0 2.3-1.575 3.575-4.275 3.575h-6.5v-7.125zM60.19 74v-1.075H49.24v-7.8h8.725V64.05H49.24v-6.475h10.55V56.5h-11.7V74h12.1zm19.668 0v-1.075h-10.95v-7.8h8.725V64.05h-8.725v-6.475h10.55V56.5h-11.7V74h12.1zm8.718 0V58.475L100.525 74h1V56.5h-1.15V72L88.45 56.5h-1.025V74h1.15zm24.585-3.075c-1.45-1.525-2.175-3.4-2.175-5.675s.725-4.15 2.175-5.675c1.45-1.525 3.225-2.275 5.35-2.275 2.125 0 3.9.75 5.35 2.275 1.45 1.525 2.175 3.4 2.175 5.675s-.725 4.15-2.175 5.675c-1.45 1.525-3.225 2.275-5.35 2.275-2.125 0-3.9-.75-5.35-2.275zm5.35 3.375c2.475 0 4.525-.85 6.2-2.575 1.675-1.725 2.5-3.9 2.5-6.475 0-2.575-.825-4.725-2.5-6.45-1.675-1.725-3.725-2.6-6.2-2.6s-4.55.875-6.225 2.6c-1.65 1.725-2.475 3.875-2.475 6.45 0 2.6.825 4.75 2.475 6.475 1.675 1.725 3.75 2.575 6.225 2.575zm15.567-.3l6.425-8.575L146.927 74h1.425l-7.15-9.525 5.975-7.975h-1.375l-5.275 7.05-5.275-7.05h-1.4l5.95 8-7.075 9.5h1.35z" fill="#353535"/></svg>