<svg width="166" height="81" fill="none" xmlns="http://www.w3.org/2000/svg"><path fill-rule="evenodd" clip-rule="evenodd" d="M75.644 11.78l4.725 7.278c-.12.215-.232.438-.344.652L75.1 12.754c.18-.33.366-.652.545-.974zM72.3 17.97l5.412 6.288c-.12.238-.232.483-.344.721l-5.755-5.652c.224-.445.456-.905.687-1.358zm-2.822 5.905l6.166 5.015c-.135.323-.261.645-.388.974l-6.487-4.333c.232-.544.47-1.096.71-1.656zm-2.761 7.493l7.352 1.978a25.26 25.26 0 0 0-.269 1.013l-7.599-.813c.135-.69.307-1.427.516-2.178zM66 38.539l7.561-.836c.053.398.12.79.217 1.173l-7.3 2.217A17.851 17.851 0 0 1 66 38.539zm2.47 7.224l6.42-4.187c.291.49.627.95 1 1.38l-5.65 5.23a17.967 17.967 0 0 1-1.77-2.423zm9.361-1.112l-3.77 6.795c1.053.66 2.18 1.204 3.367 1.626l2.456-7.4a9.046 9.046 0 0 1-2.053-1.021zm3.911 1.457l-.672 7.785a16.716 16.716 0 0 0 3.777 0l-.544-7.808c-.44.07-.896.1-1.359.1a7.719 7.719 0 0 1-1.202-.077zm3.814-.298l2.598 7.354a16.76 16.76 0 0 0 3.785-1.802l-3.979-6.665a8.97 8.97 0 0 1-2.403 1.112zm3.479-1.91l5.606 5.33a17.603 17.603 0 0 0 2.88-3.659l-6.635-3.834a9.584 9.584 0 0 1-1.851 2.162zm2.5-3.383l7.017 3.022a17.622 17.622 0 0 0 1.366-5.407l-7.562-.89a9.634 9.634 0 0 1-.82 3.275zm.859-4.042l7.606.208v-.208C100 26.797 86.796 5.645 82.944 0l-.015 14.48a153.05 153.05 0 0 1 3.822 6.979c1.545 2.999 3.03 6.128 4.202 9.303.545 1.488 1.44 4.11 1.44 5.713z" fill="#CB9E5A"/><path d="M11.46 80.72h1.2V64.203h-1.2v7.674H1.226v-7.674H0v16.518h1.226v-7.675H11.46v7.674zm19.347.178a8.951 8.951 0 0 0 4.398-1.118c1.35-.762 2.416-1.787 3.198-3.075a8.107 8.107 0 0 0 1.172-4.243c0-1.525-.39-2.93-1.172-4.218a8.381 8.381 0 0 0-3.198-3.075 8.795 8.795 0 0 0-4.398-1.144 8.795 8.795 0 0 0-4.397 1.144 8.38 8.38 0 0 0-3.198 3.075 7.977 7.977 0 0 0-1.173 4.218c0 1.525.39 2.94 1.172 4.243.782 1.288 1.848 2.313 3.199 3.075a8.951 8.951 0 0 0 4.397 1.118zm0-15.704c1.368 0 2.63.33 3.785.991a7.302 7.302 0 0 1 2.745 2.643 6.819 6.819 0 0 1 1.012 3.634 6.95 6.95 0 0 1-1.012 3.66 7.568 7.568 0 0 1-2.745 2.642c-1.155.644-2.417.965-3.785.965-1.368 0-2.63-.321-3.784-.965a7.789 7.789 0 0 1-2.772-2.643 6.95 6.95 0 0 1-1.013-3.66 6.82 6.82 0 0 1 1.013-3.633 7.509 7.509 0 0 1 2.772-2.643 7.49 7.49 0 0 1 3.784-.99zM58.996 80.72l-7.195-8.334h2.132c1.314 0 2.38-.161 3.198-.483a4.286 4.286 0 0 0 1.572-1.22c.444-.559.666-1.169.666-1.83 0-.592-.186-1.151-.56-1.677-.372-.542-.905-.982-1.598-1.321-.693-.339-1.493-.508-2.399-.508h-4.85V80.72h-1.2V64.203h6.05a6.74 6.74 0 0 1 2.292.382c.71.237 1.333.584 1.866 1.041.515.44.906.94 1.172 1.5a3.76 3.76 0 0 1 .427 1.727c0 .932-.293 1.77-.88 2.516-.586.729-1.279 1.254-2.078 1.576a6.014 6.014 0 0 1-1.626.457c-.516.05-1.066.076-1.653.076l6.263 7.243h-1.599zm13.09 0V64.204h-1.199V80.72h1.2zm21.934 0v-1.143h-9.01l8.369-15.374H82.373v1.17h9.008L82.986 80.72h11.033zm16.797.178a8.953 8.953 0 0 0 4.398-1.118c1.35-.762 2.416-1.787 3.198-3.075a8.105 8.105 0 0 0 1.172-4.243c0-1.525-.39-2.93-1.172-4.218a8.384 8.384 0 0 0-3.198-3.075 8.798 8.798 0 0 0-4.398-1.144 8.794 8.794 0 0 0-4.397 1.144 8.384 8.384 0 0 0-3.198 3.075 7.975 7.975 0 0 0-1.173 4.218c0 1.525.391 2.94 1.173 4.243.782 1.288 1.848 2.313 3.198 3.075a8.95 8.95 0 0 0 4.397 1.118zm0-15.704c1.368 0 2.63.33 3.785.991a7.3 7.3 0 0 1 2.745 2.643 6.819 6.819 0 0 1 1.012 3.634 6.95 6.95 0 0 1-1.012 3.66 7.565 7.565 0 0 1-2.745 2.642c-1.155.644-2.417.965-3.785.965a7.641 7.641 0 0 1-3.784-.965 7.788 7.788 0 0 1-2.772-2.643 6.95 6.95 0 0 1-1.013-3.66 6.82 6.82 0 0 1 1.013-3.633 7.508 7.508 0 0 1 2.772-2.643 7.488 7.488 0 0 1 3.784-.99zM141.991 81V64.203h-1.199v13.468L128.799 64v16.72h1.199V67.303L141.991 81zM166 64.203v1.17h-6.849V80.72h-1.226V65.373h-6.876v-1.169H166z" fill="#1F1F1F"/></svg>