<svg width="130" height="45" fill="none" xmlns="http://www.w3.org/2000/svg"><path d="M0 24.15c0 1.577.287 3.038.862 4.402a11.11 11.11 0 0 0 2.355 3.518c.996 1 2.183 1.787 3.523 2.345 1.34.557 2.796.865 4.347.865 1.551 0 2.988-.289 4.347-.885a11.501 11.501 0 0 0 3.504-2.364c.996-1 1.781-2.172 2.356-3.517a11.03 11.03 0 0 0 .88-4.363c0-1.557-.287-2.999-.88-4.363a11.791 11.791 0 0 0-2.356-3.518c-.995-1-2.163-1.787-3.504-2.364a10.917 10.917 0 0 0-4.347-.884c-1.168 0-2.336.23-3.523.711-1.187.48-2.126 1.038-2.834 1.691v-9.63H0v18.357zm5.228-2.479c.344-.769.785-1.46 1.36-2.018a6.323 6.323 0 0 1 2.01-1.365 5.932 5.932 0 0 1 2.47-.519c.862 0 1.685.173 2.47.52.766.345 1.456.787 2.011 1.364a6.348 6.348 0 0 1 1.36 2.018c.344.77.517 1.596.517 2.48 0 .865-.173 1.691-.517 2.48-.345.768-.786 1.46-1.36 2.017a6.32 6.32 0 0 1-2.01 1.365 5.93 5.93 0 0 1-2.47.52 6.06 6.06 0 0 1-2.471-.52c-.766-.346-1.455-.788-2.01-1.365a6.347 6.347 0 0 1-1.36-2.018 5.99 5.99 0 0 1-.517-2.48c0-.864.172-1.69.517-2.479zm21.81 13.051h4.806V14.29h-4.806v20.432zm10.36-5.901a11.162 11.162 0 0 0 2.374 3.518c.996.999 2.183 1.787 3.523 2.364 1.34.576 2.796.884 4.347.884 1.551 0 2.987-.289 4.347-.884a11.502 11.502 0 0 0 3.504-2.364 11.12 11.12 0 0 0 2.356-3.518 11.03 11.03 0 0 0 .88-4.363 10.94 10.94 0 0 0-.88-4.344 11.792 11.792 0 0 0-2.356-3.518 11.073 11.073 0 0 0-3.504-2.364 10.917 10.917 0 0 0-4.347-.884c-1.55 0-2.987.288-4.347.884-1.34.596-2.527 1.384-3.523 2.364-.996 1-1.8 2.172-2.374 3.518-.594 1.345-.881 2.806-.881 4.363 0 1.557.306 2.999.88 4.344zm4.365-6.823a6.795 6.795 0 0 1 1.36-2.019 6.2 6.2 0 0 1 2.03-1.364 6.06 6.06 0 0 1 2.47-.52c.88 0 1.704.174 2.47.52.785.346 1.455.788 2.03 1.364a6.347 6.347 0 0 1 1.36 2.019 5.99 5.99 0 0 1 .517 2.48c0 .864-.173 1.69-.517 2.479a6.793 6.793 0 0 1-1.36 2.018 6.198 6.198 0 0 1-2.03 1.364 6.06 6.06 0 0 1-2.47.52 5.93 5.93 0 0 1-2.47-.52 6.5 6.5 0 0 1-2.03-1.364 6.347 6.347 0 0 1-1.36-2.018 5.99 5.99 0 0 1-.517-2.48c0-.884.173-1.71.517-2.48zM63 34.722h4.807V22.67c0-.576.115-1.134.345-1.672.23-.538.555-1.038.957-1.46.402-.424.881-.75 1.398-1a4.022 4.022 0 0 1 1.723-.365 4.34 4.34 0 0 1 1.743.346 4.515 4.515 0 0 1 2.374 2.383 4.45 4.45 0 0 1 .345 1.75v12.07h4.845V22.67c0-.596.115-1.172.344-1.71a4.55 4.55 0 0 1 .958-1.423 5.1 5.1 0 0 1 1.398-.98 4.022 4.022 0 0 1 1.723-.365 4 4 0 0 1 1.705.365 4.92 4.92 0 0 1 1.416.98c.403.404.728.885.958 1.423.23.538.345 1.114.345 1.71v12.052h4.806V22.67c0-1.287-.249-2.48-.728-3.613a9.868 9.868 0 0 0-1.972-2.96 8.93 8.93 0 0 0-2.93-2c-1.13-.499-2.336-.73-3.6-.73-1.378 0-2.68.289-3.887.846a9.678 9.678 0 0 0-3.121 2.268 9.413 9.413 0 0 0-2.95-2.268c-1.13-.557-2.374-.846-3.772-.846-.919 0-1.742.173-2.45.5-.71.327-1.38.865-1.992 1.595V14.31H62.98v20.413H63zm37.915 0h4.806V14.29h-4.806v20.432zm22.845 0h5.783l-6.396-10.226 6.396-10.225h-5.247l-3.753 6.016-3.753-6.016h-5.783l6.357 10.225-6.357 10.226h5.247l3.715-6.016 3.791 6.016z" fill="#010066"/><path d="M.804 43.544c-.402-.403-.613-.941-.613-1.576 0-.634.211-1.153.613-1.557.421-.422.92-.615 1.551-.615.536 0 .977.135 1.34.404v.461a2.132 2.132 0 0 0-1.301-.442c-.498 0-.9.173-1.245.5-.326.327-.498.769-.498 1.269 0 .5.153.941.479 1.268.325.327.727.5 1.206.5.498 0 .9-.154 1.187-.442V41.68h.44v1.807c-.363.404-.957.673-1.627.673-.613 0-1.13-.212-1.532-.615zm5.458-.096v-3.575h.44v3.48c0 .288.134.422.383.422a.54.54 0 0 0 .287-.077v.385c-.095.057-.249.077-.42.077-.403 0-.69-.212-.69-.712zm4.404-2.345c.46 0 .842.154 1.13.462.287.288.44.653.44 1.076 0 .423-.153.788-.44 1.076-.287.289-.67.442-1.13.442-.46 0-.843-.153-1.13-.442a1.482 1.482 0 0 1-.44-1.076c0-.423.153-.788.44-1.076.287-.308.67-.462 1.13-.462zm.804.711a1.095 1.095 0 0 0-.804-.326c-.326 0-.594.115-.804.326a1.104 1.104 0 0 0-.326.808c0 .327.115.596.326.807.21.211.478.327.804.327.325 0 .593-.116.804-.327.21-.211.326-.48.326-.807a1.263 1.263 0 0 0-.326-.808zm2.853-1.941h.44v1.769c.269-.366.652-.539 1.13-.539a1.4 1.4 0 0 1 1.054.442c.268.289.402.654.402 1.096 0 .423-.134.788-.402 1.077a1.398 1.398 0 0 1-1.053.442c-.48 0-.862-.173-1.13-.539v.462h-.44v-4.21zm.44 3.249c.173.384.575.653 1.016.653.325 0 .593-.115.804-.327.21-.211.325-.48.325-.807a1.1 1.1 0 0 0-.325-.807c-.21-.23-.479-.327-.804-.327-.44 0-.862.27-1.015.654v.96zm4.75.788a.87.87 0 0 1-.326-.712c0-.288.115-.538.345-.71.23-.174.517-.25.862-.25.383 0 .728.095 1.053.288v-.308c0-.48-.325-.73-.957-.73-.345 0-.651.096-.958.288v-.423a1.97 1.97 0 0 1 1.034-.269c.766 0 1.302.365 1.302 1.076v1.192c0 .23.115.365.268.365.058 0 .115-.019.173-.038v.346c-.058.038-.153.058-.288.058-.287 0-.497-.154-.555-.462-.287.346-.69.52-1.168.52a1.122 1.122 0 0 1-.785-.231zm1.915-.635v-.404a1.683 1.683 0 0 0-.938-.288c-.537 0-.862.23-.862.577 0 .384.345.596.785.596.421.019.804-.212 1.015-.48zm2.872.173v-3.575h.44v3.48c0 .288.134.422.383.422a.54.54 0 0 0 .287-.077v.385c-.095.057-.248.077-.42.077-.384 0-.69-.212-.69-.712zm6.013.635v-4.229h2.891v.404h-2.432v1.345h2.01v.404h-2.01v1.653H33.3v.403h-2.987v.02zm5.496 0h-.44V41.16h.44v.442a1.481 1.481 0 0 1 1.168-.519c.727 0 1.11.442 1.11 1.21v1.77h-.44V42.41c0-.769-.46-.903-.823-.903a.98.98 0 0 0-.575.192c-.192.115-.326.25-.421.423v1.96h-.02zm5.476.019l-1.34-2.94h.478l1.053 2.344 1.053-2.345h.46l-1.34 2.94h-.364zm3.773-4.152c.115-.115.306-.115.44 0 .115.116.115.308 0 .442-.115.116-.306.116-.44 0-.115-.115-.115-.307 0-.442zm0 4.133V41.16h.44v2.922h-.44zm2.814 0V41.16h.44v.557c.211-.384.67-.634 1.15-.634v.442c-.135 0-.25.02-.364.058-.383.096-.67.365-.785.653v1.846h-.44zm4.884-2.98c.46 0 .842.154 1.13.462.287.288.44.653.44 1.076 0 .423-.153.788-.44 1.076-.288.289-.67.442-1.13.442-.46 0-.843-.153-1.13-.442a1.482 1.482 0 0 1-.44-1.076c0-.423.153-.788.44-1.076.287-.308.67-.462 1.13-.462zm.804.711a1.095 1.095 0 0 0-.804-.326c-.326 0-.594.115-.804.326a1.104 1.104 0 0 0-.326.808c0 .327.115.596.326.807.21.211.478.327.804.327.325 0 .593-.116.804-.327.21-.211.326-.48.326-.807a1.263 1.263 0 0 0-.326-.808zm3.293 2.269h-.44V41.16h.44v.442c.307-.346.69-.519 1.169-.519.727 0 1.11.442 1.11 1.21v1.77h-.44V42.41c0-.769-.46-.903-.824-.903a.98.98 0 0 0-.574.192c-.192.115-.326.25-.421.423v1.96h-.02zm4.519 0V41.16h.44v.442c.25-.346.594-.5 1.054-.5.478 0 .804.212.938.577.21-.346.613-.577 1.11-.577.652 0 1.035.423 1.035 1.173v1.806h-.44v-1.71c0-.577-.25-.865-.728-.865-.364 0-.747.288-.92.634 0 .154.02.27.02.327v1.614h-.44v-1.71c0-.577-.25-.865-.729-.865a.924.924 0 0 0-.517.173c-.172.115-.306.25-.383.423v1.98h-.44zm7.066-.347a1.44 1.44 0 0 1-.46-1.095c0-.442.135-.807.403-1.096.268-.288.632-.442 1.072-.442.977 0 1.36.865 1.36 1.519v.115h-2.394c.057.634.536 1.038 1.245 1.038.344 0 .65-.096.938-.27v.385c-.249.193-.575.27-1.015.27-.46 0-.843-.135-1.149-.423zm1.934-1.345a1.084 1.084 0 0 0-.249-.615c-.153-.192-.383-.27-.69-.27a.984.984 0 0 0-.708.27.972.972 0 0 0-.287.615h1.934zm2.988 1.692h-.441V41.16h.44v.442c.307-.346.69-.519 1.169-.519.727 0 1.11.442 1.11 1.21v1.77h-.44V42.41c0-.769-.46-.903-.824-.903a.98.98 0 0 0-.574.192c-.192.115-.326.25-.421.423v1.96h-.02zm4.864-.827v-1.71h-.69v-.385h.69v-.903h.44v.903h1.015v.385h-1.015v1.576c0 .23.038.384.115.48.076.096.21.135.383.135a.98.98 0 0 0 .478-.116v.404c-.133.096-.325.135-.593.135-.575 0-.823-.346-.823-.904zm3.6.654a.87.87 0 0 1-.326-.712c0-.288.115-.538.345-.71.23-.174.517-.25.861-.25.383 0 .728.095 1.054.288v-.308c0-.48-.326-.73-.958-.73-.344 0-.65.096-.957.288v-.423a1.97 1.97 0 0 1 1.034-.269c.766 0 1.302.365 1.302 1.076v1.192c0 .23.115.365.268.365a.56.56 0 0 0 .172-.038v.346c-.057.038-.153.058-.287.058-.287 0-.498-.154-.555-.462-.287.346-.69.52-1.168.52a1.122 1.122 0 0 1-.785-.231zm1.915-.635v-.404a1.684 1.684 0 0 0-.939-.288c-.536 0-.861.23-.861.577 0 .384.344.596.785.596.42.019.804-.212 1.014-.48zm2.891.173v-3.575h.44v3.48c0 .288.134.422.383.422a.54.54 0 0 0 .287-.077v.385c-.095.057-.248.077-.42.077-.403 0-.69-.212-.69-.712zm5.687.269v-.5c.154.135.383.27.652.366.287.096.574.154.88.154.651 0 1.13-.308 1.13-.788.038-.27-.172-.462-.345-.577a1.021 1.021 0 0 0-.249-.115l-.268-.096a3.955 3.955 0 0 0-.325-.097c-.192-.057-.345-.096-.44-.134-.115-.039-.23-.077-.364-.154a.783.783 0 0 1-.307-.211.956.956 0 0 1-.268-.692c0-.327.134-.577.383-.788.25-.212.613-.308 1.072-.308.498 0 .939.115 1.303.346v.461c-.422-.25-.843-.384-1.303-.384-.67 0-1.014.307-1.014.692-.039.211.134.365.268.48.038.039.095.058.191.096l.21.077.25.077.249.077c.172.058.306.096.42.135.097.038.23.096.365.153.134.077.249.154.325.231.153.154.287.423.287.73 0 .385-.153.673-.459.885a1.9 1.9 0 0 1-1.11.327c-.594 0-1.188-.193-1.533-.443zm6.664-2.614c.46 0 .843.154 1.13.462.287.288.441.653.441 1.076 0 .423-.154.788-.441 1.076-.287.289-.67.442-1.13.442-.46 0-.842-.153-1.13-.442a1.482 1.482 0 0 1-.44-1.076c0-.423.153-.788.44-1.076.288-.308.67-.462 1.13-.462zm.805.711a1.095 1.095 0 0 0-.805-.326c-.325 0-.593.115-.804.326-.21.212-.325.481-.325.808 0 .327.114.596.325.807.21.211.479.327.804.327.326 0 .594-.116.805-.327.21-.211.325-.48.325-.807a1.262 1.262 0 0 0-.325-.808zm2.853 1.634v-3.575h.44v3.48c0 .288.134.422.383.422.096 0 .192-.02.287-.077v.385c-.095.057-.249.077-.421.077-.402 0-.689-.212-.689-.712zm5.266-2.268h.44v2.922h-.44v-.442c-.307.346-.69.519-1.168.519-.728 0-1.111-.442-1.111-1.211v-1.769h.44v1.673c0 .769.46.903.824.903.191 0 .383-.058.574-.173.192-.134.345-.27.441-.423V41.18zm3.082 2.076v-1.71h-.689v-.385h.689v-.903h.441v.903h1.015v.385h-1.015v1.576c0 .23.038.384.115.48.076.096.21.135.383.135a.978.978 0 0 0 .478-.116v.404c-.134.096-.325.135-.593.135-.556 0-.824-.346-.824-.904zm3.62-3.306c.115-.115.306-.115.44 0 .115.116.115.308 0 .442-.115.116-.306.116-.44 0-.115-.115-.115-.307 0-.442zm0 4.133V41.16h.44v2.922h-.44zm4.174-2.98c.46 0 .843.154 1.13.462.287.288.44.653.44 1.076 0 .423-.153.788-.44 1.076-.287.289-.67.442-1.13.442-.459 0-.842-.153-1.13-.442a1.483 1.483 0 0 1-.44-1.076c0-.423.153-.788.44-1.076a1.515 1.515 0 0 1 1.13-.462zm.804.711a1.093 1.093 0 0 0-.804-.326c-.325 0-.593.115-.804.326a1.104 1.104 0 0 0-.326.808c0 .327.115.596.326.807.211.211.479.327.804.327.326 0 .594-.116.804-.327a1.1 1.1 0 0 0 .326-.807 1.17 1.17 0 0 0-.326-.808zm3.294 2.269h-.441V41.16h.441v.442a1.481 1.481 0 0 1 1.168-.519c.728 0 1.111.442 1.111 1.21v1.77h-.441V42.41c0-.769-.459-.903-.823-.903a.981.981 0 0 0-.575.192c-.191.115-.325.25-.421.423v1.96h-.019zm4.309-.231v-.442c.344.23.746.365 1.187.365.498 0 .804-.173.804-.461 0-.154-.077-.231-.211-.308a1.423 1.423 0 0 0-.306-.115.767.767 0 0 0-.192-.058.77.77 0 0 1-.191-.058c-.689-.173-1.015-.384-1.015-.884s.421-.807 1.168-.807c.441 0 .785.077 1.053.25v.423a2 2 0 0 0-1.034-.289c-.498 0-.746.173-.746.423 0 .135.076.25.229.327.096.038.115.058.23.077l.134.038c.058.02.249.058.287.058.671.154 1.054.365 1.054.884 0 .25-.115.462-.345.615-.23.154-.517.23-.881.23-.498.04-.977-.095-1.225-.268z" fill="#9E9D9E"/><path d="M26.617 10.883C26.617 4.873 31.49 0 37.5 0c0 6.01-4.873 10.883-10.883 10.883zm74.001 0C100.618 4.873 105.49 0 111.501 0c0 6.01-4.873 10.883-10.883 10.883z" fill="#1FA84A"/></svg>