<svg width="318" height="54" viewBox="0 0 318 54" fill="none" xmlns="http://www.w3.org/2000/svg">
<path d="M16.224 27.56L20.368 19.608C22.104 16.248 23.28 13 23.28 13H23.392C23.392 13 23.672 16.248 24.176 19.608L25.352 27.56H16.224ZM0.264 41H9.392L12.64 34.728H26.416L27.312 41H36.72L29.44 3.704H20.872L0.264 41ZM45.2744 30.304H54.1224C52.7224 33.272 50.1464 34.896 47.1224 34.896C44.8824 34.896 43.3144 34.28 42.4744 33.72L39.2264 39.88C40.5144 40.72 43.0344 41.672 46.8424 41.672C56.3624 41.672 63.1944 34.896 63.1944 24.032C63.1944 17.424 58.9944 12.832 51.7704 12.832C47.4024 12.832 44.2104 14.344 42.5304 15.856L45.4984 21.4C46.5624 20.504 48.2984 19.608 50.4264 19.608C53.0584 19.608 55.0184 21.288 55.1864 24.648H46.2824L45.2744 30.304ZM62.6077 53.208H70.8958L73.0798 41.28C73.6398 41.448 74.8158 41.672 76.7198 41.672C86.0718 41.672 93.2398 34.672 93.2398 22.296C93.2398 16.416 90.2718 12.832 86.0158 12.832C81.3678 12.832 79.0158 15.744 76.8318 19.384H76.7198C77.1678 17.536 77.5598 15.744 77.8958 13.56H69.8878L62.6077 53.208ZM76.6638 35.68C75.3758 35.68 74.6478 35.512 74.1438 35.4L74.3678 34.28C76.7198 23.416 79.8558 20.056 82.3198 20.056C83.8878 20.056 84.5598 21.456 84.5598 23.752C84.5598 31.648 80.6398 35.68 76.6638 35.68ZM107.075 41.672C116.483 41.672 122.867 34.504 122.867 24.368C122.867 17.648 118.667 12.832 111.667 12.832C102.595 12.832 95.7073 20.448 95.7073 30.248C95.7073 36.744 99.9073 41.672 107.075 41.672ZM107.859 35.344C105.395 35.344 104.219 33.216 104.219 30.024C104.219 25.432 106.739 19.16 110.939 19.16C113.403 19.16 114.523 21.064 114.523 24.312C114.523 28.904 112.395 35.344 107.859 35.344ZM131.753 41.504C138.753 41.504 144.633 38.872 144.633 32.376C144.633 29.184 142.169 27.336 139.481 27V26.944C142.785 26.44 145.697 23.976 145.697 19.72C145.697 15.24 141.273 13.056 135.505 13.056C131.809 13.056 128.561 14.232 126.265 15.52L128.337 20.784C129.905 19.888 131.977 19.272 134.441 19.272C136.289 19.272 137.577 20.224 137.577 21.512C137.577 23.64 135.561 24.592 132.985 24.592H130.857L129.905 29.688H132.481C134.777 29.688 136.569 30.528 136.569 32.152C136.569 34.336 134.889 35.176 132.369 35.176C129.457 35.176 127.385 34.504 125.985 33.608L122.625 38.984C124.473 40.328 127.665 41.504 131.753 41.504ZM159.521 41.672C168.929 41.672 175.313 34.504 175.313 24.368C175.313 17.648 171.113 12.832 164.113 12.832C155.041 12.832 148.153 20.448 148.153 30.248C148.153 36.744 152.353 41.672 159.521 41.672ZM160.305 35.344C157.841 35.344 156.665 33.216 156.665 30.024C156.665 25.432 159.185 19.16 163.385 19.16C165.849 19.16 166.969 21.064 166.969 24.312C166.969 28.904 164.841 35.344 160.305 35.344ZM176.17 41.392C182.499 41.392 187.259 38.256 189.499 28.848L191.571 20.224H197.787L194.091 41H202.491L207.418 13.56H185.579L182.051 27C180.595 32.6 178.859 34.84 176.282 35.176L176.17 41.392ZM220.488 41.728C228.944 41.728 236.112 37.584 236.112 29.632C236.112 24.2 232.976 20.84 228.328 20.84C224.408 20.84 221.608 23.304 219.872 25.992H219.76C220.264 24.144 220.768 21.792 221.216 19.384L222.28 13.56H213.992L209.232 39.992C210.576 40.608 214.104 41.728 220.488 41.728ZM221.384 35.624C220.04 35.624 219.032 35.456 218.36 35.232L218.64 33.832C219.592 29.408 222.448 27.952 224.464 27.952C226.2 27.952 227.208 29.128 227.208 30.92C227.208 33.664 224.856 35.624 221.384 35.624ZM250.909 41.672C262.333 41.672 267.149 31.424 267.149 19.272C267.149 7.064 258.973 0.0639997 247.325 0.0639997L245.253 6.448C251.973 6.448 256.621 9.416 258.021 14.568C257.069 14.064 255.669 13.616 253.989 13.616C246.709 13.616 239.317 19.776 239.317 30.416C239.317 37.472 244.021 41.672 250.909 41.672ZM251.525 35.4C249.117 35.4 248.053 33.328 248.053 30.136C248.053 24.536 250.405 19.832 254.493 19.832C256.397 19.832 257.629 20.448 258.469 21.288C258.077 28.176 255.949 35.4 251.525 35.4ZM280.481 41.672C285.969 41.672 289.441 39.656 291.793 37.808L288.825 32.32C286.977 33.72 284.737 35.064 281.881 35.064C279.137 35.064 278.241 33.496 277.961 30.976C287.089 30.08 294.313 26.888 294.313 20.224C294.313 15.632 291.121 12.832 285.577 12.832C276.561 12.832 269.449 20.168 269.449 30.304C269.449 37.192 273.313 41.672 280.481 41.672ZM284.177 19.16C285.689 19.16 286.417 19.888 286.417 21.232C286.417 23.696 283.337 25.376 278.297 25.824C279.081 22.408 281.041 19.16 284.177 19.16ZM303.198 41.504C310.198 41.504 316.078 38.872 316.078 32.376C316.078 29.184 313.614 27.336 310.926 27V26.944C314.23 26.44 317.142 23.976 317.142 19.72C317.142 15.24 312.718 13.056 306.95 13.056C303.254 13.056 300.006 14.232 297.71 15.52L299.782 20.784C301.35 19.888 303.422 19.272 305.886 19.272C307.734 19.272 309.022 20.224 309.022 21.512C309.022 23.64 307.006 24.592 304.43 24.592H302.302L301.35 29.688H303.926C306.222 29.688 308.014 30.528 308.014 32.152C308.014 34.336 306.334 35.176 303.814 35.176C300.902 35.176 298.83 34.504 297.43 33.608L294.07 38.984C295.918 40.328 299.11 41.504 303.198 41.504Z" fill="#1B74DD"/>
<path d="M16.224 27.56L20.368 19.608C22.104 16.248 23.28 13 23.28 13H23.392C23.392 13 23.672 16.248 24.176 19.608L25.352 27.56H16.224ZM0.264 41H9.392L12.64 34.728H26.416L27.312 41H36.72L29.44 3.704H20.872L0.264 41ZM45.2744 30.304H54.1224C52.7224 33.272 50.1464 34.896 47.1224 34.896C44.8824 34.896 43.3144 34.28 42.4744 33.72L39.2264 39.88C40.5144 40.72 43.0344 41.672 46.8424 41.672C56.3624 41.672 63.1944 34.896 63.1944 24.032C63.1944 17.424 58.9944 12.832 51.7704 12.832C47.4024 12.832 44.2104 14.344 42.5304 15.856L45.4984 21.4C46.5624 20.504 48.2984 19.608 50.4264 19.608C53.0584 19.608 55.0184 21.288 55.1864 24.648H46.2824L45.2744 30.304ZM62.6077 53.208H70.8958L73.0798 41.28C73.6398 41.448 74.8158 41.672 76.7198 41.672C86.0718 41.672 93.2398 34.672 93.2398 22.296C93.2398 16.416 90.2718 12.832 86.0158 12.832C81.3678 12.832 79.0158 15.744 76.8318 19.384H76.7198C77.1678 17.536 77.5598 15.744 77.8958 13.56H69.8878L62.6077 53.208ZM76.6638 35.68C75.3758 35.68 74.6478 35.512 74.1438 35.4L74.3678 34.28C76.7198 23.416 79.8558 20.056 82.3198 20.056C83.8878 20.056 84.5598 21.456 84.5598 23.752C84.5598 31.648 80.6398 35.68 76.6638 35.68ZM107.075 41.672C116.483 41.672 122.867 34.504 122.867 24.368C122.867 17.648 118.667 12.832 111.667 12.832C102.595 12.832 95.7073 20.448 95.7073 30.248C95.7073 36.744 99.9073 41.672 107.075 41.672ZM107.859 35.344C105.395 35.344 104.219 33.216 104.219 30.024C104.219 25.432 106.739 19.16 110.939 19.16C113.403 19.16 114.523 21.064 114.523 24.312C114.523 28.904 112.395 35.344 107.859 35.344ZM131.753 41.504C138.753 41.504 144.633 38.872 144.633 32.376C144.633 29.184 142.169 27.336 139.481 27V26.944C142.785 26.44 145.697 23.976 145.697 19.72C145.697 15.24 141.273 13.056 135.505 13.056C131.809 13.056 128.561 14.232 126.265 15.52L128.337 20.784C129.905 19.888 131.977 19.272 134.441 19.272C136.289 19.272 137.577 20.224 137.577 21.512C137.577 23.64 135.561 24.592 132.985 24.592H130.857L129.905 29.688H132.481C134.777 29.688 136.569 30.528 136.569 32.152C136.569 34.336 134.889 35.176 132.369 35.176C129.457 35.176 127.385 34.504 125.985 33.608L122.625 38.984C124.473 40.328 127.665 41.504 131.753 41.504ZM159.521 41.672C168.929 41.672 175.313 34.504 175.313 24.368C175.313 17.648 171.113 12.832 164.113 12.832C155.041 12.832 148.153 20.448 148.153 30.248C148.153 36.744 152.353 41.672 159.521 41.672ZM160.305 35.344C157.841 35.344 156.665 33.216 156.665 30.024C156.665 25.432 159.185 19.16 163.385 19.16C165.849 19.16 166.969 21.064 166.969 24.312C166.969 28.904 164.841 35.344 160.305 35.344ZM176.17 41.392C182.499 41.392 187.259 38.256 189.499 28.848L191.571 20.224H197.787L194.091 41H202.491L207.418 13.56H185.579L182.051 27C180.595 32.6 178.859 34.84 176.282 35.176L176.17 41.392ZM220.488 41.728C228.944 41.728 236.112 37.584 236.112 29.632C236.112 24.2 232.976 20.84 228.328 20.84C224.408 20.84 221.608 23.304 219.872 25.992H219.76C220.264 24.144 220.768 21.792 221.216 19.384L222.28 13.56H213.992L209.232 39.992C210.576 40.608 214.104 41.728 220.488 41.728ZM221.384 35.624C220.04 35.624 219.032 35.456 218.36 35.232L218.64 33.832C219.592 29.408 222.448 27.952 224.464 27.952C226.2 27.952 227.208 29.128 227.208 30.92C227.208 33.664 224.856 35.624 221.384 35.624ZM250.909 41.672C262.333 41.672 267.149 31.424 267.149 19.272C267.149 7.064 258.973 0.0639997 247.325 0.0639997L245.253 6.448C251.973 6.448 256.621 9.416 258.021 14.568C257.069 14.064 255.669 13.616 253.989 13.616C246.709 13.616 239.317 19.776 239.317 30.416C239.317 37.472 244.021 41.672 250.909 41.672ZM251.525 35.4C249.117 35.4 248.053 33.328 248.053 30.136C248.053 24.536 250.405 19.832 254.493 19.832C256.397 19.832 257.629 20.448 258.469 21.288C258.077 28.176 255.949 35.4 251.525 35.4ZM280.481 41.672C285.969 41.672 289.441 39.656 291.793 37.808L288.825 32.32C286.977 33.72 284.737 35.064 281.881 35.064C279.137 35.064 278.241 33.496 277.961 30.976C287.089 30.08 294.313 26.888 294.313 20.224C294.313 15.632 291.121 12.832 285.577 12.832C276.561 12.832 269.449 20.168 269.449 30.304C269.449 37.192 273.313 41.672 280.481 41.672ZM284.177 19.16C285.689 19.16 286.417 19.888 286.417 21.232C286.417 23.696 283.337 25.376 278.297 25.824C279.081 22.408 281.041 19.16 284.177 19.16ZM303.198 41.504C310.198 41.504 316.078 38.872 316.078 32.376C316.078 29.184 313.614 27.336 310.926 27V26.944C314.23 26.44 317.142 23.976 317.142 19.72C317.142 15.24 312.718 13.056 306.95 13.056C303.254 13.056 300.006 14.232 297.71 15.52L299.782 20.784C301.35 19.888 303.422 19.272 305.886 19.272C307.734 19.272 309.022 20.224 309.022 21.512C309.022 23.64 307.006 24.592 304.43 24.592H302.302L301.35 29.688H303.926C306.222 29.688 308.014 30.528 308.014 32.152C308.014 34.336 306.334 35.176 303.814 35.176C300.902 35.176 298.83 34.504 297.43 33.608L294.07 38.984C295.918 40.328 299.11 41.504 303.198 41.504Z" fill="url(#paint0_linear)"/>
<defs>
<linearGradient id="paint0_linear" x1="2" y1="41" x2="364" y2="41" gradientUnits="userSpaceOnUse">
<stop stop-color="#5BC500" stop-opacity="0.65"/>
<stop offset="1" stop-color="#5BC500" stop-opacity="0"/>
</linearGradient>
</defs>
</svg>
