<svg width="236" height="60" viewBox="0 0 236 60" fill="none" xmlns="http://www.w3.org/2000/svg">
<path d="M38.168 48C36.44 34.176 29.848 15.296 25.88 8.192C24.664 6.08 22.296 4.16 18.776 4.16H15.192C8.472 11.648 0.28 37.44 0.28 43.776C0.28 46.464 1.432 48 4.312 48H7.704C8.344 44.288 9.112 40.512 10.008 36.8H27.48C27.928 38.656 28.312 40.896 28.696 43.776C29.016 45.888 30.936 48 34.584 48H38.168ZM25.496 29.824H11.928C13.4 23.744 16.152 16.768 18.712 12.224C21.016 16.32 24.024 23.68 25.496 29.824ZM73.1805 33.664V27.776C73.1805 18.944 67.6765 12.672 59.1005 12.672C47.9645 12.672 41.5645 20.544 41.5645 30.272C41.5645 38.4 47.5165 44.224 55.9005 44.224C60.8285 44.224 64.0925 41.6 64.7965 39.104V39.936L64.9245 43.456C65.1165 48.448 62.1085 51.392 55.9005 51.392C50.9725 51.392 47.0045 49.856 44.9565 47.68H44.5725V51.584C44.5725 55.68 49.4365 59.136 56.5405 59.136C67.6765 59.136 73.4365 51.392 73.4365 42.752C73.4365 41.6 73.3725 39.744 73.3085 38.336C73.2445 36.8 73.1805 34.816 73.1805 33.664ZM58.1405 20.288C61.9165 20.288 64.6045 22.912 64.6045 28.288C64.6045 33.792 61.5325 36.992 57.2445 36.992C53.1485 36.992 50.3965 33.664 50.3965 29.184C50.3965 24 53.7245 20.288 58.1405 20.288ZM101.689 21.824V18.752C101.689 16.128 99.833 13.12 94.521 13.12C85.433 13.12 81.785 19.712 81.785 26.624V42.496C81.785 46.08 84.217 48 88.057 48H90.425V28.16C90.425 22.912 92.537 20.8 96.377 20.8C98.617 20.8 100.089 21.312 101.369 21.824H101.689ZM104.873 31.36C104.873 40.512 110.825 48.768 121.193 48.768C132.329 48.768 138.281 40.512 138.281 30.144C138.281 20.992 132.329 12.672 121.961 12.672C110.825 12.672 104.873 20.992 104.873 31.36ZM129.385 31.36C129.385 36.992 126.953 41.088 121.961 41.088C116.265 41.088 113.769 36.992 113.769 30.144C113.769 24.448 116.265 20.352 121.193 20.352C126.825 20.352 129.385 24.448 129.385 31.36ZM175.373 48V27.904C175.373 18.112 168.653 12.672 160.525 12.672C149.773 12.672 144.973 20.16 144.973 27.456V42.368C144.973 45.568 147.341 48 150.989 48H153.549V28.032C153.549 23.104 156.109 20.288 159.821 20.288C164.237 20.288 166.797 22.848 166.797 28.672V42.368C166.797 45.568 169.229 48 173.069 48H175.373ZM194.091 5.952C194.091 3.2 191.787 0.959999 189.035 0.959999C186.283 0.959999 184.043 3.2 184.043 5.952C184.043 8.704 186.283 11.008 189.035 11.008C191.787 11.008 194.091 8.704 194.091 5.952ZM200.235 43.136V41.28H198.635C194.859 41.28 193.387 40.192 193.387 36.736V20.608C193.387 16.256 191.083 14.208 187.243 14.208H184.811V37.568C184.811 44.544 188.459 48.32 195.115 48.32C198.763 48.32 200.235 46.848 200.235 43.136ZM235.563 44.224C232.555 43.584 231.019 42.176 227.307 36.736L223.531 31.232C225.579 28.928 227.371 26.816 228.779 24.96C231.531 21.376 232.811 18.688 232.811 17.152C232.811 15.232 231.787 13.504 229.291 13.504H226.027C225.451 16.96 224.555 18.752 219.051 24.96L215.531 19.968C211.691 14.528 209.579 13.44 207.915 13.44H202.795C202.923 16.064 205.099 19.136 208.939 24.704L212.587 29.952L209.771 32.96C205.483 37.568 203.115 40.96 203.115 45.056C203.115 46.784 204.651 48.128 206.635 48.128H210.539C210.859 46.016 211.307 44.288 212.459 42.304C213.419 40.64 214.827 38.72 217.003 36.224L220.779 41.92C223.787 46.464 226.283 48.512 229.931 48.512C233.707 48.512 235.563 46.656 235.563 44.224Z" fill="#CB9E5A"/>
</svg>
