<svg width="144" height="72" viewBox="0 0 144 72" fill="none" xmlns="http://www.w3.org/2000/svg">
<path d="M76.0308 0.20459C82.4859 2.16301 87.1886 8.15519 87.1886 15.2581C87.1886 22.361 82.4859 28.3532 76.0308 30.3116L95.6007 23.0918C99.0766 22.0395 101.443 18.8534 101.443 15.2289C101.443 11.6043 99.0766 8.41826 95.6007 7.36597L76.0308 0.20459Z" fill="#B5B3B4"/>
<path d="M65.428 17.9766C66.9468 21.1334 70.7148 22.4488 73.8694 20.9581C77.0239 19.4381 78.3383 15.6674 76.8487 12.5106L80.8503 10.6106C83.4207 15.9597 81.1424 22.3903 75.7972 24.9626C70.4519 27.5348 64.026 25.2549 61.4556 19.9058L65.428 17.9766Z" fill="#B5B3B4"/>
<path d="M71.0946 0C62.6532 0 55.8184 6.83985 55.8184 15.2874C55.8184 23.7349 62.6532 30.5747 71.0946 30.5747C79.536 30.5747 86.3709 23.7349 86.3709 15.2874C86.3709 6.83985 79.536 0 71.0946 0ZM71.0946 26.9794C64.6395 26.9794 59.4111 21.7472 59.4111 15.2874C59.4111 8.8275 64.6395 3.59531 71.0946 3.59531C77.5498 3.59531 82.7782 8.8275 82.7782 15.2874C82.7782 21.7472 77.5498 26.9794 71.0946 26.9794Z" fill="#D3D3D3"/>
<path d="M61.5139 22.887C48.9249 25.3716 42.791 12.4811 42.791 12.4811C56.6068 29.873 69.8677 9.03195 83.7127 8.73965C97.032 8.47658 103.546 21.104 103.546 21.104C85.144 0.876743 74.1322 20.4025 61.5139 22.887Z" fill="#38AEE4"/>
<path d="M0 62.1734L8.61663 41.04L17.2333 62.1734H14.0787L13.4361 60.5073H3.79716L3.12535 62.1734H0ZM4.84868 57.7889H12.3846L8.61663 48.1137L4.84868 57.7889Z" fill="#38AEE4"/>
<path d="M32.3051 41.0684C33.7655 41.0684 35.1383 41.3607 36.4235 41.916C37.7087 42.4714 38.8187 43.2314 39.7826 44.1668C40.7465 45.1314 41.4767 46.2421 42.0317 47.5282C42.5866 48.8143 42.8787 50.1882 42.8787 51.6497C42.8787 53.1404 42.5866 54.5435 42.0024 55.8296C41.4183 57.1157 40.6296 58.2557 39.6365 59.2203H42.8495V62.2018H32.3051H32.2759C30.8154 62.2018 29.4426 61.9094 28.1574 61.3541C26.8722 60.7987 25.7623 60.0387 24.8276 59.1034C23.8637 58.1388 23.1335 57.028 22.5785 55.7711C22.0235 54.485 21.7314 53.1112 21.7314 51.6497C21.7314 50.1882 22.0235 48.8143 22.5785 47.5282C23.1335 46.2421 23.8929 45.1314 24.8276 44.1668C25.7915 43.2022 26.9014 42.4714 28.1574 41.916C29.501 41.3607 30.8446 41.0684 32.3051 41.0684ZM32.3927 59.2495C33.415 59.2495 34.4081 59.0449 35.3136 58.6357C36.2191 58.2265 37.0369 57.6711 37.7087 56.9988C38.3805 56.2973 38.9355 55.508 39.3152 54.6019C39.6949 53.6958 39.8994 52.702 39.8994 51.6789C39.8994 50.6266 39.6949 49.6328 39.3152 48.6974C38.9355 47.7621 38.3805 46.9728 37.6795 46.2713C36.9785 45.5698 36.1899 45.0437 35.2552 44.6344C34.3205 44.2544 33.3566 44.0498 32.2759 44.0498C31.2243 44.0498 30.2605 44.2544 29.3258 44.6344C28.3911 45.0144 27.6024 45.5698 26.9014 46.2713C26.2004 46.9728 25.6747 47.7621 25.2657 48.6974C24.886 49.6328 24.6815 50.5974 24.6815 51.6789C24.6815 52.702 24.886 53.6958 25.2657 54.6311C25.6454 55.5665 26.2004 56.3557 26.9014 57.0572C27.6024 57.7588 28.3911 58.2849 29.3258 58.6941C30.2605 59.0741 31.2243 59.2787 32.2759 59.2787H32.3927V59.2495Z" fill="#38AEE4"/>
<path d="M58.6513 41.0684H61.689V55.1865C61.689 56.1803 61.5138 57.0865 61.1341 57.9341C60.7543 58.7818 60.2578 59.5126 59.586 60.1264C58.9434 60.7402 58.1839 61.2372 57.3077 61.6171C56.4314 61.9971 55.5259 62.1725 54.5036 62.1725C53.5105 62.1725 52.605 61.9971 51.758 61.6171C50.9109 61.2664 50.1515 60.7695 49.5089 60.1264C48.8663 59.5126 48.3697 58.7526 47.99 57.9341C47.6103 57.0865 47.4351 56.1803 47.4351 55.1865V41.0684H50.4728V55.1865C50.4728 55.7419 50.5896 56.268 50.7941 56.7649C50.9985 57.2619 51.2906 57.7003 51.6704 58.0511C52.0209 58.4311 52.459 58.7234 52.9555 58.928C53.4521 59.1326 53.9779 59.2495 54.5328 59.2495C55.117 59.2495 55.6428 59.1326 56.1393 58.928C56.6359 58.7234 57.074 58.4311 57.4537 58.0511C57.8334 57.6711 58.1255 57.2326 58.33 56.7649C58.5345 56.268 58.6513 55.7419 58.6513 55.1865V41.0684Z" fill="#38AEE4"/>
<path d="M66.2163 62.1727L74.833 41.0393L83.4496 62.1727H80.3242L79.6816 60.5066H70.0427L69.3709 62.1727H66.2163ZM71.065 57.7882H78.6009L74.833 48.113L71.065 57.7882Z" fill="#38AEE4"/>
<path d="M99.5732 51.679C99.7193 51.7667 99.8361 51.8836 99.9529 52.0005C100.07 52.1174 100.187 52.2343 100.274 52.3513C100.712 52.9066 101.063 53.5205 101.326 54.1928C101.589 54.865 101.705 55.5666 101.705 56.2973C101.705 56.4727 101.705 56.6189 101.676 56.7065C101.618 57.7881 101.297 58.7527 100.683 59.6296C100.157 60.448 99.4564 61.0618 98.6093 61.5588C97.7623 62.0264 96.8276 62.2603 95.7761 62.2603H93.8775C92.8552 62.2603 91.8913 62.0264 91.0442 61.5588C90.1972 61.0911 89.4961 60.448 88.9704 59.6296C88.8243 59.3957 88.6491 59.1327 88.503 58.8111L91.1903 56.7358C91.2487 57.1158 91.3655 57.4373 91.5408 57.7588C91.716 58.0804 91.9497 58.3434 92.2126 58.6065C92.4755 58.8404 92.7968 59.045 93.1473 59.1619C93.4978 59.308 93.8483 59.3665 94.228 59.3665H95.3671C96.1558 59.3665 96.8276 59.1034 97.4118 58.6065C97.9959 58.1096 98.3465 57.4665 98.4341 56.7065C98.4341 56.6189 98.4341 56.5604 98.4341 56.4727C98.4341 56.385 98.4341 56.3266 98.4341 56.2389C98.4341 55.8296 98.3465 55.4204 98.2004 55.0697C98.0544 54.7189 97.8207 54.3974 97.5578 54.1051C97.2949 53.8128 96.9736 53.6082 96.5939 53.4328C96.2142 53.2574 95.8345 53.1697 95.4548 53.1405H93.8191H93.7022C93.0012 53.1112 92.3294 52.9943 91.6868 52.7312C91.0734 52.4682 90.4892 52.1174 89.9927 51.679C89.7298 51.4744 89.4961 51.2697 89.2917 50.9774C88.8535 50.4221 88.503 49.8082 88.2694 49.1359C88.0065 48.4637 87.8896 47.7621 87.8896 47.0606V46.6514C87.9773 45.5699 88.3278 44.576 88.912 43.7284C89.4377 42.9099 90.1387 42.2961 90.9858 41.7992C91.8329 41.3315 92.7675 41.0977 93.8191 41.0977H95.6884C96.7108 41.0977 97.6746 41.3315 98.5217 41.7992C99.3688 42.2669 100.07 42.9099 100.596 43.7284C100.654 43.8161 100.712 43.933 100.771 44.0499C100.829 44.1668 100.888 44.2837 100.946 44.3714L98.3172 46.4175C98.142 45.716 97.7915 45.1606 97.2365 44.693C96.6815 44.2253 96.0389 43.9914 95.3087 43.9914H94.1696C93.7899 43.9914 93.4101 44.0499 93.0596 44.196C92.7091 44.3422 92.3878 44.5176 92.1249 44.7514C91.8621 44.9853 91.6284 45.2776 91.4531 45.5991C91.2779 45.9206 91.161 46.2714 91.1026 46.6514C91.0734 46.7391 91.0734 46.7975 91.0734 46.8852C91.0734 46.9729 91.0734 47.0314 91.0734 47.1191C91.0734 47.5283 91.1611 47.9375 91.3071 48.2883C91.4531 48.639 91.6576 48.9898 91.9497 49.2529C92.2126 49.5452 92.5339 49.7498 92.9136 49.9252C93.2641 50.1005 93.673 50.1882 94.0527 50.2175H95.6884H95.8053C96.5063 50.2467 97.1781 50.3636 97.8207 50.6267C98.5217 50.8898 99.0767 51.2405 99.5732 51.679Z" fill="#38AEE4"/>
<path d="M116.748 40.9807C118.209 40.9807 119.581 41.273 120.867 41.8284C122.152 42.3838 123.262 43.1437 124.226 44.1083C125.189 45.0729 125.92 46.1837 126.475 47.499C127.03 48.7852 127.293 50.1882 127.293 51.6789C127.293 53.1404 127.03 54.5143 126.475 55.8004C125.92 57.0865 125.189 58.2265 124.226 59.1619C123.262 60.1264 122.152 60.8864 120.867 61.4418C119.581 61.9972 118.209 62.2895 116.748 62.2895C115.288 62.2895 113.915 61.9972 112.63 61.4418C111.344 60.8864 110.235 60.1264 109.3 59.1619C108.336 58.1973 107.606 57.0865 107.051 55.8004C106.496 54.5143 106.233 53.1404 106.233 51.6789C106.233 50.1882 106.496 48.8144 107.051 47.499C107.606 46.2129 108.336 45.0729 109.3 44.1083C110.264 43.1437 111.374 42.3838 112.63 41.8284C113.915 41.273 115.288 40.9807 116.748 40.9807ZM116.748 59.308C117.741 59.308 118.705 59.1034 119.581 58.6942C120.487 58.285 121.246 57.7588 121.918 57.0573C122.59 56.3558 123.116 55.5665 123.495 54.6312C123.875 53.6958 124.08 52.702 124.08 51.6497C124.08 50.5974 123.875 49.6036 123.495 48.6682C123.116 47.7329 122.59 46.9144 121.918 46.2129C121.246 45.5114 120.487 44.956 119.581 44.576C118.676 44.1668 117.741 43.9622 116.748 43.9622C115.755 43.9622 114.82 44.1668 113.915 44.576C113.039 44.9852 112.25 45.5406 111.607 46.2129C110.936 46.9144 110.41 47.7329 110.03 48.6682C109.65 49.6036 109.446 50.5974 109.446 51.6497C109.446 52.702 109.65 53.6958 110.03 54.6312C110.41 55.5665 110.936 56.3558 111.607 57.0573C112.279 57.7588 113.039 58.285 113.915 58.6942C114.791 59.1034 115.755 59.308 116.748 59.308Z" fill="#38AEE4"/>
<path d="M134.916 59.2203H143.533V62.2603H131.849V41.0977H134.945V59.2203H134.916Z" fill="#38AEE4"/>
<path d="M0.379492 70.9416V70.5908C0.496327 70.6493 0.613163 70.6493 0.759208 70.6493C0.934461 70.6493 1.08051 70.5908 1.19734 70.4447C1.25576 70.357 1.31418 70.2985 1.34339 70.2401C1.37259 70.1816 1.43101 70.0939 1.48943 69.977L0.0874023 67.4924H0.496327L1.66468 69.6262L2.62858 67.4924H3.00829L1.75231 70.2108C1.48943 70.7954 1.19734 71 0.846834 71C0.642372 71 0.496327 71 0.379492 70.9416Z" fill="#B5B3B4"/>
<path d="M3.79688 70.9415V67.4631H4.17659V68.8954H6.25043V67.4631H6.63014V70.9415H6.25043V69.2462H4.17659V70.9415H3.79688Z" fill="#B5B3B4"/>
<path d="M7.71094 70.9415V67.4631H8.06144V70.3277L10.2229 67.4631H10.5442V70.9415H10.1937V68.077L8.03224 70.9415H7.71094Z" fill="#B5B3B4"/>
<path d="M11.6543 70.9415V67.4631H13.1732C13.7865 67.4631 14.1663 67.7847 14.1663 68.3108C14.1663 68.6616 13.991 68.9539 13.6989 69.0416C14.1663 69.1292 14.4584 69.4508 14.4584 69.9769C14.4584 70.5615 14.0202 70.9415 13.3192 70.9415H11.6543ZM12.034 68.9539H13.1147C13.5529 68.9539 13.8158 68.7493 13.8158 68.3985C13.8158 68.0185 13.5529 67.8139 13.1147 67.8139H12.034V68.9539ZM12.034 70.62H13.2608C13.7865 70.62 14.0786 70.3569 14.0786 69.9477C14.0786 69.5385 13.7865 69.2754 13.2608 69.2754H12.034V70.62Z" fill="#B5B3B4"/>
<path d="M15.4219 70.9415V67.4631H17.817V67.7847H15.7724V68.8954H17.4373V69.2169H15.7724V70.5908H17.8754V70.9123H15.4219V70.9415Z" fill="#B5B3B4"/>
<path d="M18.7227 70.9415V67.4631H20.1831C20.8841 67.4631 21.293 67.8431 21.293 68.4277C21.293 69.0123 20.8841 69.3923 20.1831 69.3923H19.1024V70.9415H18.7227ZM19.1024 69.0708H20.1539C20.6504 69.0708 20.9425 68.8369 20.9425 68.4277C20.9425 68.0185 20.6504 67.7847 20.1539 67.7847H19.0732V69.0708H19.1024Z" fill="#B5B3B4"/>
<path d="M22.52 70.5029C22.1695 70.1522 22.0234 69.743 22.0234 69.2168C22.0234 68.6907 22.1987 68.2814 22.52 67.9307C22.8705 67.5799 23.2794 67.4045 23.8052 67.4045C24.1849 67.4045 24.5062 67.4922 24.7691 67.6676V68.0476C24.477 67.843 24.1557 67.7553 23.8052 67.7553C23.3963 67.7553 23.075 67.9015 22.7829 68.1645C22.52 68.4276 22.3739 68.7784 22.3739 69.2168C22.3739 69.626 22.52 69.9768 22.7829 70.2691C23.0457 70.5322 23.3963 70.6783 23.8052 70.6783C24.2141 70.6783 24.5354 70.5614 24.8275 70.3276V70.7075C24.5354 70.9122 24.1849 71.0291 23.776 71.0291C23.3086 70.9999 22.8705 70.8537 22.52 70.5029Z" fill="#B5B3B4"/>
<path d="M25.3823 70.9415L26.9304 67.4338H27.2809L28.829 70.9415H28.4493L28.0111 69.9769H26.2002L25.7912 70.9415H25.3823ZM26.317 69.6553H27.8943L27.1057 67.9015L26.317 69.6553Z" fill="#B5B3B4"/>
<path d="M29.1797 70.6201C29.2089 70.6201 29.2673 70.6201 29.3257 70.6201C29.647 70.6201 29.7931 70.3862 29.9099 70.0062C29.9391 69.8893 29.9683 69.7432 29.9975 69.5678C30.0267 69.3924 30.0267 69.217 30.056 69.0416C30.056 68.8662 30.0852 68.6616 30.0852 68.4278L30.1144 67.4924H32.2758V70.9708H31.8961V67.814H30.4357L30.4065 68.6032C30.3773 69.2462 30.348 69.6555 30.2604 70.0647C30.1144 70.6493 29.8515 70.9416 29.3257 70.9416C29.2673 70.9416 29.2089 70.9416 29.1797 70.9416V70.6201Z" fill="#B5B3B4"/>
<path d="M33.3564 70.9415V67.4631H33.7362V68.7493H34.7877C35.1674 68.7493 35.4887 68.8369 35.6932 69.0416C35.9268 69.2462 36.0145 69.5092 36.0145 69.8308C36.0145 70.4738 35.5471 70.9123 34.7585 70.9123H33.3564V70.9415ZM33.7362 70.62H34.7585C35.3427 70.62 35.6639 70.3569 35.6639 69.86C35.6639 69.3631 35.3427 69.1 34.7585 69.1H33.7362V70.62Z" fill="#B5B3B4"/>
<path d="M36.8906 70.9415V67.4631H37.2703V68.8954H39.3442V67.4631H39.7239V70.9415H39.3442V69.2462H37.2703V70.9415H36.8906Z" fill="#B5B3B4"/>
<path d="M40.8047 70.9415V67.4631H41.1844V68.7493H42.0899C42.4696 68.7493 42.7909 68.8369 42.9954 69.0416C43.229 69.2462 43.3167 69.5092 43.3167 69.8308C43.3167 70.4738 42.8493 70.9123 42.0607 70.9123H40.8047V70.9415ZM41.1844 70.62H42.0607C42.6449 70.62 42.9662 70.3569 42.9662 69.86C42.9662 69.3631 42.6449 69.1 42.0607 69.1H41.1844V70.62ZM43.8716 70.9415V67.4631H44.2513V70.9415H43.8716Z" fill="#B5B3B4"/>
<path d="M45.3613 70.9414V67.4631H45.7118V70.3276L47.8733 67.4631H48.1946V70.9414H47.8441V68.0769L45.6826 70.9414H45.3613ZM45.9455 66.4692H46.2668C46.2668 66.7323 46.4713 66.9369 46.7926 66.9369C47.0846 66.9369 47.2891 66.7323 47.2891 66.4692H47.6104C47.6104 66.7031 47.5228 66.8785 47.3767 67.0246C47.2307 67.1708 47.0262 67.2292 46.7926 67.2292C46.2668 67.2292 45.9455 66.9369 45.9455 66.4692Z" fill="#B5B3B4"/>
<path d="M50.7646 70.9415V67.4631H51.1152V70.3277L53.2766 67.4631H53.5979V70.9415H53.2474V68.077L51.0859 70.9415H50.7646Z" fill="#B5B3B4"/>
<path d="M54.7373 70.9415V67.4631H55.117V68.8954H57.1909V67.4631H57.5706V70.9415H57.1909V69.2462H55.117V70.9415H54.7373Z" fill="#B5B3B4"/>
<path d="M58.6514 70.9415V67.4631H60.9881V67.7847H59.0019V70.9415H58.6514Z" fill="#B5B3B4"/>
<path d="M61.7769 70.9415V67.4631H62.1274V70.3277L64.2888 67.4631H64.6101V70.9415H64.2596V68.077L62.0982 70.9415H61.7769Z" fill="#B5B3B4"/>
<path d="M65.749 70.9415V67.4631H68.1149V67.7847H66.0995V68.7785H67.1511C67.5308 68.7785 67.8521 68.8662 68.0565 69.0708C68.261 69.2754 68.3778 69.5385 68.3778 69.86C68.3778 70.5031 67.9105 70.9415 67.1511 70.9415H65.749ZM66.0995 70.62H67.1218C67.706 70.62 68.0273 70.3569 68.0273 69.86C68.0273 69.3923 67.706 69.1292 67.1218 69.1292H66.0995V70.62Z" fill="#B5B3B4"/>
<path d="M69.3418 70.9415V67.4631H69.6923V70.3277L71.8538 67.4631H72.1751V70.9415H71.8245V68.077L69.6631 70.9415H69.3418Z" fill="#B5B3B4"/>
<path d="M74.1902 70.9416V67.814H72.9927V67.4924H75.7675V67.814H74.57V70.9708H74.1902V70.9416Z" fill="#B5B3B4"/>
<path d="M77.9 67.4045C78.3965 67.4045 78.8055 67.5799 79.156 67.9307C79.4773 68.2814 79.6525 68.6907 79.6525 69.2168C79.6525 69.743 79.4773 70.1522 79.156 70.5029C78.8347 70.8537 78.4258 71.0291 77.9 71.0291C77.3742 71.0291 76.9945 70.8537 76.644 70.5029C76.2935 70.1522 76.1475 69.7137 76.1475 69.2168C76.1475 68.7199 76.3227 68.2814 76.644 67.9307C76.9653 67.5799 77.4034 67.4045 77.9 67.4045ZM77.9 70.6783C78.2797 70.6783 78.601 70.5322 78.8639 70.2691C79.1268 69.9768 79.2728 69.6553 79.2728 69.2168C79.2728 68.7784 79.1268 68.4568 78.8639 68.1645C78.601 67.8722 78.2797 67.7553 77.9 67.7553C77.5203 67.7553 77.199 67.9015 76.9361 68.1645C76.6732 68.4568 76.5272 68.7784 76.5272 69.2168C76.5272 69.6553 76.6732 69.9768 76.9361 70.2691C77.1698 70.5322 77.5203 70.6783 77.9 70.6783Z" fill="#B5B3B4"/>
<path d="M80.6162 70.9415V67.4631H82.0767C82.7777 67.4631 83.1866 67.8431 83.1866 68.4277C83.1866 69.0123 82.7777 69.3923 82.0767 69.3923H80.9959V70.9415H80.6162ZM80.9959 69.0708H82.0767C82.5732 69.0708 82.8653 68.8369 82.8653 68.4277C82.8653 68.0185 82.5732 67.7847 82.0767 67.7847H80.9959V69.0708Z" fill="#B5B3B4"/>
<path d="M85.5234 70.9415V67.4631H85.9032V68.8954H87.977V67.4631H88.3567V70.9415H87.977V69.2462H85.8739V70.9415H85.5234Z" fill="#B5B3B4"/>
<path d="M89.0869 70.9415L90.635 67.4338H90.9855L92.5336 70.9415H92.1538L91.7157 69.9769H89.9048L89.4958 70.9415H89.0869ZM90.0216 69.6553H91.5989L90.8102 67.9015L90.0216 69.6553Z" fill="#B5B3B4"/>
<path d="M93.6727 67.4631V68.9831L95.2792 67.4631H95.7757L94.0816 69.0416L96.0386 70.9415H95.5128L93.6727 69.1585V70.9415H93.293V67.4631H93.6727Z" fill="#B5B3B4"/>
<path d="M96.7397 70.9415V67.4631H97.0902V70.3277L99.2517 67.4631H99.573V70.9415H99.2225V68.077L97.061 70.9415H96.7397Z" fill="#B5B3B4"/>
<path d="M100.712 70.9415V67.4631H103.428V70.9415H103.049V67.8139H101.062V70.9707H100.712V70.9415Z" fill="#B5B3B4"/>
<path d="M104.539 70.9415V67.4631H104.889V70.3277L107.051 67.4631H107.372V70.9415H107.021V68.077L104.86 70.9415H104.539Z" fill="#B5B3B4"/>
<path d="M109.942 70.9415V67.4631H110.292V70.3277L112.454 67.4631H112.775V70.9415H112.425V68.077L110.263 70.9415H109.942Z" fill="#B5B3B4"/>
<path d="M115.726 67.4631V68.9831L117.332 67.4631H117.829L116.134 69.0416L118.091 70.9415H117.566L115.726 69.1585V70.9415H115.375V67.4631H115.726Z" fill="#B5B3B4"/>
<path d="M120.136 67.4045C120.633 67.4045 121.042 67.5799 121.392 67.9307C121.714 68.2814 121.889 68.6907 121.889 69.2168C121.889 69.743 121.714 70.1522 121.392 70.5029C121.071 70.8537 120.662 71.0291 120.136 71.0291C119.611 71.0291 119.231 70.8537 118.88 70.5029C118.53 70.1522 118.384 69.7137 118.384 69.2168C118.384 68.7199 118.559 68.2814 118.88 67.9307C119.202 67.5799 119.611 67.4045 120.136 67.4045ZM120.136 70.6783C120.516 70.6783 120.837 70.5322 121.1 70.2691C121.363 69.9768 121.509 69.6553 121.509 69.2168C121.509 68.7784 121.363 68.4568 121.1 68.1645C120.837 67.8722 120.516 67.7553 120.136 67.7553C119.757 67.7553 119.435 67.9015 119.172 68.1645C118.91 68.4568 118.764 68.7784 118.764 69.2168C118.764 69.6553 118.91 69.9768 119.172 70.2691C119.406 70.5322 119.727 70.6783 120.136 70.6783Z" fill="#B5B3B4"/>
<path d="M122.853 70.9415V67.4631H124.313C125.014 67.4631 125.423 67.8431 125.423 68.4277C125.423 69.0123 125.014 69.3923 124.313 69.3923H123.232V70.9415H122.853ZM123.232 69.0708H124.313C124.81 69.0708 125.102 68.8369 125.102 68.4277C125.102 68.0185 124.81 67.7847 124.313 67.7847H123.232V69.0708Z" fill="#B5B3B4"/>
<path d="M126.299 70.9415V67.4631H127.76C128.461 67.4631 128.87 67.8431 128.87 68.4277C128.87 69.0123 128.461 69.3923 127.76 69.3923H126.679V70.9415H126.299ZM126.65 69.0708H127.731C128.227 69.0708 128.519 68.8369 128.519 68.4277C128.519 68.0185 128.227 67.7847 127.731 67.7847H126.65V69.0708Z" fill="#B5B3B4"/>
<path d="M131.352 67.4045C131.849 67.4045 132.258 67.5799 132.608 67.9307C132.929 68.2814 133.105 68.6907 133.105 69.2168C133.105 69.743 132.929 70.1522 132.608 70.5029C132.287 70.8537 131.878 71.0291 131.352 71.0291C130.826 71.0291 130.447 70.8537 130.096 70.5029C129.746 70.1522 129.6 69.7137 129.6 69.2168C129.6 68.7199 129.775 68.2814 130.096 67.9307C130.417 67.5799 130.826 67.4045 131.352 67.4045ZM131.352 70.6783C131.732 70.6783 132.053 70.5322 132.316 70.2691C132.579 69.9768 132.725 69.6553 132.725 69.2168C132.725 68.7784 132.579 68.4568 132.316 68.1645C132.053 67.8722 131.732 67.7553 131.352 67.7553C130.972 67.7553 130.651 67.9015 130.388 68.1645C130.125 68.4568 129.979 68.7784 129.979 69.2168C129.979 69.6553 130.125 69.9768 130.388 70.2691C130.622 70.5322 130.943 70.6783 131.352 70.6783Z" fill="#B5B3B4"/>
<path d="M133.66 70.737V70.357C134.01 70.5616 134.361 70.6493 134.77 70.6493C135.441 70.6493 135.85 70.357 135.85 69.9185C135.85 69.5093 135.471 69.217 134.886 69.217H134.448V68.8955H134.916C135.412 68.8955 135.704 68.6908 135.704 68.3109C135.704 67.9601 135.354 67.7262 134.857 67.7262C134.507 67.7262 134.185 67.8139 133.835 67.9601V67.6093C134.185 67.4632 134.536 67.3755 134.886 67.3755C135.237 67.3755 135.529 67.4632 135.734 67.6093C135.967 67.7847 136.084 67.9893 136.084 68.2524C136.084 68.457 136.026 68.6324 135.909 68.7493C135.792 68.8662 135.675 68.9539 135.529 69.0124C135.734 69.0708 135.88 69.1878 136.026 69.3339C136.172 69.4801 136.259 69.6847 136.259 69.9185C136.259 70.24 136.142 70.4739 135.88 70.6785C135.617 70.8831 135.295 70.9708 134.857 70.9708C134.39 71 133.981 70.9123 133.66 70.737Z" fill="#B5B3B4"/>
<path d="M137.194 70.9415V67.4631H137.545V70.3277L139.706 67.4631H140.028V70.9415H139.677V68.077L137.516 70.9415H137.194Z" fill="#B5B3B4"/>
<path d="M141.167 70.9415V67.4631H141.517V70.3277L143.678 67.4631H144V70.9415H143.649V68.077L141.488 70.9415H141.167Z" fill="#B5B3B4"/>
</svg>
