<svg width="145" height="72" viewBox="0 0 145 72" fill="none" xmlns="http://www.w3.org/2000/svg">
<path d="M76.0312 0.20459C82.4864 2.16301 87.1891 8.15519 87.1891 15.2581C87.1891 22.361 82.4864 28.3532 76.0312 30.3116L95.6012 23.0918C99.0771 22.0395 101.443 18.8534 101.443 15.2289C101.443 11.6043 99.0771 8.41826 95.6012 7.36597L76.0312 0.20459Z" fill="#B5B3B4"/>
<path d="M65.4275 17.9766C66.9464 21.1334 70.7143 22.4488 73.8689 20.9581C77.0234 19.4381 78.3378 15.6674 76.8482 12.5106L80.8498 10.6106C83.4202 15.9597 81.1419 22.3903 75.7967 24.9626C70.4514 27.5348 64.0255 25.2549 61.4551 19.9058L65.4275 17.9766Z" fill="#B5B3B4"/>
<path d="M71.0946 0C62.6532 0 55.8184 6.83985 55.8184 15.2874C55.8184 23.7349 62.6532 30.5747 71.0946 30.5747C79.536 30.5747 86.3709 23.7349 86.3709 15.2874C86.3709 6.83985 79.536 0 71.0946 0ZM71.0946 26.9794C64.6395 26.9794 59.4111 21.7472 59.4111 15.2874C59.4111 8.8275 64.6395 3.59531 71.0946 3.59531C77.5498 3.59531 82.7782 8.8275 82.7782 15.2874C82.7782 21.7472 77.5498 26.9794 71.0946 26.9794Z" fill="#D3D3D3"/>
<path d="M61.5139 22.887C48.9249 25.3716 42.791 12.4811 42.791 12.4811C56.6068 29.873 69.8677 9.03195 83.7127 8.73965C97.032 8.47658 103.546 21.104 103.546 21.104C85.144 0.876743 74.1322 20.4025 61.5139 22.887Z" fill="#38AEE4"/>
<path d="M0 62.1734L8.61663 41.04L17.2333 62.1734H14.0787L13.4361 60.5073H3.79716L3.12535 62.1734H0ZM4.84868 57.7889H12.3846L8.61663 48.1137L4.84868 57.7889Z" fill="#38AEE4"/>
<path d="M32.3061 41.0684C33.7665 41.0684 35.1393 41.3607 36.4245 41.916C37.7097 42.4714 38.8196 43.2314 39.7835 44.1668C40.7474 45.1314 41.4777 46.2421 42.0326 47.5282C42.5876 48.8143 42.8797 50.1882 42.8797 51.6497C42.8797 53.1404 42.5876 54.5435 42.0034 55.8296C41.4192 57.1157 40.6306 58.2557 39.6375 59.2203H42.8505V62.2018H32.3061H32.2768C30.8164 62.2018 29.4436 61.9094 28.1584 61.3541C26.8732 60.7987 25.7633 60.0387 24.8286 59.1034C23.8647 58.1388 23.1345 57.028 22.5795 55.7711C22.0245 54.485 21.7324 53.1112 21.7324 51.6497C21.7324 50.1882 22.0245 48.8143 22.5795 47.5282C23.1345 46.2421 23.8939 45.1314 24.8286 44.1668C25.7925 43.2022 26.9024 42.4714 28.1584 41.916C29.502 41.3607 30.8456 41.0684 32.3061 41.0684ZM32.3937 59.2495C33.416 59.2495 34.4091 59.0449 35.3146 58.6357C36.2201 58.2265 37.0379 57.6711 37.7097 56.9988C38.3815 56.2973 38.9365 55.508 39.3162 54.6019C39.6959 53.6958 39.9004 52.702 39.9004 51.6789C39.9004 50.6266 39.6959 49.6328 39.3162 48.6974C38.9365 47.7621 38.3815 46.9728 37.6805 46.2713C36.9795 45.5698 36.1908 45.0437 35.2562 44.6344C34.3215 44.2544 33.3576 44.0498 32.2768 44.0498C31.2253 44.0498 30.2614 44.2544 29.3267 44.6344C28.3921 45.0144 27.6034 45.5698 26.9024 46.2713C26.2014 46.9728 25.6756 47.7621 25.2667 48.6974C24.887 49.6328 24.6825 50.5974 24.6825 51.6789C24.6825 52.702 24.887 53.6958 25.2667 54.6311C25.6464 55.5665 26.2014 56.3557 26.9024 57.0572C27.6034 57.7588 28.3921 58.2849 29.3267 58.6941C30.2614 59.0741 31.2253 59.2787 32.2768 59.2787H32.3937V59.2495Z" fill="#38AEE4"/>
<path d="M58.6518 41.0684H61.6895V55.1865C61.6895 56.1803 61.5143 57.0865 61.1345 57.9341C60.7548 58.7818 60.2583 59.5126 59.5865 60.1264C58.9439 60.7402 58.1844 61.2372 57.3082 61.6171C56.4319 61.9971 55.5264 62.1725 54.5041 62.1725C53.511 62.1725 52.6055 61.9971 51.7585 61.6171C50.9114 61.2664 50.152 60.7695 49.5094 60.1264C48.8668 59.5126 48.3702 58.7526 47.9905 57.9341C47.6108 57.0865 47.4355 56.1803 47.4355 55.1865V41.0684H50.4733V55.1865C50.4733 55.7419 50.5901 56.268 50.7946 56.7649C50.999 57.2619 51.2911 57.7003 51.6708 58.0511C52.0213 58.4311 52.4595 58.7234 52.956 58.928C53.4526 59.1326 53.9783 59.2495 54.5333 59.2495C55.1175 59.2495 55.6433 59.1326 56.1398 58.928C56.6364 58.7234 57.0745 58.4311 57.4542 58.0511C57.8339 57.6711 58.126 57.2326 58.3305 56.7649C58.5349 56.268 58.6518 55.7419 58.6518 55.1865V41.0684Z" fill="#38AEE4"/>
<path d="M66.2168 62.1727L74.8334 41.0393L83.4501 62.1727H80.3247L79.6821 60.5066H70.0432L69.3714 62.1727H66.2168ZM71.0655 57.7882H78.6014L74.8334 48.113L71.0655 57.7882Z" fill="#38AEE4"/>
<path d="M99.5722 51.679C99.7183 51.7667 99.8351 51.8836 99.952 52.0005C100.069 52.1174 100.186 52.2343 100.273 52.3513C100.711 52.9066 101.062 53.5205 101.325 54.1928C101.588 54.865 101.705 55.5666 101.705 56.2973C101.705 56.4727 101.705 56.6189 101.675 56.7065C101.617 57.7881 101.296 58.7527 100.682 59.6296C100.156 60.448 99.4554 61.0618 98.6084 61.5588C97.7613 62.0264 96.8266 62.2603 95.7751 62.2603H93.8765C92.8542 62.2603 91.8903 62.0264 91.0432 61.5588C90.1962 61.0911 89.4952 60.448 88.9694 59.6296C88.8234 59.3957 88.6481 59.1327 88.5021 58.8111L91.1893 56.7358C91.2477 57.1158 91.3645 57.4373 91.5398 57.7588C91.715 58.0804 91.9487 58.3434 92.2116 58.6065C92.4745 58.8404 92.7958 59.045 93.1463 59.1619C93.4968 59.308 93.8473 59.3665 94.227 59.3665H95.3662C96.1548 59.3665 96.8266 59.1034 97.4108 58.6065C97.995 58.1096 98.3455 57.4665 98.4331 56.7065C98.4331 56.6189 98.4331 56.5604 98.4331 56.4727C98.4331 56.385 98.4331 56.3266 98.4331 56.2389C98.4331 55.8296 98.3455 55.4204 98.1994 55.0697C98.0534 54.7189 97.8197 54.3974 97.5568 54.1051C97.294 53.8128 96.9727 53.6082 96.5929 53.4328C96.2132 53.2574 95.8335 53.1697 95.4538 53.1405H93.8181H93.7012C93.0002 53.1112 92.3284 52.9943 91.6858 52.7312C91.0724 52.4682 90.4883 52.1174 89.9917 51.679C89.7288 51.4744 89.4952 51.2697 89.2907 50.9774C88.8526 50.4221 88.5021 49.8082 88.2684 49.1359C88.0055 48.4637 87.8887 47.7621 87.8887 47.0606V46.6514C87.9763 45.5699 88.3268 44.576 88.911 43.7284C89.4367 42.9099 90.1378 42.2961 90.9848 41.7992C91.8319 41.3315 92.7666 41.0977 93.8181 41.0977H95.6875C96.7098 41.0977 97.6737 41.3315 98.5207 41.7992C99.3678 42.2669 100.069 42.9099 100.595 43.7284C100.653 43.8161 100.711 43.933 100.77 44.0499C100.828 44.1668 100.887 44.2837 100.945 44.3714L98.3163 46.4175C98.141 45.716 97.7905 45.1606 97.2355 44.693C96.6806 44.2253 96.038 43.9914 95.3077 43.9914H94.1686C93.7889 43.9914 93.4092 44.0499 93.0587 44.196C92.7082 44.3422 92.3868 44.5176 92.124 44.7514C91.8611 44.9853 91.6274 45.2776 91.4522 45.5991C91.2769 45.9206 91.1601 46.2714 91.1017 46.6514C91.0724 46.7391 91.0724 46.7975 91.0724 46.8852C91.0724 46.9729 91.0724 47.0314 91.0724 47.1191C91.0724 47.5283 91.1601 47.9375 91.3061 48.2883C91.4522 48.639 91.6566 48.9898 91.9487 49.2529C92.2116 49.5452 92.5329 49.7498 92.9126 49.9252C93.2631 50.1005 93.672 50.1882 94.0518 50.2175H95.6875H95.8043C96.5053 50.2467 97.1771 50.3636 97.8197 50.6267C98.5207 50.8898 99.0757 51.2405 99.5722 51.679Z" fill="#38AEE4"/>
<path d="M116.748 40.9807C118.208 40.9807 119.581 41.273 120.866 41.8284C122.151 42.3838 123.261 43.1437 124.225 44.1083C125.189 45.0729 125.919 46.1837 126.474 47.499C127.029 48.7852 127.292 50.1882 127.292 51.6789C127.292 53.1404 127.029 54.5143 126.474 55.8004C125.919 57.0865 125.189 58.2265 124.225 59.1619C123.261 60.1264 122.151 60.8864 120.866 61.4418C119.581 61.9972 118.208 62.2895 116.748 62.2895C115.287 62.2895 113.914 61.9972 112.629 61.4418C111.344 60.8864 110.234 60.1264 109.299 59.1619C108.335 58.1973 107.605 57.0865 107.05 55.8004C106.495 54.5143 106.232 53.1404 106.232 51.6789C106.232 50.1882 106.495 48.8144 107.05 47.499C107.605 46.2129 108.335 45.0729 109.299 44.1083C110.263 43.1437 111.373 42.3838 112.629 41.8284C113.914 41.273 115.287 40.9807 116.748 40.9807ZM116.748 59.308C117.741 59.308 118.705 59.1034 119.581 58.6942C120.486 58.285 121.246 57.7588 121.918 57.0573C122.589 56.3558 123.115 55.5665 123.495 54.6312C123.875 53.6958 124.079 52.702 124.079 51.6497C124.079 50.5974 123.875 49.6036 123.495 48.6682C123.115 47.7329 122.589 46.9144 121.918 46.2129C121.246 45.5114 120.486 44.956 119.581 44.576C118.675 44.1668 117.741 43.9622 116.748 43.9622C115.755 43.9622 114.82 44.1668 113.914 44.576C113.038 44.9852 112.249 45.5406 111.607 46.2129C110.935 46.9144 110.409 47.7329 110.03 48.6682C109.65 49.6036 109.445 50.5974 109.445 51.6497C109.445 52.702 109.65 53.6958 110.03 54.6312C110.409 55.5665 110.935 56.3558 111.607 57.0573C112.279 57.7588 113.038 58.285 113.914 58.6942C114.791 59.1034 115.755 59.308 116.748 59.308Z" fill="#38AEE4"/>
<path d="M134.917 59.2203H143.533V62.2603H131.85V41.0977H134.946V59.2203H134.917Z" fill="#38AEE4"/>
<path d="M0.37998 70.9416V70.5908C0.496816 70.6493 0.613651 70.6493 0.759696 70.6493C0.934949 70.6493 1.08099 70.5908 1.19783 70.4447C1.25625 70.357 1.31467 70.2985 1.34387 70.2401C1.37308 70.1816 1.4315 70.0939 1.48992 69.977L0.0878906 67.4924H0.496816L1.66517 69.6262L2.62907 67.4924H3.00878L1.7528 70.2108C1.48992 70.7954 1.19783 71 0.847323 71C0.64286 71 0.496816 71 0.37998 70.9416Z" fill="#B5B3B4"/>
<path d="M3.79688 70.9415V67.4631H4.17659V68.8954H6.25043V67.4631H6.63014V70.9415H6.25043V69.2462H4.17659V70.9415H3.79688Z" fill="#B5B3B4"/>
<path d="M7.71094 70.9415V67.4631H8.06144V70.3277L10.2229 67.4631H10.5442V70.9415H10.1937V68.077L8.03224 70.9415H7.71094Z" fill="#B5B3B4"/>
<path d="M11.6543 70.9415V67.4631H13.1732C13.7865 67.4631 14.1663 67.7847 14.1663 68.3108C14.1663 68.6616 13.991 68.9539 13.6989 69.0416C14.1663 69.1292 14.4584 69.4508 14.4584 69.9769C14.4584 70.5615 14.0202 70.9415 13.3192 70.9415H11.6543ZM12.034 68.9539H13.1147C13.5529 68.9539 13.8158 68.7493 13.8158 68.3985C13.8158 68.0185 13.5529 67.8139 13.1147 67.8139H12.034V68.9539ZM12.034 70.62H13.2608C13.7865 70.62 14.0786 70.3569 14.0786 69.9477C14.0786 69.5385 13.7865 69.2754 13.2608 69.2754H12.034V70.62Z" fill="#B5B3B4"/>
<path d="M15.4219 70.9415V67.4631H17.817V67.7847H15.7724V68.8954H17.4373V69.2169H15.7724V70.5908H17.8754V70.9123H15.4219V70.9415Z" fill="#B5B3B4"/>
<path d="M18.7227 70.9415V67.4631H20.1831C20.8841 67.4631 21.293 67.8431 21.293 68.4277C21.293 69.0123 20.8841 69.3923 20.1831 69.3923H19.1024V70.9415H18.7227ZM19.1024 69.0708H20.1539C20.6504 69.0708 20.9425 68.8369 20.9425 68.4277C20.9425 68.0185 20.6504 67.7847 20.1539 67.7847H19.0732V69.0708H19.1024Z" fill="#B5B3B4"/>
<path d="M22.52 70.5029C22.1695 70.1522 22.0234 69.743 22.0234 69.2168C22.0234 68.6907 22.1987 68.2814 22.52 67.9307C22.8705 67.5799 23.2794 67.4045 23.8052 67.4045C24.1849 67.4045 24.5062 67.4922 24.7691 67.6676V68.0476C24.477 67.843 24.1557 67.7553 23.8052 67.7553C23.3963 67.7553 23.075 67.9015 22.7829 68.1645C22.52 68.4276 22.3739 68.7784 22.3739 69.2168C22.3739 69.626 22.52 69.9768 22.7829 70.2691C23.0457 70.5322 23.3963 70.6783 23.8052 70.6783C24.2141 70.6783 24.5354 70.5614 24.8275 70.3276V70.7075C24.5354 70.9122 24.1849 71.0291 23.776 71.0291C23.3086 70.9999 22.8705 70.8537 22.52 70.5029Z" fill="#B5B3B4"/>
<path d="M25.3828 70.9415L26.9309 67.4338H27.2814L28.8295 70.9415H28.4497L28.0116 69.9769H26.2007L25.7917 70.9415H25.3828ZM26.3175 69.6553H27.8948L27.1061 67.9015L26.3175 69.6553Z" fill="#B5B3B4"/>
<path d="M29.1797 70.6201C29.2089 70.6201 29.2673 70.6201 29.3257 70.6201C29.647 70.6201 29.7931 70.3862 29.9099 70.0062C29.9391 69.8893 29.9683 69.7432 29.9975 69.5678C30.0267 69.3924 30.0267 69.217 30.056 69.0416C30.056 68.8662 30.0852 68.6616 30.0852 68.4278L30.1144 67.4924H32.2758V70.9708H31.8961V67.814H30.4357L30.4065 68.6032C30.3773 69.2462 30.348 69.6555 30.2604 70.0647C30.1144 70.6493 29.8515 70.9416 29.3257 70.9416C29.2673 70.9416 29.2089 70.9416 29.1797 70.9416V70.6201Z" fill="#B5B3B4"/>
<path d="M33.3574 70.9415V67.4631H33.7371V68.7493H34.7887C35.1684 68.7493 35.4897 68.8369 35.6941 69.0416C35.9278 69.2462 36.0154 69.5092 36.0154 69.8308C36.0154 70.4738 35.5481 70.9123 34.7595 70.9123H33.3574V70.9415ZM33.7371 70.62H34.7595C35.3436 70.62 35.6649 70.3569 35.6649 69.86C35.6649 69.3631 35.3436 69.1 34.7595 69.1H33.7371V70.62Z" fill="#B5B3B4"/>
<path d="M36.8906 70.9415V67.4631H37.2703V68.8954H39.3442V67.4631H39.7239V70.9415H39.3442V69.2462H37.2703V70.9415H36.8906Z" fill="#B5B3B4"/>
<path d="M40.8047 70.9415V67.4631H41.1844V68.7493H42.0899C42.4696 68.7493 42.7909 68.8369 42.9954 69.0416C43.229 69.2462 43.3167 69.5092 43.3167 69.8308C43.3167 70.4738 42.8493 70.9123 42.0607 70.9123H40.8047V70.9415ZM41.1844 70.62H42.0607C42.6449 70.62 42.9662 70.3569 42.9662 69.86C42.9662 69.3631 42.6449 69.1 42.0607 69.1H41.1844V70.62ZM43.8716 70.9415V67.4631H44.2513V70.9415H43.8716Z" fill="#B5B3B4"/>
<path d="M45.3613 70.9414V67.4631H45.7118V70.3276L47.8733 67.4631H48.1946V70.9414H47.8441V68.0769L45.6826 70.9414H45.3613ZM45.9455 66.4692H46.2668C46.2668 66.7323 46.4713 66.9369 46.7926 66.9369C47.0846 66.9369 47.2891 66.7323 47.2891 66.4692H47.6104C47.6104 66.7031 47.5228 66.8785 47.3767 67.0246C47.2307 67.1708 47.0262 67.2292 46.7926 67.2292C46.2668 67.2292 45.9455 66.9369 45.9455 66.4692Z" fill="#B5B3B4"/>
<path d="M50.7656 70.9415V67.4631H51.1161V70.3277L53.2776 67.4631H53.5989V70.9415H53.2484V68.077L51.0869 70.9415H50.7656Z" fill="#B5B3B4"/>
<path d="M54.7383 70.9415V67.4631H55.118V68.8954H57.1918V67.4631H57.5715V70.9415H57.1918V69.2462H55.118V70.9415H54.7383Z" fill="#B5B3B4"/>
<path d="M58.6523 70.9415V67.4631H60.9891V67.7847H59.0028V70.9415H58.6523Z" fill="#B5B3B4"/>
<path d="M61.7773 70.9415V67.4631H62.1278V70.3277L64.2893 67.4631H64.6106V70.9415H64.2601V68.077L62.0986 70.9415H61.7773Z" fill="#B5B3B4"/>
<path d="M65.75 70.9415V67.4631H68.1159V67.7847H66.1005V68.7785H67.152C67.5317 68.7785 67.853 68.8662 68.0575 69.0708C68.262 69.2754 68.3788 69.5385 68.3788 69.86C68.3788 70.5031 67.9115 70.9415 67.152 70.9415H65.75ZM66.1005 70.62H67.1228C67.707 70.62 68.0283 70.3569 68.0283 69.86C68.0283 69.3923 67.707 69.1292 67.1228 69.1292H66.1005V70.62Z" fill="#B5B3B4"/>
<path d="M69.3418 70.9415V67.4631H69.6923V70.3277L71.8538 67.4631H72.1751V70.9415H71.8245V68.077L69.6631 70.9415H69.3418Z" fill="#B5B3B4"/>
<path d="M74.1917 70.9416V67.814H72.9941V67.4924H75.769V67.814H74.5714V70.9708H74.1917V70.9416Z" fill="#B5B3B4"/>
<path d="M77.901 67.4045C78.3975 67.4045 78.8064 67.5799 79.1569 67.9307C79.4782 68.2814 79.6535 68.6907 79.6535 69.2168C79.6535 69.743 79.4782 70.1522 79.1569 70.5029C78.8357 70.8537 78.4267 71.0291 77.901 71.0291C77.3752 71.0291 76.9955 70.8537 76.645 70.5029C76.2945 70.1522 76.1484 69.7137 76.1484 69.2168C76.1484 68.7199 76.3237 68.2814 76.645 67.9307C76.9663 67.5799 77.4044 67.4045 77.901 67.4045ZM77.901 70.6783C78.2807 70.6783 78.602 70.5322 78.8649 70.2691C79.1277 69.9768 79.2738 69.6553 79.2738 69.2168C79.2738 68.7784 79.1277 68.4568 78.8649 68.1645C78.602 67.8722 78.2807 67.7553 77.901 67.7553C77.5213 67.7553 77.2 67.9015 76.9371 68.1645C76.6742 68.4568 76.5281 68.7784 76.5281 69.2168C76.5281 69.6553 76.6742 69.9768 76.9371 70.2691C77.1707 70.5322 77.5213 70.6783 77.901 70.6783Z" fill="#B5B3B4"/>
<path d="M80.6172 70.9415V67.4631H82.0776C82.7787 67.4631 83.1876 67.8431 83.1876 68.4277C83.1876 69.0123 82.7787 69.3923 82.0776 69.3923H80.9969V70.9415H80.6172ZM80.9969 69.0708H82.0776C82.5742 69.0708 82.8663 68.8369 82.8663 68.4277C82.8663 68.0185 82.5742 67.7847 82.0776 67.7847H80.9969V69.0708Z" fill="#B5B3B4"/>
<path d="M85.5234 70.9415V67.4631H85.9032V68.8954H87.977V67.4631H88.3567V70.9415H87.977V69.2462H85.8739V70.9415H85.5234Z" fill="#B5B3B4"/>
<path d="M89.0879 70.9415L90.636 67.4338H90.9865L92.5345 70.9415H92.1548L91.7167 69.9769H89.9057L89.4968 70.9415H89.0879ZM90.0226 69.6553H91.5999L90.8112 67.9015L90.0226 69.6553Z" fill="#B5B3B4"/>
<path d="M93.6727 67.4631V68.9831L95.2792 67.4631H95.7757L94.0816 69.0416L96.0386 70.9415H95.5128L93.6727 69.1585V70.9415H93.293V67.4631H93.6727Z" fill="#B5B3B4"/>
<path d="M96.7402 70.9415V67.4631H97.0907V70.3277L99.2522 67.4631H99.5735V70.9415H99.223V68.077L97.0615 70.9415H96.7402Z" fill="#B5B3B4"/>
<path d="M100.713 70.9415V67.4631H103.429V70.9415H103.05V67.8139H101.063V70.9707H100.713V70.9415Z" fill="#B5B3B4"/>
<path d="M104.539 70.9415V67.4631H104.89V70.3277L107.051 67.4631H107.372V70.9415H107.022V68.077L104.86 70.9415H104.539Z" fill="#B5B3B4"/>
<path d="M109.943 70.9415V67.4631H110.294V70.3277L112.455 67.4631H112.777V70.9415H112.426V68.077L110.265 70.9415H109.943Z" fill="#B5B3B4"/>
<path d="M115.726 67.4631V68.9831L117.332 67.4631H117.829L116.134 69.0416L118.091 70.9415H117.566L115.726 69.1585V70.9415H115.375V67.4631H115.726Z" fill="#B5B3B4"/>
<path d="M120.137 67.4045C120.634 67.4045 121.043 67.5799 121.393 67.9307C121.715 68.2814 121.89 68.6907 121.89 69.2168C121.89 69.743 121.715 70.1522 121.393 70.5029C121.072 70.8537 120.663 71.0291 120.137 71.0291C119.612 71.0291 119.232 70.8537 118.881 70.5029C118.531 70.1522 118.385 69.7137 118.385 69.2168C118.385 68.7199 118.56 68.2814 118.881 67.9307C119.203 67.5799 119.612 67.4045 120.137 67.4045ZM120.137 70.6783C120.517 70.6783 120.838 70.5322 121.101 70.2691C121.364 69.9768 121.51 69.6553 121.51 69.2168C121.51 68.7784 121.364 68.4568 121.101 68.1645C120.838 67.8722 120.517 67.7553 120.137 67.7553C119.758 67.7553 119.436 67.9015 119.173 68.1645C118.911 68.4568 118.764 68.7784 118.764 69.2168C118.764 69.6553 118.911 69.9768 119.173 70.2691C119.407 70.5322 119.728 70.6783 120.137 70.6783Z" fill="#B5B3B4"/>
<path d="M122.854 70.9415V67.4631H124.314C125.015 67.4631 125.424 67.8431 125.424 68.4277C125.424 69.0123 125.015 69.3923 124.314 69.3923H123.233V70.9415H122.854ZM123.233 69.0708H124.314C124.811 69.0708 125.103 68.8369 125.103 68.4277C125.103 68.0185 124.811 67.7847 124.314 67.7847H123.233V69.0708Z" fill="#B5B3B4"/>
<path d="M126.299 70.9415V67.4631H127.759C128.46 67.4631 128.869 67.8431 128.869 68.4277C128.869 69.0123 128.46 69.3923 127.759 69.3923H126.679V70.9415H126.299ZM126.649 69.0708H127.73C128.227 69.0708 128.519 68.8369 128.519 68.4277C128.519 68.0185 128.227 67.7847 127.73 67.7847H126.649V69.0708Z" fill="#B5B3B4"/>
<path d="M131.352 67.4045C131.849 67.4045 132.258 67.5799 132.608 67.9307C132.929 68.2814 133.105 68.6907 133.105 69.2168C133.105 69.743 132.929 70.1522 132.608 70.5029C132.287 70.8537 131.878 71.0291 131.352 71.0291C130.826 71.0291 130.447 70.8537 130.096 70.5029C129.746 70.1522 129.6 69.7137 129.6 69.2168C129.6 68.7199 129.775 68.2814 130.096 67.9307C130.417 67.5799 130.826 67.4045 131.352 67.4045ZM131.352 70.6783C131.732 70.6783 132.053 70.5322 132.316 70.2691C132.579 69.9768 132.725 69.6553 132.725 69.2168C132.725 68.7784 132.579 68.4568 132.316 68.1645C132.053 67.8722 131.732 67.7553 131.352 67.7553C130.972 67.7553 130.651 67.9015 130.388 68.1645C130.125 68.4568 129.979 68.7784 129.979 69.2168C129.979 69.6553 130.125 69.9768 130.388 70.2691C130.622 70.5322 130.943 70.6783 131.352 70.6783Z" fill="#B5B3B4"/>
<path d="M133.66 70.737V70.357C134.011 70.5616 134.361 70.6493 134.77 70.6493C135.442 70.6493 135.851 70.357 135.851 69.9185C135.851 69.5093 135.471 69.217 134.887 69.217H134.449V68.8955H134.916C135.413 68.8955 135.705 68.6908 135.705 68.3109C135.705 67.9601 135.354 67.7262 134.858 67.7262C134.507 67.7262 134.186 67.8139 133.835 67.9601V67.6093C134.186 67.4632 134.536 67.3755 134.887 67.3755C135.237 67.3755 135.53 67.4632 135.734 67.6093C135.968 67.7847 136.085 67.9893 136.085 68.2524C136.085 68.457 136.026 68.6324 135.909 68.7493C135.792 68.8662 135.676 68.9539 135.53 69.0124C135.734 69.0708 135.88 69.1878 136.026 69.3339C136.172 69.4801 136.26 69.6847 136.26 69.9185C136.26 70.24 136.143 70.4739 135.88 70.6785C135.617 70.8831 135.296 70.9708 134.858 70.9708C134.39 71 133.981 70.9123 133.66 70.737Z" fill="#B5B3B4"/>
<path d="M137.195 70.9415V67.4631H137.546V70.3277L139.707 67.4631H140.029V70.9415H139.678V68.077L137.517 70.9415H137.195Z" fill="#B5B3B4"/>
<path d="M141.168 70.9415V67.4631H141.518V70.3277L143.68 67.4631H144.001V70.9415H143.651V68.077L141.489 70.9415H141.168Z" fill="#B5B3B4"/>
</svg>
