<svg width="169" height="66" viewBox="0 0 169 66" fill="none" xmlns="http://www.w3.org/2000/svg">
<path d="M83.0341 40.4255H107.059V21.9365C106.173 22.9329 104.734 23.5972 103.294 23.5972C101.634 23.5972 100.194 22.8222 99.198 21.7151C98.3123 22.9329 96.7624 23.5972 95.1017 23.5972C93.441 23.5972 92.0017 22.8222 91.0053 21.7151C90.1196 22.9329 88.5697 23.5972 86.909 23.5972C85.2483 23.5972 83.809 22.8222 82.9233 21.7151V40.4255H83.0341Z" fill="#32AEE4"/>
<path d="M80.4878 59.2463V59.7999H81.2628C81.0414 59.6892 80.7092 59.4678 80.4878 59.2463Z" fill="#187FA3"/>
<path d="M83.0342 40.2039V46.1823C83.0342 48.5073 83.3663 50.5001 83.9199 52.1608C84.4734 53.8215 85.3591 55.15 86.3555 56.2571C87.352 57.3643 88.6805 58.1392 90.1198 58.5821C91.559 59.1356 93.2197 59.3571 95.1018 59.3571C96.8732 59.3571 98.5339 59.1356 100.084 58.5821C101.523 58.0285 102.852 57.2535 103.848 56.2571C104.844 55.15 105.73 53.8215 106.284 52.1608C106.837 50.5001 107.169 48.5073 107.169 46.1823V40.2039H83.0342Z" fill="#187FA3"/>
<path d="M108.83 59.9107H109.273V59.5786C109.162 59.6893 109.052 59.8 108.83 59.9107Z" fill="#187FA3"/>
<path d="M31.1103 45.6292C29.671 44.5221 27.5675 43.9685 24.7997 43.9685H12.3999V57.4754H24.7997C27.5675 57.4754 29.671 56.9218 31.1103 55.8147C32.5495 54.7076 33.3245 53.0469 33.3245 50.8327C33.3245 48.5077 32.5495 46.7363 31.1103 45.6292Z" fill="#1CA94A"/>
<path d="M31.1103 33.2293C31.1103 31.2365 30.446 29.7972 29.1174 28.6901C27.7889 27.6937 25.7961 27.1401 23.139 27.1401H12.3999V39.872H23.139C28.4532 39.7613 31.1103 37.6578 31.1103 33.2293Z" fill="#1CA94A"/>
<path d="M117.466 19.7222C116.137 19.7222 115.03 20.8293 115.03 22.1578V45.8503C115.03 51.4966 113.259 55.7036 109.827 58.4714C106.394 61.2393 101.523 62.6785 95.1018 62.6785C88.7912 62.6785 83.8092 61.2393 80.3771 58.4714C76.945 55.8144 75.2843 51.4966 75.2843 45.8503V22.1578C75.2843 20.8293 74.1772 19.7222 72.8486 19.7222H2.43567C1.10712 19.7222 0 20.8293 0 22.1578V63.5642C0 64.8928 1.10712 65.9999 2.43567 65.9999H165.958C167.286 65.9999 168.393 64.8928 168.393 63.5642V22.1578C168.393 20.8293 167.286 19.7222 165.958 19.7222H117.466ZM37.7529 58.6929C34.9851 60.575 30.6673 61.5714 24.7995 61.5714H4.42849V22.9328H23.1389C26.0174 22.9328 28.453 23.1542 30.5566 23.7078C32.6601 24.1507 34.3208 24.9256 35.76 25.8113C37.0886 26.697 38.085 27.8042 38.7493 29.022C39.4136 30.2398 39.7457 31.6791 39.7457 33.1183C39.7457 35.1112 39.1921 36.7719 38.085 38.2111C36.9779 39.6504 35.3172 40.7575 33.103 41.4218C35.8708 41.9753 37.9743 43.0825 39.635 44.6324C41.1849 46.1824 41.9599 48.2859 41.9599 50.8323C41.8492 54.1537 40.5207 56.8108 37.7529 58.6929ZM61.9988 61.5714H54.0276V22.9328H61.9988V61.5714ZM163.079 55.8144C162.415 57.1429 161.308 58.3607 159.868 59.3572C158.429 60.3536 156.436 61.1285 154.111 61.7928C151.786 62.3464 148.797 62.6785 145.365 62.6785C143.372 62.6785 141.49 62.5678 139.608 62.2357C137.726 61.9035 135.955 61.5714 134.294 61.0178C132.633 60.4643 131.083 59.8 129.644 59.025C128.205 58.25 126.987 57.3643 125.991 56.3679L128.758 53.0466C130.862 54.8179 133.298 56.2572 136.065 57.1429C138.833 58.0286 141.933 58.5822 145.254 58.5822C149.019 58.5822 151.565 58.0286 153.115 57.0322C154.665 56.0358 155.44 54.5965 155.44 52.8251C155.44 51.3859 154.886 50.2787 153.669 49.2823C152.451 48.2859 150.347 47.4002 147.469 46.5145L136.951 43.1932C133.519 42.086 130.862 40.6468 129.09 38.9861C127.319 37.3254 126.433 35.1112 126.433 32.4541C126.433 31.1255 126.765 29.797 127.43 28.4684C128.094 27.2506 129.09 26.0328 130.419 25.1471C131.748 24.1507 133.519 23.3757 135.622 22.8221C137.726 22.2686 140.272 21.9364 143.262 21.9364C145.033 21.9364 146.804 22.0471 148.687 22.3793C150.458 22.7114 152.229 23.0435 153.779 23.5971C155.44 24.1507 156.99 24.8149 158.318 25.5899C159.758 26.3649 160.976 27.2506 161.972 28.247L159.204 31.5684C157.101 29.797 154.776 28.3577 152.119 27.472C149.461 26.5863 146.583 26.0328 143.151 26.0328C140.383 26.0328 138.28 26.4756 136.951 27.472C135.622 28.4684 134.847 29.5756 134.847 31.0148C134.847 31.7898 134.958 32.4541 135.18 33.0076C135.401 33.5612 135.844 34.1148 136.508 34.5576C137.062 35.0005 137.947 35.554 138.944 35.8862C139.94 36.329 141.158 36.7719 142.597 37.2147L153.004 40.5361C156.326 41.6432 158.983 42.9717 160.865 44.7431C162.747 46.5145 163.743 48.6181 163.743 51.2752C164.076 52.9358 163.743 54.4858 163.079 55.8144Z" fill="#1CA94A"/>
<path d="M106.948 8.09782C97.8696 7.21213 94.4375 16.6227 94.4375 16.6227C103.073 3.44791 113.701 17.2869 123.555 16.512C132.965 15.8477 136.73 6.54785 136.73 6.54785C125.105 22.0476 116.026 8.98352 106.948 8.09782Z" fill="#79C5EE"/>
<path d="M106.948 2.00847C97.8696 1.12277 94.4375 10.5333 94.4375 10.5333C103.073 -2.64145 113.701 11.1976 123.555 10.4226C132.965 9.75832 136.73 0.458496 136.73 0.458496C125.105 15.8475 116.026 2.89417 106.948 2.00847Z" fill="#79C5EE"/>
</svg>
