<svg width="427" height="52" viewBox="0 0 427 52" fill="none" xmlns="http://www.w3.org/2000/svg">
<rect x="348" y="29" width="22" height="22" rx="2" stroke="white" stroke-width="2"/>
<rect x="376" y="29" width="22" height="22" rx="2" stroke="white" stroke-width="2"/>
<rect x="376" y="1" width="22" height="22" rx="2" stroke="white" stroke-width="2"/>
<rect x="404" y="29" width="22" height="22" rx="2" stroke="white" stroke-width="2"/>
<path d="M353.293 39.2929C352.902 39.6834 352.902 40.3166 353.293 40.7071L359.657 47.0711C360.047 47.4616 360.681 47.4616 361.071 47.0711C361.462 46.6805 361.462 46.0474 361.071 45.6569L355.414 40L361.071 34.3431C361.462 33.9526 361.462 33.3195 361.071 32.9289C360.681 32.5384 360.047 32.5384 359.657 32.9289L353.293 39.2929ZM364 39L354 39L354 41L364 41L364 39Z" fill="white"/>
<path d="M420.707 40.7071C421.098 40.3166 421.098 39.6834 420.707 39.2929L414.343 32.9289C413.953 32.5384 413.319 32.5384 412.929 32.9289C412.538 33.3195 412.538 33.9526 412.929 34.3431L418.586 40L412.929 45.6569C412.538 46.0474 412.538 46.6805 412.929 47.0711C413.319 47.4616 413.953 47.4616 414.343 47.0711L420.707 40.7071ZM410 41H420V39H410V41Z" fill="white"/>
<path d="M386.293 45.7071C386.683 46.0976 387.317 46.0976 387.707 45.7071L394.071 39.3431C394.462 38.9526 394.462 38.3195 394.071 37.9289C393.681 37.5384 393.047 37.5384 392.657 37.9289L387 43.5858L381.343 37.9289C380.953 37.5384 380.319 37.5384 379.929 37.9289C379.538 38.3195 379.538 38.9526 379.929 39.3431L386.293 45.7071ZM386 35L386 45L388 45L388 35L386 35Z" fill="white"/>
<path d="M387.707 6.29289C387.317 5.90237 386.683 5.90237 386.293 6.29289L379.929 12.6569C379.538 13.0474 379.538 13.6805 379.929 14.0711C380.319 14.4616 380.953 14.4616 381.343 14.0711L387 8.41421L392.657 14.0711C393.047 14.4616 393.681 14.4616 394.071 14.0711C394.462 13.6805 394.462 13.0474 394.071 12.6569L387.707 6.29289ZM388 17L388 7L386 7L386 17L388 17Z" fill="white"/>
<path d="M10.384 27.304H11.92L11.824 31.528H10.032V29H1.888V31.528H0.096L0 27.304H0.96C2.25067 25.6507 2.896 23.288 2.896 20.216V17.8H10.384V27.304ZM8.336 19.496H4.944V20.84C4.944 22.184 4.83733 23.352 4.624 24.344C4.41067 25.3253 4 26.312 3.392 27.304H8.336V19.496ZM12.708 29V27.688C13.0813 27.752 13.3907 27.736 13.636 27.64C13.892 27.5333 14.084 27.3467 14.212 27.08C14.34 26.8133 14.4307 26.5307 14.484 26.232C14.5373 25.9333 14.5693 25.5653 14.58 25.128V23.528V20.872H20.804V29H18.884V22.184H16.372V23.704C16.372 24.4187 16.356 25 16.324 25.448C16.3027 25.8853 16.2227 26.392 16.084 26.968C15.956 27.544 15.7693 27.9813 15.524 28.28C15.2787 28.5787 14.916 28.808 14.436 28.968C13.9667 29.128 13.3907 29.1387 12.708 29ZM26.8651 25.976L24.6571 29H22.5451L24.9451 25.96C24.6998 25.9387 24.4651 25.8907 24.2411 25.816C24.0171 25.7307 23.7825 25.6027 23.5371 25.432C23.2918 25.2613 23.0945 25.016 22.9451 24.696C22.7958 24.3653 22.7211 23.9813 22.7211 23.544C22.7211 23.0427 22.8065 22.616 22.9771 22.264C23.1585 21.9013 23.3611 21.6347 23.5851 21.464C23.8091 21.2933 24.0758 21.16 24.3851 21.064C24.7051 20.9573 24.9451 20.8987 25.1051 20.888C25.2758 20.8773 25.4518 20.872 25.6331 20.872H30.0331V29H28.1131V25.976H26.8651ZM28.1131 22.184H26.4171C25.8198 22.184 25.3825 22.28 25.1051 22.472C24.8385 22.664 24.7051 22.9947 24.7051 23.464C24.7051 23.88 24.8385 24.184 25.1051 24.376C25.3718 24.568 25.8091 24.664 26.4171 24.664H28.1131V22.184ZM37.9939 25.384V29H36.0739V20.872H37.9939V24.072H41.5139V20.872H43.4339V29H41.5139V25.384H37.9939ZM47.2021 23.384H45.3781C45.3568 22.5733 45.6555 21.9013 46.2741 21.368C46.8928 20.824 47.8315 20.552 49.0901 20.552C49.7088 20.552 50.2475 20.6267 50.7061 20.776C51.1648 20.9147 51.5115 21.0853 51.7461 21.288C51.9808 21.48 52.1621 21.72 52.2901 22.008C52.4288 22.296 52.5141 22.5467 52.5461 22.76C52.5781 22.9627 52.5941 23.1867 52.5941 23.432V26.68C52.5941 27.1067 52.6315 27.384 52.7061 27.512C52.7808 27.64 52.9781 27.6933 53.2981 27.672V29C52.9675 29.032 52.6848 29.048 52.4501 29.048C51.5221 29.048 50.9941 28.696 50.8661 27.992C50.2368 28.792 49.3355 29.192 48.1621 29.192C47.6288 29.192 47.1648 29.128 46.7701 29C46.3755 28.8827 46.0768 28.7387 45.8741 28.568C45.6821 28.3973 45.5275 28.1947 45.4101 27.96C45.3035 27.7147 45.2341 27.512 45.2021 27.352C45.1808 27.192 45.1701 27.0213 45.1701 26.84C45.1701 26.4453 45.2448 26.0987 45.3941 25.8C45.5541 25.4907 45.7461 25.256 45.9701 25.096C46.2048 24.936 46.4075 24.8187 46.5781 24.744C46.7488 24.6587 46.9035 24.6 47.0421 24.568C47.2235 24.5147 47.4155 24.472 47.6181 24.44C47.8208 24.408 48.0501 24.376 48.3061 24.344C48.5621 24.312 48.7701 24.2853 48.9301 24.264C49.0155 24.2427 49.1435 24.2267 49.3141 24.216C49.4955 24.1947 49.6288 24.1733 49.7141 24.152C49.9381 24.12 50.0875 24.0987 50.1621 24.088C50.2368 24.0773 50.3275 24.0453 50.4341 23.992C50.5408 23.928 50.6048 23.8427 50.6261 23.736C50.6581 23.6187 50.6741 23.464 50.6741 23.272C50.6741 22.3333 50.1461 21.864 49.0901 21.864C48.4288 21.864 47.9435 22.0133 47.6341 22.312C47.3248 22.6 47.1808 22.9573 47.2021 23.384ZM50.6741 25.384V25.096C50.4821 25.2347 50.0235 25.3467 49.2981 25.432C48.9568 25.4747 48.7061 25.512 48.5461 25.544C48.3968 25.5653 48.2101 25.608 47.9861 25.672C47.7728 25.736 47.6181 25.8107 47.5221 25.896C47.4261 25.9813 47.3408 26.0987 47.2661 26.248C47.1915 26.3973 47.1541 26.5733 47.1541 26.776C47.1541 27.1067 47.2555 27.3733 47.4581 27.576C47.6715 27.7787 47.9915 27.88 48.4181 27.88C48.6955 27.88 48.9515 27.848 49.1861 27.784C49.4208 27.72 49.6555 27.6027 49.8901 27.432C50.1355 27.2613 50.3275 27.0053 50.4661 26.664C50.6048 26.312 50.6741 25.8853 50.6741 25.384ZM54.9645 20.872H59.3485C61.1085 20.872 61.9885 21.528 61.9885 22.84C61.9885 23.3947 61.8285 23.832 61.5085 24.152C61.1885 24.4613 60.8258 24.6533 60.4205 24.728V24.76C61.6578 25.0267 62.2765 25.7253 62.2765 26.856C62.2765 27.624 61.9992 28.1733 61.4445 28.504C60.8898 28.8347 60.1805 29 59.3165 29H54.9645V20.872ZM56.8845 22.184V24.136H58.5325C59.0765 24.136 59.4605 24.0347 59.6845 23.832C59.9085 23.6293 60.0205 23.3893 60.0205 23.112C60.0205 22.4933 59.5938 22.184 58.7405 22.184H56.8845ZM56.8845 25.448V27.688H58.7085C59.7645 27.688 60.2925 27.3307 60.2925 26.616C60.2925 25.8373 59.7432 25.448 58.6445 25.448H56.8845ZM66.072 26.728L69.88 20.872H71.992V29H70.072V23.144L66.264 29H64.152V20.872H66.072V26.728ZM76.2126 22.184V29H74.2926V20.872H80.2126V22.184H76.2126ZM82.7803 23.384H80.9563C80.9349 22.5733 81.2336 21.9013 81.8523 21.368C82.4709 20.824 83.4096 20.552 84.6683 20.552C85.2869 20.552 85.8256 20.6267 86.2843 20.776C86.7429 20.9147 87.0896 21.0853 87.3243 21.288C87.5589 21.48 87.7403 21.72 87.8683 22.008C88.0069 22.296 88.0923 22.5467 88.1243 22.76C88.1563 22.9627 88.1723 23.1867 88.1723 23.432V26.68C88.1723 27.1067 88.2096 27.384 88.2843 27.512C88.3589 27.64 88.5563 27.6933 88.8763 27.672V29C88.5456 29.032 88.2629 29.048 88.0283 29.048C87.1003 29.048 86.5723 28.696 86.4443 27.992C85.8149 28.792 84.9136 29.192 83.7403 29.192C83.2069 29.192 82.7429 29.128 82.3483 29C81.9536 28.8827 81.6549 28.7387 81.4523 28.568C81.2603 28.3973 81.1056 28.1947 80.9883 27.96C80.8816 27.7147 80.8123 27.512 80.7803 27.352C80.7589 27.192 80.7483 27.0213 80.7483 26.84C80.7483 26.4453 80.8229 26.0987 80.9723 25.8C81.1323 25.4907 81.3243 25.256 81.5483 25.096C81.7829 24.936 81.9856 24.8187 82.1562 24.744C82.3269 24.6587 82.4816 24.6 82.6203 24.568C82.8016 24.5147 82.9936 24.472 83.1963 24.44C83.3989 24.408 83.6283 24.376 83.8843 24.344C84.1403 24.312 84.3483 24.2853 84.5083 24.264C84.5936 24.2427 84.7216 24.2267 84.8923 24.216C85.0736 24.1947 85.2069 24.1733 85.2923 24.152C85.5163 24.12 85.6656 24.0987 85.7403 24.088C85.8149 24.0773 85.9056 24.0453 86.0123 23.992C86.1189 23.928 86.1829 23.8427 86.2043 23.736C86.2363 23.6187 86.2523 23.464 86.2523 23.272C86.2523 22.3333 85.7243 21.864 84.6683 21.864C84.0069 21.864 83.5216 22.0133 83.2123 22.312C82.9029 22.6 82.7589 22.9573 82.7803 23.384ZM86.2523 25.384V25.096C86.0603 25.2347 85.6016 25.3467 84.8763 25.432C84.5349 25.4747 84.2843 25.512 84.1243 25.544C83.9749 25.5653 83.7883 25.608 83.5643 25.672C83.3509 25.736 83.1963 25.8107 83.1003 25.896C83.0043 25.9813 82.9189 26.0987 82.8443 26.248C82.7696 26.3973 82.7323 26.5733 82.7323 26.776C82.7323 27.1067 82.8336 27.3733 83.0363 27.576C83.2496 27.7787 83.5696 27.88 83.9963 27.88C84.2736 27.88 84.5296 27.848 84.7643 27.784C84.9989 27.72 85.2336 27.6027 85.4683 27.432C85.7136 27.2613 85.9056 27.0053 86.0443 26.664C86.1829 26.312 86.2523 25.8853 86.2523 25.384ZM92.4626 27.688H96.1106V20.872H98.0306V27.688H99.4386L99.2786 31.112H97.6786V29H90.5426V20.872H92.4626V27.688ZM102.572 26.728L106.38 20.872H108.492V29H106.572V23.144L102.764 29H100.652V20.872H102.572V26.728ZM112.713 26.728L116.521 20.872H118.633V29H116.713V23.144L112.905 29H110.793V20.872H112.713V26.728ZM126.588 26.728L130.396 20.872H132.508V29H130.588V23.144L126.78 29H124.668V20.872H126.588V26.728ZM140.44 26.024H142.264C142.232 26.2907 142.179 26.5573 142.104 26.824C142.03 27.0907 141.896 27.3787 141.704 27.688C141.523 27.9973 141.299 28.2693 141.032 28.504C140.766 28.7387 140.403 28.9307 139.944 29.08C139.496 29.24 138.99 29.32 138.424 29.32C137.08 29.32 136.062 28.9253 135.368 28.136C134.686 27.3467 134.344 26.2853 134.344 24.952C134.344 24.1627 134.451 23.48 134.664 22.904C134.888 22.328 135.144 21.896 135.432 21.608C135.731 21.3093 136.088 21.0747 136.504 20.904C136.92 20.7333 137.262 20.632 137.528 20.6C137.795 20.568 138.072 20.552 138.36 20.552C139.534 20.552 140.446 20.8453 141.096 21.432C141.758 22.008 142.136 22.7227 142.232 23.576H140.408C140.366 23.1067 140.179 22.7067 139.848 22.376C139.518 22.0347 139.059 21.864 138.472 21.864C137.086 21.864 136.392 22.8933 136.392 24.952C136.392 25.5493 136.462 26.0613 136.6 26.488C136.739 26.9147 136.92 27.2347 137.144 27.448C137.379 27.6507 137.614 27.7947 137.848 27.88C138.083 27.9653 138.328 28.008 138.584 28.008C139.214 28.008 139.672 27.8053 139.96 27.4C140.248 26.984 140.408 26.5253 140.44 26.024ZM145.916 22.184V29H143.996V20.872H151.484V29H149.564V22.184H145.916ZM155.761 20.872C156.273 20.6587 156.859 20.552 157.521 20.552C158.182 20.552 158.769 20.6587 159.281 20.872C159.793 21.0747 160.198 21.3307 160.497 21.64C160.795 21.9493 161.041 22.312 161.233 22.728C161.425 23.144 161.553 23.528 161.617 23.88C161.681 24.232 161.713 24.584 161.713 24.936C161.713 25.288 161.681 25.64 161.617 25.992C161.553 26.344 161.425 26.728 161.233 27.144C161.041 27.56 160.795 27.9227 160.497 28.232C160.198 28.5413 159.793 28.7973 159.281 29C158.769 29.2133 158.182 29.32 157.521 29.32C156.859 29.32 156.273 29.2133 155.761 29C155.249 28.7973 154.843 28.5413 154.545 28.232C154.246 27.9227 154.001 27.5653 153.809 27.16C153.617 26.744 153.489 26.36 153.425 26.008C153.361 25.6453 153.329 25.288 153.329 24.936C153.329 24.584 153.361 24.232 153.425 23.88C153.489 23.528 153.617 23.144 153.809 22.728C154.001 22.312 154.246 21.9493 154.545 21.64C154.843 21.3307 155.249 21.0747 155.761 20.872ZM158.161 21.96C157.958 21.896 157.745 21.864 157.521 21.864C157.297 21.864 157.083 21.896 156.881 21.96C156.678 22.024 156.449 22.152 156.193 22.344C155.947 22.536 155.75 22.856 155.601 23.304C155.451 23.7413 155.377 24.2853 155.377 24.936C155.377 25.5867 155.451 26.136 155.601 26.584C155.75 27.0213 155.947 27.336 156.193 27.528C156.449 27.72 156.678 27.848 156.881 27.912C157.083 27.976 157.297 28.008 157.521 28.008C157.745 28.008 157.958 27.976 158.161 27.912C158.363 27.848 158.587 27.72 158.833 27.528C159.089 27.336 159.291 27.0213 159.441 26.584C159.59 26.136 159.665 25.5867 159.665 24.936C159.665 24.2853 159.59 23.7413 159.441 23.304C159.291 22.856 159.089 22.536 158.833 22.344C158.587 22.152 158.363 22.024 158.161 21.96ZM162.614 29V27.688C162.988 27.752 163.297 27.736 163.542 27.64C163.798 27.5333 163.99 27.3467 164.118 27.08C164.246 26.8133 164.337 26.5307 164.39 26.232C164.444 25.9333 164.476 25.5653 164.486 25.128V23.528V20.872H170.71V29H168.79V22.184H166.278V23.704C166.278 24.4187 166.262 25 166.23 25.448C166.209 25.8853 166.129 26.392 165.99 26.968C165.862 27.544 165.676 27.9813 165.43 28.28C165.185 28.5787 164.822 28.808 164.342 28.968C163.873 29.128 163.297 29.1387 162.614 29ZM173.011 20.872H174.931V24.008H176.803C177.081 24.008 177.315 24.0133 177.507 24.024C177.71 24.0347 177.955 24.0667 178.243 24.12C178.542 24.1627 178.787 24.2427 178.979 24.36C179.182 24.4667 179.379 24.6107 179.571 24.792C179.774 24.9627 179.923 25.1973 180.019 25.496C180.126 25.784 180.179 26.1253 180.179 26.52C180.179 28.1733 179.203 29 177.251 29H173.011V20.872ZM174.931 25.32V27.688H176.787C177.203 27.688 177.539 27.592 177.795 27.4C178.062 27.1973 178.195 26.888 178.195 26.472C178.195 25.704 177.726 25.32 176.787 25.32H174.931ZM181.059 26.456H182.883C182.883 26.8507 183.022 27.208 183.299 27.528C183.587 27.848 184.088 28.008 184.803 28.008C185.507 28.008 185.992 27.8747 186.259 27.608C186.536 27.3413 186.675 27.032 186.675 26.68C186.675 25.9227 186.136 25.544 185.059 25.544H183.971V24.232H184.851C185.374 24.232 185.742 24.12 185.955 23.896C186.179 23.672 186.291 23.4 186.291 23.08C186.291 22.7387 186.163 22.4507 185.907 22.216C185.651 21.9813 185.256 21.864 184.723 21.864C183.688 21.864 183.155 22.3493 183.123 23.32H181.299C181.31 22.9893 181.363 22.68 181.459 22.392C181.566 22.104 181.736 21.8107 181.971 21.512C182.216 21.2133 182.579 20.9787 183.059 20.808C183.55 20.6373 184.142 20.552 184.835 20.552C186.019 20.552 186.894 20.792 187.459 21.272C188.024 21.7413 188.307 22.328 188.307 23.032C188.307 23.5333 188.174 23.928 187.907 24.216C187.64 24.504 187.315 24.6853 186.931 24.76V24.792C188.083 25.016 188.659 25.624 188.659 26.616C188.659 26.9573 188.6 27.272 188.483 27.56C188.376 27.848 188.19 28.136 187.923 28.424C187.667 28.7013 187.267 28.92 186.723 29.08C186.19 29.24 185.544 29.32 184.787 29.32C184.179 29.32 183.64 29.2507 183.171 29.112C182.712 28.9733 182.355 28.808 182.099 28.616C181.843 28.4133 181.635 28.1733 181.475 27.896C181.315 27.6187 181.208 27.3733 181.155 27.16C181.102 26.936 181.07 26.7013 181.059 26.456ZM191.024 31.928V30.616C191.28 30.68 191.525 30.712 191.76 30.712C192.122 30.712 192.389 30.6107 192.56 30.408C192.741 30.216 192.901 29.8693 193.04 29.368L193.152 28.984L189.456 20.872H191.76L194.208 26.92L196.08 20.872H198L194.896 29.704C194.661 30.3867 194.432 30.8667 194.208 31.144C193.738 31.7307 193.077 32.024 192.224 32.024C191.808 32.024 191.408 31.992 191.024 31.928ZM201.664 22.184H198.88V20.872H206.368V22.184H203.584V29H201.664V22.184ZM213.13 26.648H214.954C214.89 26.9573 214.788 27.2507 214.65 27.528C214.522 27.7947 214.319 28.0773 214.042 28.376C213.775 28.664 213.386 28.8933 212.874 29.064C212.362 29.2347 211.764 29.32 211.082 29.32C210.826 29.32 210.57 29.304 210.314 29.272C210.068 29.2507 209.727 29.16 209.29 29C208.852 28.84 208.474 28.6267 208.154 28.36C207.844 28.0827 207.567 27.6613 207.322 27.096C207.076 26.52 206.954 25.848 206.954 25.08C206.954 23.6613 207.3 22.552 207.994 21.752C208.698 20.952 209.732 20.552 211.098 20.552C213.626 20.552 214.948 22.024 215.066 24.968C215.066 25.032 215.066 25.112 215.066 25.208C215.076 25.304 215.082 25.3787 215.082 25.432H209.002C209.002 25.72 209.039 26.0027 209.114 26.28C209.188 26.5573 209.306 26.8347 209.466 27.112C209.626 27.3787 209.86 27.5973 210.17 27.768C210.479 27.928 210.836 28.008 211.242 28.008C211.7 28.008 212.111 27.8907 212.474 27.656C212.847 27.4107 213.066 27.0747 213.13 26.648ZM209.002 24.12H213.05C213.05 23.896 213.023 23.672 212.97 23.448C212.927 23.224 212.842 22.984 212.714 22.728C212.586 22.472 212.383 22.264 212.106 22.104C211.839 21.944 211.508 21.864 211.114 21.864C210.42 21.864 209.887 22.0933 209.514 22.552C209.151 23.0107 208.98 23.5333 209.002 24.12ZM217.462 23.032V20.872H219.574V23.032H217.462ZM217.462 29V26.84H219.574V29H217.462Z" fill="white"/>
<path d="M302.072 26.728L305.88 20.872H307.992V29H306.072V23.144L302.264 29H300.152V20.872H302.072V26.728ZM309.349 29V27.688C309.722 27.752 310.031 27.736 310.277 27.64C310.533 27.5333 310.725 27.3467 310.853 27.08C310.981 26.8133 311.071 26.5307 311.125 26.232C311.178 25.9333 311.21 25.5653 311.221 25.128V23.528V20.872H317.445V29H315.525V22.184H313.013V23.704C313.013 24.4187 312.997 25 312.965 25.448C312.943 25.8853 312.863 26.392 312.725 26.968C312.597 27.544 312.41 27.9813 312.165 28.28C311.919 28.5787 311.557 28.808 311.077 28.968C310.607 29.128 310.031 29.1387 309.349 29ZM321.666 26.728L325.474 20.872H327.586V29H325.666V23.144L321.858 29H319.746V20.872H321.666V26.728Z" fill="white"/>
</svg>
