<svg width="181" height="59" viewBox="0 0 181 59" fill="none" xmlns="http://www.w3.org/2000/svg">
<g clip-path="url(#clip0)">
<path d="M80 0H2C0.89543 0 0 0.89543 0 2V57C0 58.1046 0.89543 59 2 59H80C81.1046 59 82 58.1046 82 57V2C82 0.89543 81.1046 0 80 0Z" fill="#FC6847"/>
<path d="M7.528 51.784C7.528 52.424 8.04 53 8.744 53H33.96C34.664 53 35.176 52.424 35.176 51.784V49.928C35.176 49.288 34.664 48.712 33.96 48.712H12.456V32.392H30.824C31.464 32.392 32.04 31.88 32.04 31.176V29.32C32.04 28.68 31.464 28.104 30.824 28.104H12.456V12.488H33.96C34.664 12.488 35.176 11.912 35.176 11.272V9.416C35.176 8.776 34.664 8.2 33.96 8.2H8.744C8.04 8.2 7.528 8.776 7.528 9.416V51.784ZM58.139 51.784C58.139 52.424 58.715 53 59.355 53H61.787C62.427 53 63.003 52.424 63.003 51.784V12.488H74.139C74.843 12.488 75.355 11.912 75.355 11.272V9.416C75.355 8.776 74.843 8.2 74.139 8.2H47.003C46.299 8.2 45.787 8.776 45.787 9.416V11.272C45.787 11.912 46.299 12.488 47.003 12.488H58.139V51.784Z" fill="white"/>
<path d="M88.7655 51.784C88.7655 52.424 89.3415 53 89.9815 53H92.2215C92.9255 53 93.4375 52.424 93.4375 51.784V16.968H93.5015L122.878 53.64H124.03C124.67 53.64 125.246 53.128 125.246 52.488V9.416C125.246 8.776 124.67 8.2 124.03 8.2H121.79C121.086 8.2 120.574 8.776 120.574 9.416V43.528H120.446L91.5815 7.56H89.9815C89.3415 7.56 88.7655 8.072 88.7655 8.712V51.784V51.784ZM139.672 53H142.232C142.808 53 143.192 52.616 143.32 52.296L147.992 41.736H170.712L175.448 52.296C175.576 52.616 175.96 53 176.536 53H179.096C180.056 53 180.568 52.168 180.184 51.336L160.856 8.264C160.664 7.88 160.344 7.56 159.768 7.56H159.128C158.552 7.56 158.232 7.88 158.04 8.264L138.584 51.336C138.2 52.168 138.712 53 139.672 53ZM149.784 37.768L159.128 16.776H159.64C162.776 23.752 165.848 30.792 168.984 37.768H149.784Z" fill="#FC6847"/>
</g>
<defs>
<clipPath id="clip0">
<rect width="180.312" height="59" fill="white"/>
</clipPath>
</defs>
</svg>
