<svg width="150" height="75" viewBox="0 0 150 75" fill="none" xmlns="http://www.w3.org/2000/svg">
<path fill-rule="evenodd" clip-rule="evenodd" d="M34.0335 6.40589C46.2368 -1.75959 58.4401 -2.19103 70.6434 5.52702C70.5037 5.8546 69.9836 7.20486 69.0909 7.70821C57.4154 1.49222 47.1684 3.70537 38.8931 9.37006C38.4506 22.1536 43.4965 32.1407 52.9828 38.3567C53.4253 30.9023 56.9652 22.569 67.6858 16.2971C57.1981 20.316 53.4563 27.4428 52.5636 32.8438C48.5191 23.2402 54.3879 17.7353 62.2672 14.3796C67.2588 12.5659 70.5658 11.4953 71.9787 6.41388C72.4134 22.5051 66.2108 34.4417 53.0061 42C39.9178 34.3698 33.4746 22.577 34.0335 6.40589Z" fill="#78BC61"/>
<path d="M10.65 74.3C13.425 74.3 15.65 73.375 17.325 71.55V63.975H16.175V71.125C14.85 72.5 13 73.2 10.65 73.2C8.525 73.2 6.725 72.45 5.25 70.95C3.775 69.45 3.05 67.55 3.05 65.275C3.05 62.975 3.775 61.075 5.25 59.575C6.725 58.05 8.55 57.3 10.725 57.3C12.825 57.3 14.7 57.95 16.35 59.25V58.025C14.8 56.8 12.9 56.2 10.65 56.2C8.175 56.2 6.075 57.05 4.4 58.775C2.725 60.5 1.875 62.65 1.875 65.25C1.875 67.875 2.725 70.025 4.4 71.75C6.075 73.45 8.175 74.3 10.65 74.3ZM27.0807 74V65.775H33.3307L39.0557 74H40.4057L34.6557 65.7C37.4307 65.375 39.0057 63.6 39.0057 61.1C39.0057 58.325 37.0057 56.5 33.6807 56.5H25.9307V74H27.0807ZM27.0807 57.575H33.5807C36.2807 57.575 37.8557 58.9 37.8557 61.125C37.8557 63.425 36.2807 64.7 33.5807 64.7H27.0807V57.575ZM60.1889 74V72.925H49.2389V65.125H57.9639V64.05H49.2389V57.575H59.7889V56.5H48.0889V74H60.1889ZM79.8568 74V72.925H68.9068V65.125H77.6318V64.05H68.9068V57.575H79.4568V56.5H67.7568V74H79.8568ZM88.5748 74V58.475L100.525 74H101.525V56.5H100.375V72L88.4498 56.5H87.4248V74H88.5748ZM113.16 70.925C111.71 69.4 110.985 67.525 110.985 65.25C110.985 62.975 111.71 61.1 113.16 59.575C114.61 58.05 116.385 57.3 118.51 57.3C120.635 57.3 122.41 58.05 123.86 59.575C125.31 61.1 126.035 62.975 126.035 65.25C126.035 67.525 125.31 69.4 123.86 70.925C122.41 72.45 120.635 73.2 118.51 73.2C116.385 73.2 114.61 72.45 113.16 70.925ZM118.51 74.3C120.985 74.3 123.035 73.45 124.71 71.725C126.385 70 127.21 67.825 127.21 65.25C127.21 62.675 126.385 60.525 124.71 58.8C123.035 57.075 120.985 56.2 118.51 56.2C116.035 56.2 113.96 57.075 112.285 58.8C110.635 60.525 109.81 62.675 109.81 65.25C109.81 67.85 110.635 70 112.285 71.725C113.96 73.45 116.035 74.3 118.51 74.3ZM134.077 74L140.502 65.425L146.927 74H148.352L141.202 64.475L147.177 56.5H145.802L140.527 63.55L135.252 56.5H133.852L139.802 64.5L132.727 74H134.077Z" fill="#353535"/>
</svg>
