<svg width="166" height="81" viewBox="0 0 166 81" fill="none" xmlns="http://www.w3.org/2000/svg">
<path fill-rule="evenodd" clip-rule="evenodd" d="M75.6439 11.7801L80.3688 19.0584C80.2494 19.2731 80.1374 19.4955 80.0255 19.7103L75.099 12.7542C75.2782 12.4244 75.4648 12.1023 75.6439 11.7801Z" fill="#CB9E5A"/>
<path fill-rule="evenodd" clip-rule="evenodd" d="M72.2999 17.9693L77.7115 24.2582C77.5921 24.496 77.4801 24.7414 77.3682 24.9791L71.6132 19.3268C71.8371 18.882 72.0685 18.4218 72.2999 17.9693Z" fill="#CB9E5A"/>
<path fill-rule="evenodd" clip-rule="evenodd" d="M69.4784 23.8747L75.6439 28.8905C75.5095 29.2126 75.3827 29.5347 75.2558 29.8645L68.7693 25.5313C69.0007 24.9868 69.2395 24.4346 69.4784 23.8747Z" fill="#CB9E5A"/>
<path fill-rule="evenodd" clip-rule="evenodd" d="M66.7166 31.3677L74.0689 33.3464C73.9719 33.6839 73.8823 34.0213 73.8002 34.3588L66.2015 33.5458C66.3359 32.8556 66.5076 32.1193 66.7166 31.3677Z" fill="#CB9E5A"/>
<path fill-rule="evenodd" clip-rule="evenodd" d="M66 38.5386L73.5614 37.7026C73.6136 38.1014 73.6808 38.4925 73.7778 38.876L66.4777 41.0925C66.2613 40.2642 66.097 39.4129 66 38.5386Z" fill="#CB9E5A"/>
<path fill-rule="evenodd" clip-rule="evenodd" d="M68.4707 45.7631L74.89 41.5756C75.1811 42.0665 75.517 42.5266 75.8902 42.9561L70.2397 48.1866C69.5829 47.4274 68.9932 46.6221 68.4707 45.7631Z" fill="#CB9E5A"/>
<path fill-rule="evenodd" clip-rule="evenodd" d="M77.831 44.651L74.0615 51.4461C75.1139 52.1057 76.2411 52.6502 77.4279 53.072L79.8836 45.6711C79.1521 45.418 78.4654 45.0729 77.831 44.651Z" fill="#CB9E5A"/>
<path fill-rule="evenodd" clip-rule="evenodd" d="M81.7423 46.1082L81.0705 53.8926C81.6825 53.9617 82.3095 54 82.944 54C83.5859 54 84.2204 53.9617 84.8474 53.8926L84.3025 46.0852C83.8621 46.1542 83.4068 46.1849 82.944 46.1849C82.5335 46.1926 82.1304 46.1619 81.7423 46.1082Z" fill="#CB9E5A"/>
<path fill-rule="evenodd" clip-rule="evenodd" d="M85.5565 45.8091L88.1541 53.164C89.4977 52.7192 90.7666 52.1133 91.9385 51.3617L87.96 44.6971C87.2285 45.1802 86.4149 45.556 85.5565 45.8091Z" fill="#CB9E5A"/>
<path fill-rule="evenodd" clip-rule="evenodd" d="M89.0349 43.8994L94.6406 49.2297C95.7528 48.1483 96.7232 46.9212 97.5218 45.5714L90.8861 41.7367C90.3785 42.5496 89.7515 43.2782 89.0349 43.8994Z" fill="#CB9E5A"/>
<path fill-rule="evenodd" clip-rule="evenodd" d="M91.5355 40.5173L98.5519 43.539C99.276 41.8594 99.7462 40.0418 99.9179 38.1321L92.3565 37.2424C92.2744 38.4005 91.9908 39.5049 91.5355 40.5173Z" fill="#CB9E5A"/>
<path fill-rule="evenodd" clip-rule="evenodd" d="M92.3939 36.4755L100 36.6826C100 36.6135 100 36.5445 100 36.4755C100 26.7968 86.7956 5.64465 82.944 0L82.9291 14.4798C84.2577 16.7729 85.5416 19.0967 86.7508 21.4589C88.2959 24.4576 89.7813 27.5867 90.9532 30.7618C91.4981 32.2497 92.3939 34.8726 92.3939 36.4755Z" fill="#CB9E5A"/>
<path d="M11.4599 80.7205H12.6592V72.4365V64.2033H11.4599V71.8774H1.22595V64.2033H0V71.8774V80.7205H1.22595V73.0463H11.4599V80.7205Z" fill="#1F1F1F"/>
<path d="M30.8071 80.8984C32.3884 80.8984 33.8542 80.5257 35.2045 79.7803C36.5548 79.0179 37.6208 77.993 38.4026 76.7055C39.1844 75.4011 39.5752 73.9865 39.5752 72.4619C39.5752 70.9372 39.1844 69.5311 38.4026 68.2436C37.6208 66.9392 36.5548 65.9143 35.2045 65.1689C33.8542 64.4066 32.3884 64.0254 30.8071 64.0254C29.2258 64.0254 27.76 64.4066 26.4097 65.1689C25.0593 65.9143 23.9933 66.9392 23.2115 68.2436C22.4298 69.5311 22.0389 70.9372 22.0389 72.4619C22.0389 73.9865 22.4298 75.4011 23.2115 76.7055C23.9933 77.993 25.0593 79.0179 26.4097 79.7803C27.76 80.5257 29.2258 80.8984 30.8071 80.8984ZM30.8071 65.1943C32.1752 65.1943 33.4366 65.5247 34.5915 66.1854C35.7464 66.8291 36.6614 67.71 37.3366 68.8281C38.0117 69.9292 38.3493 71.1405 38.3493 72.4619C38.3493 73.7833 38.0117 75.003 37.3366 76.1211C36.6614 77.2222 35.7464 78.1031 34.5915 78.7638C33.4366 79.4076 32.1752 79.7294 30.8071 79.7294C29.439 79.7294 28.1775 79.4076 27.0226 78.7638C25.8678 78.1031 24.9439 77.2222 24.2509 76.1211C23.5758 75.003 23.2382 73.7833 23.2382 72.4619C23.2382 71.1405 23.5758 69.9292 24.2509 68.8281C24.9439 67.71 25.8678 66.8291 27.0226 66.1854C28.1775 65.5247 29.439 65.1943 30.8071 65.1943Z" fill="#1F1F1F"/>
<path d="M58.9963 80.7205L51.8006 72.3857H53.9326C55.2474 72.3857 56.3134 72.2247 57.1307 71.9028C57.7348 71.6318 58.259 71.2252 58.7032 70.6831C59.1473 70.1241 59.3694 69.5142 59.3694 68.8535C59.3694 68.2606 59.1829 67.7015 58.8098 67.1764C58.4366 66.6343 57.9036 66.1938 57.2107 65.855C56.5178 65.5162 55.7182 65.3468 54.8121 65.3468H49.9616V80.7205H48.7623V64.2033H54.8121C55.6294 64.2033 56.3934 64.3303 57.1041 64.5845C57.8148 64.8216 58.4366 65.1689 58.9697 65.6263C59.4849 66.0668 59.8758 66.5665 60.1423 67.1256C60.4266 67.6846 60.5687 68.2606 60.5687 68.8535C60.5687 69.7853 60.2756 70.6238 59.6892 71.3692C59.1029 72.0977 58.41 72.6228 57.6105 72.9447C57.0597 73.1819 56.5178 73.3343 55.9847 73.4021C55.4695 73.4529 54.9187 73.4783 54.3324 73.4783L60.5954 80.7205H58.9963Z" fill="#1F1F1F"/>
<path d="M72.0863 80.7205V64.2033H70.887V80.7205H72.0863Z" fill="#1F1F1F"/>
<path d="M94.0195 80.7205V79.577H85.0114L93.3798 64.2033H82.373V65.3722H91.381L82.9859 80.7205H94.0195Z" fill="#1F1F1F"/>
<path d="M110.817 80.8984C112.399 80.8984 113.864 80.5257 115.215 79.7803C116.565 79.0179 117.631 77.993 118.413 76.7055C119.195 75.4011 119.585 73.9865 119.585 72.4619C119.585 70.9372 119.195 69.5311 118.413 68.2436C117.631 66.9392 116.565 65.9143 115.215 65.1689C113.864 64.4066 112.399 64.0254 110.817 64.0254C109.236 64.0254 107.77 64.4066 106.42 65.1689C105.07 65.9143 104.004 66.9392 103.222 68.2436C102.44 69.5311 102.049 70.9372 102.049 72.4619C102.049 73.9865 102.44 75.4011 103.222 76.7055C104.004 77.993 105.07 79.0179 106.42 79.7803C107.77 80.5257 109.236 80.8984 110.817 80.8984ZM110.817 65.1943C112.185 65.1943 113.447 65.5247 114.602 66.1854C115.757 66.8291 116.672 67.71 117.347 68.8281C118.022 69.9292 118.359 71.1405 118.359 72.4619C118.359 73.7833 118.022 75.003 117.347 76.1211C116.672 77.2222 115.757 78.1031 114.602 78.7638C113.447 79.4076 112.185 79.7294 110.817 79.7294C109.449 79.7294 108.188 79.4076 107.033 78.7638C105.878 78.1031 104.954 77.2222 104.261 76.1211C103.586 75.003 103.248 73.7833 103.248 72.4619C103.248 71.1405 103.586 69.9292 104.261 68.8281C104.954 67.71 105.878 66.8291 107.033 66.1854C108.188 65.5247 109.449 65.1943 110.817 65.1943Z" fill="#1F1F1F"/>
<path d="M141.991 81V64.2033H140.792V77.6712L128.799 64V80.7205H129.998V67.3034L141.991 81Z" fill="#1F1F1F"/>
<path d="M166 64.2033V65.3722H159.151V80.7205H157.925V65.3722H151.049V64.2033H166Z" fill="#1F1F1F"/>
</svg>
