<svg width="130" height="45" viewBox="0 0 130 45" fill="none" xmlns="http://www.w3.org/2000/svg">
<path d="M0 24.1507C0 25.7269 0.287235 27.1877 0.861704 28.5523C1.43617 29.8978 2.22128 31.0703 3.21703 32.0698C4.21277 33.0693 5.40001 33.8573 6.74044 34.4147C8.08086 34.9722 9.53619 35.2797 11.0873 35.2797C12.6383 35.2797 14.0745 34.9914 15.4341 34.3955C16.7936 33.7997 17.9426 33.0116 18.9383 32.0313C19.9341 31.0319 20.7192 29.8594 21.2937 28.5139C21.8681 27.1684 22.1745 25.7076 22.1745 24.1507C22.1745 22.5938 21.8873 21.1523 21.2937 19.7876C20.7 18.4421 19.9149 17.2696 18.9383 16.2701C17.9426 15.2706 16.7745 14.4826 15.4341 13.9059C14.0936 13.3293 12.6383 13.0218 11.0873 13.0218C9.91917 13.0218 8.75108 13.2524 7.56384 13.733C6.37661 14.2135 5.43831 14.7709 4.7298 15.4244V5.79468H0V24.1507ZM5.22767 21.6712C5.57235 20.9024 6.01278 20.2104 6.58725 19.653C7.16172 19.0764 7.83193 18.6151 8.59789 18.2883C9.36385 17.9424 10.1873 17.7694 11.0681 17.7694C11.9298 17.7694 12.7532 17.9424 13.5383 18.2883C14.3043 18.6343 14.9936 19.0764 15.549 19.653C16.1234 20.2296 16.583 20.9024 16.9085 21.6712C17.2532 22.4401 17.4256 23.2666 17.4256 24.1507C17.4256 25.0157 17.2532 25.8422 16.9085 26.6302C16.5639 27.3991 16.1234 28.091 15.549 28.6484C14.9745 29.2251 14.3043 29.6864 13.5383 30.0131C12.7724 30.3591 11.949 30.5321 11.0681 30.5321C10.2064 30.5321 9.383 30.3591 8.59789 30.0131C7.83193 29.6672 7.14257 29.2251 6.58725 28.6484C6.01278 28.0718 5.5532 27.3991 5.22767 26.6302C4.88299 25.8614 4.71065 25.0349 4.71065 24.1507C4.71065 23.2858 4.88299 22.4593 5.22767 21.6712Z" fill="#010066"/>
<path d="M27.0381 34.7222H31.8445V14.2903H27.0381V34.7222Z" fill="#010066"/>
<path d="M37.3975 28.8211C37.9719 30.1665 38.7762 31.339 39.7719 32.3385C40.7677 33.338 41.9549 34.126 43.2953 34.7027C44.6358 35.2793 46.0911 35.5868 47.6422 35.5868C49.1932 35.5868 50.6294 35.2985 51.989 34.7027C53.3486 34.1068 54.4975 33.3188 55.4932 32.3385C56.489 31.339 57.2741 30.1665 57.8486 28.8211C58.423 27.4756 58.7294 26.0148 58.7294 24.4579C58.7294 22.901 58.423 21.4594 57.8486 20.1139C57.2549 18.7685 56.4698 17.596 55.4932 16.5965C54.4975 15.597 53.3294 14.8089 51.989 14.2323C50.6485 13.6557 49.1932 13.3481 47.6422 13.3481C46.0911 13.3481 44.6549 13.6365 43.2953 14.2323C41.9549 14.8282 40.7677 15.6162 39.7719 16.5965C38.7762 17.596 37.9719 18.7685 37.3975 20.1139C36.8038 21.4594 36.5166 22.9202 36.5166 24.4771C36.5166 26.034 36.823 27.4756 37.3975 28.8211ZM41.7634 21.9976C42.1081 21.2288 42.5677 20.5368 43.123 19.9794C43.6975 19.4028 44.3677 18.9415 45.1528 18.6147C45.9379 18.2687 46.7613 18.0957 47.623 18.0957C48.5039 18.0957 49.3273 18.2687 50.0932 18.6147C50.8783 18.9607 51.5485 19.4028 52.123 19.9794C52.6975 20.556 53.1571 21.2288 53.4826 21.9976C53.8273 22.7664 53.9996 23.5929 53.9996 24.4771C53.9996 25.342 53.8273 26.1686 53.4826 26.9566C53.1379 27.7255 52.6783 28.4174 52.123 28.9748C51.5485 29.5514 50.8783 30.0128 50.0932 30.3395C49.3081 30.6855 48.4847 30.8585 47.623 30.8585C46.7422 30.8585 45.9187 30.6855 45.1528 30.3395C44.3677 29.9935 43.6975 29.5514 43.123 28.9748C42.5485 28.3982 42.089 27.7255 41.7634 26.9566C41.4187 26.1878 41.2464 25.3613 41.2464 24.4771C41.2464 23.5929 41.4187 22.7664 41.7634 21.9976Z" fill="#010066"/>
<path d="M63.0006 34.722H67.807V22.6704C67.807 22.0938 67.9219 21.5364 68.1517 20.9982C68.3815 20.46 68.707 19.9602 69.1091 19.5374C69.5112 19.1145 69.99 18.7878 70.507 18.5379C71.0432 18.288 71.6176 18.1727 72.2304 18.1727C72.8623 18.1727 73.4368 18.288 73.973 18.5187C74.5091 18.7493 74.9879 19.0761 75.39 19.4797C75.7921 19.8833 76.1176 20.3639 76.3474 20.9021C76.5772 21.4403 76.6921 22.0361 76.6921 22.6512V34.722H81.5368V22.6704C81.5368 22.0745 81.6517 21.4979 81.8815 20.9597C82.1113 20.4215 82.4368 19.941 82.8389 19.5374C83.241 19.1337 83.7198 18.807 84.2368 18.5571C84.773 18.3072 85.3474 18.1919 85.9602 18.1919C86.5538 18.1919 87.1283 18.3072 87.6645 18.5571C88.2006 18.807 88.6794 19.1337 89.0815 19.5374C89.4836 19.941 89.8091 20.4215 90.0389 20.9597C90.2687 21.4979 90.3836 22.0745 90.3836 22.6704V34.722H95.19V22.6704C95.19 21.3826 94.9411 20.1909 94.4623 19.0568C93.9645 17.9228 93.3134 16.9425 92.49 16.0968C91.6666 15.2511 90.69 14.5784 89.5602 14.0978C88.4304 13.5981 87.224 13.3674 85.9602 13.3674C84.5815 13.3674 83.2793 13.6557 82.073 14.2132C80.8666 14.7706 79.8325 15.5202 78.9517 16.4812C78.1091 15.5202 77.1325 14.7706 76.0027 14.2132C74.8729 13.6557 73.6283 13.3674 72.2304 13.3674C71.3113 13.3674 70.4878 13.5404 69.7793 13.8672C69.0708 14.1939 68.4006 14.7321 67.7878 15.4625V14.3093H62.9814V34.722H63.0006Z" fill="#010066"/>
<path d="M100.915 34.7222H105.721V14.2903H100.915V34.7222Z" fill="#010066"/>
<path d="M123.76 34.7219H129.543L123.147 24.4963L129.543 14.2708H124.296L120.543 20.2869L116.79 14.2708H111.007L117.364 24.4963L111.007 34.7219H116.254L119.969 28.7057L123.76 34.7219Z" fill="#010066"/>
<path d="M0.804171 43.5445C0.402044 43.1408 0.191406 42.6027 0.191406 41.9684C0.191406 41.3341 0.402044 40.8151 0.804171 40.4115C1.22545 39.9886 1.72332 39.7964 2.35524 39.7964C2.89141 39.7964 3.33183 39.9309 3.69566 40.2V40.6613C3.31268 40.373 2.87226 40.2193 2.39353 40.2193C1.89566 40.2193 1.49353 40.3922 1.14885 40.719C0.823321 41.0458 0.650982 41.4878 0.650982 41.9876C0.650982 42.4873 0.804174 42.9294 1.12971 43.2562C1.45524 43.5829 1.85736 43.7559 2.33609 43.7559C2.83396 43.7559 3.23609 43.6021 3.52332 43.3138V41.68H3.96374V43.4868C3.59991 43.8905 3.0063 44.1596 2.33609 44.1596C1.72332 44.1596 1.2063 43.9481 0.804171 43.5445Z" fill="#9E9D9E"/>
<path d="M6.26172 43.4484V39.8733H6.70214V43.3523C6.70214 43.6406 6.83618 43.7752 7.08511 43.7752C7.18086 43.7752 7.2766 43.7559 7.37235 43.6983V44.0827C7.2766 44.1404 7.12341 44.1596 6.95107 44.1596C6.54895 44.1596 6.26172 43.9481 6.26172 43.4484Z" fill="#9E9D9E"/>
<path d="M10.6659 41.1033C11.1255 41.1033 11.5085 41.257 11.7957 41.5646C12.0829 41.8529 12.2361 42.2181 12.2361 42.641C12.2361 43.0638 12.0829 43.429 11.7957 43.7173C11.5085 44.0056 11.1255 44.1594 10.6659 44.1594C10.2063 44.1594 9.82337 44.0056 9.53613 43.7173C9.2489 43.429 9.0957 43.0638 9.0957 42.641C9.0957 42.2181 9.2489 41.8529 9.53613 41.5646C9.82337 41.257 10.2063 41.1033 10.6659 41.1033ZM11.4702 41.8144C11.2595 41.603 10.9915 41.4877 10.6659 41.4877C10.3404 41.4877 10.0723 41.603 9.86166 41.8144C9.65102 42.0259 9.53613 42.295 9.53613 42.6217C9.53613 42.9485 9.65102 43.2176 9.86166 43.429C10.0723 43.6404 10.3404 43.7558 10.6659 43.7558C10.9915 43.7558 11.2595 43.6404 11.4702 43.429C11.6808 43.2176 11.7957 42.9485 11.7957 42.6217C11.7766 42.3142 11.6808 42.0451 11.4702 41.8144Z" fill="#9E9D9E"/>
<path d="M14.3232 39.8733H14.7637V41.6416C15.0318 41.2764 15.4147 41.1034 15.8935 41.1034C16.3147 41.1034 16.6786 41.2572 16.9467 41.5455C17.2147 41.8338 17.3488 42.199 17.3488 42.6411C17.3488 43.064 17.2147 43.4292 16.9467 43.7175C16.6786 44.0058 16.3147 44.1596 15.8935 44.1596C15.4147 44.1596 15.0318 43.9866 14.7637 43.6214V44.0827H14.3232V39.8733ZM14.7637 43.1216C14.936 43.5061 15.3381 43.7752 15.7786 43.7752C16.1041 43.7752 16.3722 43.6598 16.5828 43.4484C16.7935 43.237 16.9084 42.9679 16.9084 42.6411C16.9084 42.3144 16.7935 42.0453 16.5828 41.8338C16.3722 41.6032 16.1041 41.5071 15.7786 41.5071C15.3381 41.5071 14.9169 41.7762 14.7637 42.1606V43.1216Z" fill="#9E9D9E"/>
<path d="M19.513 43.9095C19.3024 43.7365 19.1875 43.5058 19.1875 43.1983C19.1875 42.91 19.3024 42.6601 19.5322 42.4871C19.762 42.3141 20.0492 42.2372 20.3939 42.2372C20.7769 42.2372 21.1215 42.3333 21.4471 42.5256V42.218C21.4471 41.7375 21.1215 41.4876 20.4896 41.4876C20.145 41.4876 19.8386 41.5837 19.5322 41.7759V41.3531C19.8194 41.1801 20.1641 41.084 20.5662 41.084C21.3322 41.084 21.8684 41.4492 21.8684 42.1604V43.3521C21.8684 43.5827 21.9832 43.7173 22.1364 43.7173C22.1939 43.7173 22.2513 43.698 22.3088 43.6788V44.0248C22.2513 44.0632 22.1556 44.0825 22.0215 44.0825C21.7343 44.0825 21.5237 43.9287 21.4662 43.6212C21.179 43.9671 20.7769 44.1401 20.2981 44.1401C19.9918 44.1593 19.7428 44.0825 19.513 43.9095ZM21.4279 43.2752V42.8715C21.1407 42.6793 20.8152 42.5832 20.4896 42.5832C19.9535 42.5832 19.6279 42.8139 19.6279 43.1598C19.6279 43.5443 19.9726 43.7557 20.413 43.7557C20.8343 43.7749 21.2173 43.5443 21.4279 43.2752Z" fill="#9E9D9E"/>
<path d="M24.2998 43.4484V39.8733H24.7402V43.3523C24.7402 43.6406 24.8743 43.7752 25.1232 43.7752C25.219 43.7752 25.3147 43.7559 25.4104 43.6983V44.0827C25.3147 44.1404 25.1615 44.1596 24.9892 44.1596C24.6062 44.1596 24.2998 43.9481 24.2998 43.4484Z" fill="#9E9D9E"/>
<path d="M30.3125 44.0826V39.854H33.204V40.2576H30.7721V41.6031H32.7827V42.0068H30.7721V43.6598H33.2997V44.0634H30.3125V44.0826Z" fill="#9E9D9E"/>
<path d="M35.8086 44.0825H35.3682V41.1609H35.8086V41.603C36.115 41.257 36.498 41.084 36.9767 41.084C37.7043 41.084 38.0873 41.5261 38.0873 42.2949V44.0632H37.6469V42.4102C37.6469 41.6414 37.1873 41.5068 36.8235 41.5068C36.632 41.5068 36.4405 41.5645 36.249 41.6991C36.0575 41.8144 35.9235 41.9489 35.8277 42.1219V44.0825H35.8086Z" fill="#9E9D9E"/>
<path d="M41.2848 44.1019L39.9443 41.1611H40.4231L41.4763 43.5061L42.5294 41.1611H42.989L41.6486 44.1019H41.2848Z" fill="#9E9D9E"/>
<path d="M45.0579 39.9503C45.1727 39.8349 45.3642 39.8349 45.4983 39.9503C45.6132 40.0656 45.6132 40.2578 45.4983 40.3923C45.3834 40.5077 45.1919 40.5077 45.0579 40.3923C44.943 40.277 44.943 40.0848 45.0579 39.9503ZM45.0579 44.0828V41.1612H45.4983V44.0828H45.0579Z" fill="#9E9D9E"/>
<path d="M47.8721 44.0825V41.1609H48.3125V41.7183C48.5231 41.3339 48.9827 41.084 49.4615 41.084V41.5261C49.3274 41.5261 49.2125 41.5453 49.0976 41.5837C48.7146 41.6798 48.4274 41.9489 48.3125 42.2372V44.0825H47.8721Z" fill="#9E9D9E"/>
<path d="M52.7558 41.1033C53.2153 41.1033 53.5983 41.257 53.8856 41.5646C54.1728 41.8529 54.326 42.2181 54.326 42.641C54.326 43.0638 54.1728 43.429 53.8856 43.7173C53.5983 44.0056 53.2153 44.1594 52.7558 44.1594C52.2962 44.1594 51.9132 44.0056 51.626 43.7173C51.3387 43.429 51.1855 43.0638 51.1855 42.641C51.1855 42.2181 51.3387 41.8529 51.626 41.5646C51.9132 41.257 52.2962 41.1033 52.7558 41.1033ZM53.56 41.8144C53.3494 41.603 53.0813 41.4877 52.7558 41.4877C52.4302 41.4877 52.1621 41.603 51.9515 41.8144C51.7409 42.0259 51.626 42.295 51.626 42.6217C51.626 42.9485 51.7409 43.2176 51.9515 43.429C52.1621 43.6404 52.4302 43.7558 52.7558 43.7558C53.0813 43.7558 53.3494 43.6404 53.56 43.429C53.7707 43.2176 53.8856 42.9485 53.8856 42.6217C53.8664 42.3142 53.7707 42.0451 53.56 41.8144Z" fill="#9E9D9E"/>
<path d="M56.8535 44.0825H56.4131V41.1609H56.8535V41.603C57.1599 41.257 57.5429 41.084 58.0216 41.084C58.7493 41.084 59.1322 41.5261 59.1322 42.2949V44.0632H58.6918V42.4102C58.6918 41.6414 58.2322 41.5068 57.8684 41.5068C57.6769 41.5068 57.4854 41.5645 57.2939 41.6991C57.1024 41.8144 56.9684 41.9489 56.8727 42.1219V44.0825H56.8535Z" fill="#9E9D9E"/>
<path d="M61.3721 44.0825V41.1609H61.8125V41.603C62.0614 41.257 62.4061 41.1033 62.8657 41.1033C63.3444 41.1033 63.6699 41.3147 63.804 41.6799C64.0146 41.3339 64.4167 41.1033 64.9146 41.1033C65.5657 41.1033 65.9486 41.5261 65.9486 42.2758V44.0825H65.5082V42.3719C65.5082 41.7952 65.2593 41.5069 64.7806 41.5069C64.4167 41.5069 64.0338 41.7952 63.8614 42.1412C63.8614 42.295 63.8806 42.4103 63.8806 42.468V44.0825H63.4401V42.3719C63.4401 41.7952 63.1912 41.5069 62.7125 41.5069C62.5402 41.5069 62.3678 41.5646 62.1955 41.6799C62.0231 41.7952 61.8891 41.9298 61.8125 42.1028V44.0825H61.3721Z" fill="#9E9D9E"/>
<path d="M68.4381 43.7365C68.1317 43.4482 67.9785 43.083 67.9785 42.641C67.9785 42.1989 68.1126 41.8337 68.3806 41.5454C68.6487 41.257 69.0126 41.1033 69.453 41.1033C70.4296 41.1033 70.8126 41.9682 70.8126 42.6217V42.7371H68.4189C68.4764 43.3713 68.9551 43.775 69.6636 43.775C70.0083 43.775 70.3147 43.6789 70.6019 43.5059V43.8903C70.353 44.0825 70.0274 44.1594 69.587 44.1594C69.1274 44.1594 68.7445 44.0249 68.4381 43.7365ZM70.3721 42.3911C70.353 42.1604 70.2764 41.9682 70.1232 41.776C69.97 41.5838 69.7402 41.5069 69.4338 41.5069C69.1466 41.5069 68.8977 41.603 68.7253 41.776C68.553 41.949 68.4572 42.1604 68.4381 42.3911H70.3721Z" fill="#9E9D9E"/>
<path d="M73.3594 44.0825H72.9189V41.1609H73.3594V41.603C73.6658 41.257 74.0488 41.084 74.5275 41.084C75.2552 41.084 75.6381 41.5261 75.6381 42.2949V44.0632H75.1977V42.4102C75.1977 41.6414 74.7381 41.5068 74.3743 41.5068C74.1828 41.5068 73.9913 41.5645 73.7998 41.6991C73.6083 41.8144 73.4743 41.9489 73.3785 42.1219V44.0825H73.3594Z" fill="#9E9D9E"/>
<path d="M78.2235 43.2563V41.5456H77.5342V41.1612H78.2235V40.2578H78.664V41.1612H79.6788V41.5456H78.664V43.1217C78.664 43.3524 78.7023 43.5062 78.7788 43.6023C78.8554 43.6984 78.9895 43.7368 79.1618 43.7368C79.3342 43.7368 79.5065 43.6984 79.6405 43.6215V44.0251C79.5065 44.1212 79.315 44.1597 79.0469 44.1597C78.4725 44.1597 78.2235 43.8137 78.2235 43.2563Z" fill="#9E9D9E"/>
<path d="M81.8236 43.9095C81.6129 43.7365 81.498 43.5058 81.498 43.1983C81.498 42.91 81.6129 42.6601 81.8427 42.4871C82.0725 42.3141 82.3597 42.2372 82.7044 42.2372C83.0874 42.2372 83.4321 42.3333 83.7576 42.5256V42.218C83.7576 41.7375 83.4321 41.4876 82.8002 41.4876C82.4555 41.4876 82.1491 41.5837 81.8427 41.7759V41.3531C82.13 41.1801 82.4746 41.084 82.8768 41.084C83.6427 41.084 84.1789 41.4492 84.1789 42.1604V43.3521C84.1789 43.5827 84.2938 43.7173 84.447 43.7173C84.5044 43.7173 84.5619 43.698 84.6193 43.6788V44.0248C84.5619 44.0632 84.4661 44.0825 84.3321 44.0825C84.0449 44.0825 83.8342 43.9287 83.7768 43.6212C83.4895 43.9671 83.0874 44.1401 82.6087 44.1401C82.3023 44.1593 82.0534 44.0825 81.8236 43.9095ZM83.7385 43.2752V42.8715C83.4512 42.6793 83.1257 42.5832 82.8002 42.5832C82.264 42.5832 81.9385 42.8139 81.9385 43.1598C81.9385 43.5443 82.2832 43.7557 82.7236 43.7557C83.1449 43.7749 83.5278 43.5443 83.7385 43.2752Z" fill="#9E9D9E"/>
<path d="M86.6299 43.4484V39.8733H87.0703V43.3523C87.0703 43.6406 87.2044 43.7752 87.4533 43.7752C87.549 43.7752 87.6448 43.7559 87.7405 43.6983V44.0827C87.6448 44.1404 87.4916 44.1596 87.3193 44.1596C86.9171 44.1596 86.6299 43.9481 86.6299 43.4484Z" fill="#9E9D9E"/>
<path d="M92.3174 43.7174V43.2177C92.4706 43.3522 92.7004 43.4868 92.9685 43.5829C93.2557 43.679 93.5429 43.7366 93.8493 43.7366C94.5004 43.7366 94.9791 43.4291 94.9791 42.9486C95.0174 42.6795 94.8068 42.4873 94.6344 42.3719C94.577 42.3335 94.5004 42.295 94.3855 42.2566L94.1174 42.1605C94.06 42.1413 93.9451 42.1028 93.7919 42.0644C93.6004 42.0067 93.4472 41.9683 93.3514 41.9299C93.2365 41.8914 93.1216 41.853 92.9876 41.7761C92.8536 41.7184 92.7387 41.6415 92.6812 41.5647C92.528 41.4109 92.4131 41.1802 92.4131 40.8727C92.4131 40.5459 92.5472 40.2961 92.7961 40.0846C93.0451 39.8732 93.4089 39.7771 93.8685 39.7771C94.3663 39.7771 94.8068 39.8924 95.1706 40.1231V40.5844C94.7493 40.3345 94.3281 40.2 93.8685 40.2C93.1983 40.2 92.8536 40.5075 92.8536 40.8919C92.8153 41.1033 92.9876 41.2571 93.1216 41.3724C93.1599 41.4109 93.2174 41.4301 93.3131 41.4685L93.5238 41.5454L93.7727 41.6223L94.0217 41.6992C94.194 41.7569 94.3281 41.7953 94.4429 41.8337C94.5387 41.8722 94.6727 41.9299 94.8068 41.9875C94.9408 42.0644 95.0557 42.1413 95.1323 42.2182C95.2855 42.3719 95.4195 42.641 95.4195 42.9486C95.4195 43.333 95.2663 43.6213 94.96 43.8327C94.6536 44.0442 94.2897 44.1595 93.8493 44.1595C93.2557 44.1595 92.6621 43.9673 92.3174 43.7174Z" fill="#9E9D9E"/>
<path d="M98.9813 41.1033C99.4409 41.1033 99.8239 41.257 100.111 41.5646C100.398 41.8529 100.552 42.2181 100.552 42.641C100.552 43.0638 100.398 43.429 100.111 43.7173C99.8239 44.0056 99.4409 44.1594 98.9813 44.1594C98.5218 44.1594 98.1388 44.0056 97.8516 43.7173C97.5643 43.429 97.4111 43.0638 97.4111 42.641C97.4111 42.2181 97.5643 41.8529 97.8516 41.5646C98.1388 41.257 98.5218 41.1033 98.9813 41.1033ZM99.7856 41.8144C99.5749 41.603 99.3069 41.4877 98.9813 41.4877C98.6558 41.4877 98.3877 41.603 98.1771 41.8144C97.9664 42.0259 97.8516 42.295 97.8516 42.6217C97.8516 42.9485 97.9664 43.2176 98.1771 43.429C98.3877 43.6404 98.6558 43.7558 98.9813 43.7558C99.3069 43.7558 99.5749 43.6404 99.7856 43.429C99.9962 43.2176 100.111 42.9485 100.111 42.6217C100.092 42.3142 99.9962 42.0451 99.7856 41.8144Z" fill="#9E9D9E"/>
<path d="M102.639 43.4484V39.8733H103.079V43.3523C103.079 43.6406 103.213 43.7752 103.462 43.7752C103.558 43.7752 103.654 43.7559 103.749 43.6983V44.0827C103.654 44.1404 103.5 44.1596 103.328 44.1596C102.926 44.1596 102.639 43.9481 102.639 43.4484Z" fill="#9E9D9E"/>
<path d="M107.905 41.1802H108.345V44.1018H107.905V43.6597C107.598 44.0057 107.215 44.1787 106.737 44.1787C106.009 44.1787 105.626 43.7366 105.626 42.9677V41.1994H106.066V42.8716C106.066 43.6405 106.526 43.775 106.89 43.775C107.081 43.775 107.273 43.7173 107.464 43.602C107.656 43.4675 107.809 43.3329 107.905 43.1792V41.1802Z" fill="#9E9D9E"/>
<path d="M110.987 43.2563V41.5456H110.298V41.1612H110.987V40.2578H111.428V41.1612H112.443V41.5456H111.428V43.1217C111.428 43.3524 111.466 43.5062 111.543 43.6023C111.619 43.6984 111.753 43.7368 111.926 43.7368C112.098 43.7368 112.27 43.6984 112.404 43.6215V44.0251C112.27 44.1212 112.079 44.1597 111.811 44.1597C111.255 44.1597 110.987 43.8137 110.987 43.2563Z" fill="#9E9D9E"/>
<path d="M114.607 39.9503C114.722 39.8349 114.913 39.8349 115.047 39.9503C115.162 40.0656 115.162 40.2578 115.047 40.3923C114.932 40.5077 114.741 40.5077 114.607 40.3923C114.492 40.277 114.492 40.0848 114.607 39.9503ZM114.607 44.0828V41.1612H115.047V44.0828H114.607Z" fill="#9E9D9E"/>
<path d="M118.781 41.1033C119.241 41.1033 119.624 41.257 119.911 41.5646C120.198 41.8529 120.351 42.2181 120.351 42.641C120.351 43.0638 120.198 43.429 119.911 43.7173C119.624 44.0056 119.241 44.1594 118.781 44.1594C118.322 44.1594 117.939 44.0056 117.651 43.7173C117.364 43.429 117.211 43.0638 117.211 42.641C117.211 42.2181 117.364 41.8529 117.651 41.5646C117.958 41.257 118.322 41.1033 118.781 41.1033ZM119.585 41.8144C119.375 41.603 119.107 41.4877 118.781 41.4877C118.456 41.4877 118.188 41.603 117.977 41.8144C117.766 42.0259 117.651 42.295 117.651 42.6217C117.651 42.9485 117.766 43.2176 117.977 43.429C118.188 43.6404 118.456 43.7558 118.781 43.7558C119.107 43.7558 119.375 43.6404 119.585 43.429C119.796 43.2176 119.911 42.9485 119.911 42.6217C119.911 42.3142 119.796 42.0451 119.585 41.8144Z" fill="#9E9D9E"/>
<path d="M122.879 44.0825H122.438V41.1609H122.879V41.603C123.185 41.257 123.568 41.084 124.047 41.084C124.775 41.084 125.158 41.5261 125.158 42.2949V44.0632H124.717V42.4102C124.717 41.6414 124.258 41.5068 123.894 41.5068C123.702 41.5068 123.511 41.5645 123.319 41.6991C123.128 41.8144 122.994 41.9489 122.898 42.1219V44.0825H122.879Z" fill="#9E9D9E"/>
<path d="M127.188 43.8518V43.4097C127.532 43.6404 127.934 43.7749 128.375 43.7749C128.873 43.7749 129.179 43.6019 129.179 43.3136C129.179 43.1599 129.102 43.083 128.968 43.0061C128.911 42.9676 128.739 42.91 128.662 42.8908C128.624 42.8715 128.566 42.8523 128.47 42.8331C128.375 42.8139 128.317 42.7947 128.279 42.7754C127.59 42.6024 127.264 42.391 127.264 41.8913C127.264 41.3915 127.685 41.084 128.432 41.084C128.873 41.084 129.217 41.1609 129.485 41.3339V41.7567C129.16 41.5645 128.815 41.4684 128.451 41.4684C127.953 41.4684 127.705 41.6414 127.705 41.8913C127.705 42.0258 127.781 42.1411 127.934 42.218C128.03 42.2565 128.049 42.2757 128.164 42.2949L128.298 42.3333C128.356 42.3526 128.547 42.391 128.585 42.391C129.256 42.5448 129.639 42.7562 129.639 43.2752C129.639 43.525 129.524 43.7365 129.294 43.8902C129.064 44.044 128.777 44.1209 128.413 44.1209C127.915 44.1593 127.436 44.0248 127.188 43.8518Z" fill="#9E9D9E"/>
<path d="M26.6172 10.8826C26.6172 4.8723 31.4895 0 37.4998 0C37.4998 6.01028 32.6275 10.8826 26.6172 10.8826Z" fill="#1FA84A"/>
<path d="M100.618 10.8826C100.618 4.8723 105.49 0 111.501 0C111.501 6.01028 106.628 10.8826 100.618 10.8826Z" fill="#1FA84A"/>
</svg>
